  0
SECTION
  2
HEADER
  9
$ACADVER
  1
AC1009
  9
$INSUNITS
 70
     1
  0
ENDSEC
  0
SECTION
  2
TABLES
  0
TABLE
  2
LAYER
 70
     8
  0
LAYER
  2
0
 62
     7
 70
0
  6
CONTINUOUS
  0
LAYER
  2
1
 62
     1
 70
0
  6
CONTINUOUS
  0
LAYER
  2
2
 62
     2
 70
0
  6
CONTINUOUS
  0
LAYER
  2
3
 62
     3
 70
0
  6
CONTINUOUS
  0
LAYER
  2
4
 62
     4
 70
0
  6
CONTINUOUS
  0
LAYER
  2
5
 62
     5
 70
0
  6
CONTINUOUS
  0
LAYER
  2
6
 62
     6
 70
0
  6
CONTINUOUS
  0
LAYER
  2
7
 62
     7
 70
0
  6
CONTINUOUS
  0
ENDTAB
  0
TABLE
  2
STYLE
 70
     1
  0
STYLE
 70
     0
  2
STANDARD
  3
TXT
 40
0.00
 41
1.00
 42
1.00
 50
0.00
 71
     0
  0
ENDTAB
  0
ENDSEC
  0
SECTION
  2
BLOCKS
  0
BLOCK
  8
0
  2
EPAD
 70
0
 10
0.0
 20
0.0
  0
POLYLINE
  8
0
 66
1
 70
1
 40
0.5
 41
0.5
  0
VERTEX
  8
0
 10
-0.25
 20
0.0
 42
1.0
  0
VERTEX
  8
0
 10
0.25
 20
0.0
 42
1.0
  0
SEQEND
  8
0
  0
ENDBLK
  8
0
  0
BLOCK
  8
0
  2
RPAD
 70
0
 10
0.0
 20
0.0
  0
TRACE
  8
0
 10
-0.5
 20
-0.5
 11
-0.5
 21
0.5
 12
0.5
 22
-0.5
 13
0.5
 23
0.5
  0
ENDBLK
  8
0
  0
ENDSEC
0
SECTION
2
ENTITIES
0
POLYLINE
8
0
66
1
40
0.060000
41
0.060000
0
VERTEX
8
0
10
1.400000
20
1.900000
0
VERTEX
8
0
10
1.400000
20
2.000000
0
SEQEND
8
0
0
POLYLINE
8
0
66
1
40
0.060000
41
0.060000
0
VERTEX
8
0
10
-2.400000
20
-1.500000
0
VERTEX
8
0
10
-2.400000
20
-1.400000
0
SEQEND
8
0
0
POLYLINE
8
0
66
1
40
0.060000
41
0.060000
0
VERTEX
8
0
10
-2.400000
20
-1.300000
0
VERTEX
8
0
10
-2.400000
20
-1.400000
0
SEQEND
8
0
0
POLYLINE
8
0
66
1
40
0.060000
41
0.060000
0
VERTEX
8
0
10
-2.400000
20
-1.000000
0
VERTEX
8
0
10
-2.400000
20
-1.300000
0
SEQEND
8
0
0
POLYLINE
8
0
66
1
40
0.060000
41
0.060000
0
VERTEX
8
0
10
-2.400000
20
-0.900000
0
VERTEX
8
0
10
-2.400000
20
-1.000000
0
SEQEND
8
0
0
POLYLINE
8
0
66
1
40
0.060000
41
0.060000
0
VERTEX
8
0
10
-2.400000
20
-0.800000
0
VERTEX
8
0
10
-2.400000
20
-0.900000
0
SEQEND
8
0
0
POLYLINE
8
0
66
1
40
0.016000
41
0.016000
0
VERTEX
8
0
10
-4.900000
20
0.600000
0
VERTEX
8
0
10
-4.800000
20
0.600000
0
SEQEND
8
0
0
POLYLINE
8
0
66
1
40
0.016000
41
0.016000
0
VERTEX
8
0
10
-4.800000
20
0.800000
0
VERTEX
8
0
10
-4.800000
20
0.600000
0
SEQEND
8
0
0
POLYLINE
8
0
66
1
40
0.016000
41
0.016000
0
VERTEX
8
0
10
-4.800000
20
1.200000
0
VERTEX
8
0
10
-4.800000
20
1.400000
0
VERTEX
8
0
10
-5.100000
20
1.400000
0
SEQEND
8
0
0
POLYLINE
8
0
66
1
40
0.016000
41
0.016000
0
VERTEX
8
0
10
-5.900000
20
2.600000
0
VERTEX
8
0
10
-5.000000
20
2.600000
0
SEQEND
8
0
0
POLYLINE
8
0
66
1
40
0.016000
41
0.016000
0
VERTEX
8
0
10
-5.000000
20
2.900000
0
VERTEX
8
0
10
-5.000000
20
2.600000
0
SEQEND
8
0
0
POLYLINE
8
0
66
1
40
0.016000
41
0.016000
0
VERTEX
8
0
10
-3.200000
20
3.200000
0
VERTEX
8
0
10
-3.200000
20
3.400000
0
VERTEX
8
0
10
-3.400000
20
3.400000
0
SEQEND
8
0
0
POLYLINE
8
0
66
1
40
0.016000
41
0.016000
0
VERTEX
8
0
10
-4.400000
20
3.400000
0
VERTEX
8
0
10
-4.100000
20
3.400000
0
SEQEND
8
0
0
POLYLINE
8
0
66
1
40
0.016000
41
0.016000
0
VERTEX
8
0
10
-3.900000
20
3.400000
0
VERTEX
8
0
10
-4.100000
20
3.400000
0
SEQEND
8
0
0
POLYLINE
8
0
66
1
40
0.016000
41
0.016000
0
VERTEX
8
0
10
-4.100000
20
3.200000
0
VERTEX
8
0
10
-4.100000
20
3.400000
0
SEQEND
8
0
0
POLYLINE
8
0
66
1
40
0.016000
41
0.016000
0
VERTEX
8
0
10
-5.000000
20
2.600000
0
VERTEX
8
0
10
-4.100000
20
2.600000
0
SEQEND
8
0
0
POLYLINE
8
0
66
1
40
0.016000
41
0.016000
0
VERTEX
8
0
10
-4.100000
20
2.800000
0
VERTEX
8
0
10
-4.100000
20
2.600000
0
SEQEND
8
0
0
POLYLINE
8
0
66
1
40
0.016000
41
0.016000
0
VERTEX
8
0
10
-3.200000
20
2.800000
0
VERTEX
8
0
10
-3.200000
20
2.600000
0
VERTEX
8
0
10
-4.100000
20
2.600000
0
SEQEND
8
0
0
POLYLINE
8
0
66
1
40
0.016000
41
0.016000
0
VERTEX
8
0
10
-5.000000
20
2.600000
0
VERTEX
8
0
10
-5.000000
20
2.400000
0
SEQEND
8
0
0
POLYLINE
8
0
66
1
40
0.016000
41
0.016000
0
VERTEX
8
0
10
-4.100000
20
3.400000
0
VERTEX
8
0
10
-4.100000
20
3.600000
0
SEQEND
8
0
0
POLYLINE
8
0
66
1
40
0.016000
41
0.016000
0
VERTEX
8
0
10
-0.900000
20
3.400000
0
VERTEX
8
0
10
-1.000000
20
3.400000
0
VERTEX
8
0
10
-1.000000
20
3.500000
0
SEQEND
8
0
0
POLYLINE
8
0
66
1
40
0.016000
41
0.016000
0
VERTEX
8
0
10
-0.900000
20
3.500000
0
VERTEX
8
0
10
-1.000000
20
3.500000
0
VERTEX
8
0
10
-1.000000
20
3.600000
0
SEQEND
8
0
0
POLYLINE
8
0
66
1
40
0.016000
41
0.016000
0
VERTEX
8
0
10
-0.800000
20
2.500000
0
VERTEX
8
0
10
-0.900000
20
2.500000
0
VERTEX
8
0
10
-0.900000
20
2.400000
0
SEQEND
8
0
0
POLYLINE
8
0
66
1
40
0.016000
41
0.016000
0
VERTEX
8
0
10
-0.800000
20
2.400000
0
VERTEX
8
0
10
-0.900000
20
2.400000
0
VERTEX
8
0
10
-0.900000
20
2.300000
0
SEQEND
8
0
0
POLYLINE
8
0
66
1
40
0.016000
41
0.016000
0
VERTEX
8
0
10
-0.800000
20
2.300000
0
VERTEX
8
0
10
-0.900000
20
2.300000
0
SEQEND
8
0
0
POLYLINE
8
0
66
1
40
0.016000
41
0.016000
0
VERTEX
8
0
10
-0.900000
20
2.100000
0
VERTEX
8
0
10
-0.900000
20
2.200000
0
SEQEND
8
0
0
POLYLINE
8
0
66
1
40
0.016000
41
0.016000
0
VERTEX
8
0
10
-0.900000
20
2.300000
0
VERTEX
8
0
10
-0.900000
20
2.200000
0
SEQEND
8
0
0
POLYLINE
8
0
66
1
40
0.016000
41
0.016000
0
VERTEX
8
0
10
-0.800000
20
2.200000
0
VERTEX
8
0
10
-0.900000
20
2.200000
0
SEQEND
8
0
0
POLYLINE
8
0
66
1
40
0.016000
41
0.016000
0
VERTEX
8
0
10
-0.900000
20
-0.600000
0
VERTEX
8
0
10
-0.900000
20
-1.300000
0
SEQEND
8
0
0
POLYLINE
8
0
66
1
40
0.016000
41
0.016000
0
VERTEX
8
0
10
-0.700000
20
-0.600000
0
VERTEX
8
0
10
-0.700000
20
-1.300000
0
SEQEND
8
0
0
POLYLINE
8
0
66
1
40
0.016000
41
0.016000
0
VERTEX
8
0
10
-0.900000
20
-1.300000
0
VERTEX
8
0
10
-0.700000
20
-1.300000
0
SEQEND
8
0
0
POLYLINE
8
0
66
1
40
0.016000
41
0.016000
0
VERTEX
8
0
10
-0.600000
20
-0.600000
0
VERTEX
8
0
10
-0.600000
20
-1.300000
0
SEQEND
8
0
0
POLYLINE
8
0
66
1
40
0.016000
41
0.016000
0
VERTEX
8
0
10
-0.700000
20
-1.300000
0
VERTEX
8
0
10
-0.600000
20
-1.300000
0
SEQEND
8
0
0
POLYLINE
8
0
66
1
40
0.016000
41
0.016000
0
VERTEX
8
0
10
0.200000
20
-0.600000
0
VERTEX
8
0
10
0.200000
20
-1.000000
0
VERTEX
8
0
10
0.500000
20
-1.000000
0
VERTEX
8
0
10
0.500000
20
-1.000000
0
SEQEND
8
0
0
POLYLINE
8
0
66
1
40
0.016000
41
0.016000
0
VERTEX
8
0
10
0.500000
20
-1.100000
0
VERTEX
8
0
10
0.500000
20
-1.000000
0
SEQEND
8
0
0
POLYLINE
8
0
66
1
40
0.016000
41
0.016000
0
VERTEX
8
0
10
0.300000
20
-0.600000
0
VERTEX
8
0
10
0.300000
20
-0.900000
0
VERTEX
8
0
10
0.500000
20
-0.900000
0
VERTEX
8
0
10
0.500000
20
-0.900000
0
SEQEND
8
0
0
POLYLINE
8
0
66
1
40
0.016000
41
0.016000
0
VERTEX
8
0
10
0.500000
20
-0.800000
0
VERTEX
8
0
10
0.500000
20
-0.900000
0
SEQEND
8
0
0
POLYLINE
8
0
66
1
40
0.016000
41
0.016000
0
VERTEX
8
0
10
-0.500000
20
-0.600000
0
VERTEX
8
0
10
-0.500000
20
-1.300000
0
SEQEND
8
0
0
POLYLINE
8
0
66
1
40
0.016000
41
0.016000
0
VERTEX
8
0
10
-0.600000
20
-1.300000
0
VERTEX
8
0
10
-0.500000
20
-1.300000
0
SEQEND
8
0
0
POLYLINE
8
0
66
1
40
0.016000
41
0.016000
0
VERTEX
8
0
10
-0.400000
20
-0.600000
0
VERTEX
8
0
10
-0.400000
20
-1.300000
0
VERTEX
8
0
10
-0.500000
20
-1.300000
0
SEQEND
8
0
0
POLYLINE
8
0
66
1
40
0.016000
41
0.016000
0
VERTEX
8
0
10
2.100000
20
0.700000
0
VERTEX
8
0
10
2.100000
20
0.700000
0
SEQEND
8
0
0
POLYLINE
8
0
66
1
40
0.016000
41
0.016000
0
VERTEX
8
0
10
2.100000
20
-0.300000
0
VERTEX
8
0
10
2.100000
20
-0.300000
0
SEQEND
8
0
0
POLYLINE
8
0
66
1
40
0.016000
41
0.016000
0
VERTEX
8
0
10
2.100000
20
-1.300000
0
VERTEX
8
0
10
2.100000
20
-1.300000
0
SEQEND
8
0
0
POLYLINE
8
0
66
1
40
0.016000
41
0.016000
0
VERTEX
8
0
10
-2.000000
20
0.600000
0
VERTEX
8
0
10
-2.100000
20
0.500000
0
SEQEND
8
0
0
POLYLINE
8
0
66
1
40
0.016000
41
0.016000
0
VERTEX
8
0
10
-2.000000
20
0.700000
0
VERTEX
8
0
10
-2.100000
20
0.700000
0
VERTEX
8
0
10
-2.300000
20
0.500000
0
SEQEND
8
0
0
POLYLINE
8
0
66
1
40
0.016000
41
0.016000
0
VERTEX
8
0
10
-6.000000
20
-0.300000
0
VERTEX
8
0
10
-4.700000
20
-0.300000
0
SEQEND
8
0
0
POLYLINE
8
0
66
1
40
0.016000
41
0.016000
0
VERTEX
8
0
10
-5.900000
20
-1.800000
0
VERTEX
8
0
10
-5.400000
20
-1.800000
0
VERTEX
8
0
10
-5.400000
20
-0.400000
0
VERTEX
8
0
10
-4.700000
20
-0.400000
0
SEQEND
8
0
0
POLYLINE
8
0
66
1
40
0.016000
41
0.016000
0
VERTEX
8
0
10
-4.800000
20
0.600000
0
VERTEX
8
0
10
-4.800000
20
0.100000
0
VERTEX
8
0
10
-4.700000
20
0.100000
0
SEQEND
8
0
0
POLYLINE
8
0
66
1
40
0.016000
41
0.016000
0
VERTEX
8
0
10
-5.400000
20
0.600000
0
VERTEX
8
0
10
-5.400000
20
0.000000
0
VERTEX
8
0
10
-4.700000
20
0.000000
0
SEQEND
8
0
0
POLYLINE
8
0
66
1
40
0.016000
41
0.016000
0
VERTEX
8
0
10
-2.400000
20
-0.900000
0
VERTEX
8
0
10
-2.800000
20
-0.900000
0
SEQEND
8
0
0
TEXT
8
0
10
-2.700000
20
-0.882000
40
0.080000
41
1.000000
1
BTN1
0
POLYLINE
8
0
66
1
40
0.016000
41
0.016000
0
VERTEX
8
0
10
-2.400000
20
-1.000000
0
VERTEX
8
0
10
-2.800000
20
-1.000000
0
SEQEND
8
0
0
TEXT
8
0
10
-2.700000
20
-0.982000
40
0.080000
41
1.000000
1
BTN2
0
POLYLINE
8
0
66
1
40
0.016000
41
0.016000
0
VERTEX
8
0
10
-1.000000
20
-0.600000
0
VERTEX
8
0
10
-1.000000
20
-1.700000
0
VERTEX
8
0
10
-2.800000
20
-1.700000
0
SEQEND
8
0
0
POLYLINE
8
0
66
1
40
0.016000
41
0.016000
0
VERTEX
8
0
10
-0.800000
20
-0.600000
0
VERTEX
8
0
10
-0.800000
20
-1.800000
0
VERTEX
8
0
10
-2.800000
20
-1.800000
0
SEQEND
8
0
0
POLYLINE
8
0
66
1
40
0.016000
41
0.016000
0
VERTEX
8
0
10
-2.600000
20
-0.600000
0
VERTEX
8
0
10
-2.800000
20
-0.600000
0
SEQEND
8
0
0
POLYLINE
8
0
66
1
40
0.016000
41
0.016000
0
VERTEX
8
0
10
-2.600000
20
-0.500000
0
VERTEX
8
0
10
-2.800000
20
-0.500000
0
SEQEND
8
0
0
POLYLINE
8
0
66
1
40
0.016000
41
0.016000
0
VERTEX
8
0
10
-2.600000
20
-0.400000
0
VERTEX
8
0
10
-2.800000
20
-0.400000
0
SEQEND
8
0
0
POLYLINE
8
0
66
1
40
0.016000
41
0.016000
0
VERTEX
8
0
10
-2.600000
20
-0.300000
0
VERTEX
8
0
10
-2.800000
20
-0.300000
0
SEQEND
8
0
0
POLYLINE
8
0
66
1
40
0.016000
41
0.016000
0
VERTEX
8
0
10
-2.600000
20
-0.200000
0
VERTEX
8
0
10
-2.800000
20
-0.200000
0
SEQEND
8
0
0
POLYLINE
8
0
66
1
40
0.016000
41
0.016000
0
VERTEX
8
0
10
-2.600000
20
-0.100000
0
VERTEX
8
0
10
-2.800000
20
-0.100000
0
SEQEND
8
0
0
POLYLINE
8
0
66
1
40
0.016000
41
0.016000
0
VERTEX
8
0
10
-2.000000
20
0.900000
0
VERTEX
8
0
10
-2.600000
20
0.900000
0
VERTEX
8
0
10
-2.600000
20
0.000000
0
VERTEX
8
0
10
-2.800000
20
0.000000
0
SEQEND
8
0
0
POLYLINE
8
0
66
1
40
0.016000
41
0.016000
0
VERTEX
8
0
10
-2.000000
20
0.800000
0
VERTEX
8
0
10
-2.700000
20
0.800000
0
VERTEX
8
0
10
-2.700000
20
0.100000
0
VERTEX
8
0
10
-2.800000
20
0.100000
0
SEQEND
8
0
0
POLYLINE
8
0
66
1
40
0.016000
41
0.016000
0
VERTEX
8
0
10
0.100000
20
-0.600000
0
VERTEX
8
0
10
0.100000
20
-2.200000
0
VERTEX
8
0
10
-2.800000
20
-2.200000
0
SEQEND
8
0
0
POLYLINE
8
0
66
1
40
0.016000
41
0.016000
0
VERTEX
8
0
10
0.000000
20
-0.600000
0
VERTEX
8
0
10
0.000000
20
-2.100000
0
VERTEX
8
0
10
-2.800000
20
-2.100000
0
SEQEND
8
0
0
POLYLINE
8
0
66
1
40
0.016000
41
0.016000
0
VERTEX
8
0
10
-0.200000
20
-0.600000
0
VERTEX
8
0
10
-0.200000
20
-2.000000
0
VERTEX
8
0
10
-2.800000
20
-2.000000
0
SEQEND
8
0
0
POLYLINE
8
0
66
1
40
0.016000
41
0.016000
0
VERTEX
8
0
10
-0.300000
20
-0.600000
0
VERTEX
8
0
10
-0.300000
20
-1.900000
0
VERTEX
8
0
10
-2.800000
20
-1.900000
0
SEQEND
8
0
0
POLYLINE
8
0
66
1
40
0.016000
41
0.016000
0
VERTEX
8
0
10
-2.400000
20
-1.500000
0
VERTEX
8
0
10
-2.800000
20
-1.500000
0
SEQEND
8
0
0
TEXT
8
0
10
-2.700000
20
-1.482000
40
0.080000
41
1.000000
1
RX
0
POLYLINE
8
0
66
1
40
0.016000
41
0.016000
0
VERTEX
8
0
10
-2.400000
20
-1.400000
0
VERTEX
8
0
10
-2.800000
20
-1.400000
0
SEQEND
8
0
0
TEXT
8
0
10
-2.700000
20
-1.382000
40
0.080000
41
1.000000
1
TX
0
POLYLINE
8
0
66
1
40
0.016000
41
0.016000
0
VERTEX
8
0
10
-2.400000
20
-1.300000
0
VERTEX
8
0
10
-2.800000
20
-1.300000
0
SEQEND
8
0
0
POLYLINE
8
0
66
1
40
0.016000
41
0.016000
0
VERTEX
8
0
10
-2.400000
20
-0.800000
0
VERTEX
8
0
10
-2.800000
20
-0.800000
0
SEQEND
8
0
0
TEXT
8
0
10
-2.700000
20
-0.782000
40
0.080000
41
1.000000
1
BTN0
0
POLYLINE
8
0
66
1
40
0.016000
41
0.016000
0
VERTEX
8
0
10
-5.400000
20
-0.100000
0
VERTEX
8
0
10
-4.700000
20
-0.100000
0
SEQEND
8
0
0
TEXT
8
0
10
-5.200000
20
-0.082000
40
0.080000
41
1.000000
1
RS
0
POLYLINE
8
0
66
1
40
0.016000
41
0.016000
0
VERTEX
8
0
10
-4.700000
20
-0.500000
0
VERTEX
8
0
10
-4.800000
20
-0.500000
0
VERTEX
8
0
10
-4.900000
20
-0.600000
0
SEQEND
8
0
0
POLYLINE
8
0
66
1
40
0.016000
41
0.016000
0
VERTEX
8
0
10
-4.700000
20
-0.600000
0
VERTEX
8
0
10
-4.800000
20
-0.600000
0
VERTEX
8
0
10
-4.900000
20
-0.700000
0
SEQEND
8
0
0
POLYLINE
8
0
66
1
40
0.016000
41
0.016000
0
VERTEX
8
0
10
-4.700000
20
-0.700000
0
VERTEX
8
0
10
-4.800000
20
-0.700000
0
VERTEX
8
0
10
-4.900000
20
-0.800000
0
SEQEND
8
0
0
POLYLINE
8
0
66
1
40
0.016000
41
0.016000
0
VERTEX
8
0
10
-4.700000
20
-0.800000
0
VERTEX
8
0
10
-4.800000
20
-0.800000
0
VERTEX
8
0
10
-4.900000
20
-0.900000
0
SEQEND
8
0
0
POLYLINE
8
0
66
1
40
0.016000
41
0.016000
0
VERTEX
8
0
10
-4.700000
20
-1.000000
0
VERTEX
8
0
10
-4.900000
20
-1.000000
0
SEQEND
8
0
0
POLYLINE
8
0
66
1
40
0.016000
41
0.016000
0
VERTEX
8
0
10
-4.700000
20
-1.100000
0
VERTEX
8
0
10
-4.900000
20
-1.100000
0
SEQEND
8
0
0
POLYLINE
8
0
66
1
40
0.016000
41
0.016000
0
VERTEX
8
0
10
-4.700000
20
-1.200000
0
VERTEX
8
0
10
-4.900000
20
-1.200000
0
SEQEND
8
0
0
POLYLINE
8
0
66
1
40
0.016000
41
0.016000
0
VERTEX
8
0
10
3.600000
20
2.200000
0
VERTEX
8
0
10
3.300000
20
2.200000
0
VERTEX
8
0
10
3.300000
20
2.300000
0
SEQEND
8
0
0
POLYLINE
8
0
66
1
40
0.016000
41
0.016000
0
VERTEX
8
0
10
3.600000
20
2.100000
0
VERTEX
8
0
10
3.100000
20
2.100000
0
VERTEX
8
0
10
3.100000
20
2.200000
0
SEQEND
8
0
0
POLYLINE
8
0
66
1
40
0.016000
41
0.016000
0
VERTEX
8
0
10
2.300000
20
1.300000
0
VERTEX
8
0
10
2.300000
20
1.300000
0
SEQEND
8
0
0
POLYLINE
8
0
66
1
40
0.016000
41
0.016000
0
VERTEX
8
0
10
2.300000
20
1.800000
0
VERTEX
8
0
10
2.300000
20
1.900000
0
SEQEND
8
0
0
POLYLINE
8
0
66
1
40
0.016000
41
0.016000
0
VERTEX
8
0
10
2.200000
20
1.900000
0
VERTEX
8
0
10
2.300000
20
1.900000
0
SEQEND
8
0
0
POLYLINE
8
0
66
1
40
0.016000
41
0.016000
0
VERTEX
8
0
10
3.600000
20
1.900000
0
VERTEX
8
0
10
2.300000
20
1.900000
0
SEQEND
8
0
0
POLYLINE
8
0
66
1
40
0.016000
41
0.016000
0
VERTEX
8
0
10
1.700000
20
1.900000
0
VERTEX
8
0
10
1.400000
20
1.900000
0
SEQEND
8
0
0
TEXT
8
0
10
1.500000
20
1.918000
40
0.080000
41
1.000000
1
TX
0
POLYLINE
8
0
66
1
40
0.016000
41
0.016000
0
VERTEX
8
0
10
3.600000
20
2.000000
0
VERTEX
8
0
10
2.200000
20
2.000000
0
VERTEX
8
0
10
2.100000
20
2.100000
0
VERTEX
8
0
10
1.800000
20
2.100000
0
VERTEX
8
0
10
1.700000
20
2.000000
0
VERTEX
8
0
10
1.400000
20
2.000000
0
SEQEND
8
0
0
TEXT
8
0
10
1.500000
20
2.018000
40
0.080000
41
1.000000
1
RX
0
POLYLINE
8
0
66
1
40
0.016000
41
0.016000
0
VERTEX
8
0
10
-1.300000
20
-0.600000
0
VERTEX
8
0
10
-1.300000
20
-1.300000
0
SEQEND
8
0
0
POLYLINE
8
0
66
1
40
0.016000
41
0.016000
0
VERTEX
8
0
10
-0.900000
20
-1.300000
0
VERTEX
8
0
10
-1.300000
20
-1.300000
0
SEQEND
8
0
0
POLYLINE
8
0
66
1
40
0.016000
41
0.016000
0
VERTEX
8
0
10
-1.800000
20
-0.500000
0
VERTEX
8
0
10
-1.800000
20
-0.500000
0
SEQEND
8
0
0
POLYLINE
8
0
66
1
40
0.016000
41
0.016000
0
VERTEX
8
0
10
-1.100000
20
-0.600000
0
VERTEX
8
0
10
-1.100000
20
-1.100000
0
VERTEX
8
0
10
-1.400000
20
-1.100000
0
VERTEX
8
0
10
-1.400000
20
-0.900000
0
SEQEND
8
0
0
POLYLINE
8
0
66
1
40
0.016000
41
0.016000
0
VERTEX
8
0
10
-1.200000
20
-0.600000
0
VERTEX
8
0
10
-1.200000
20
-0.700000
0
SEQEND
8
0
0
POLYLINE
8
0
66
1
40
0.016000
41
0.016000
0
VERTEX
8
0
10
-1.800000
20
-1.300000
0
VERTEX
8
0
10
-1.800000
20
-1.300000
0
SEQEND
8
0
0
POLYLINE
8
0
66
1
40
0.016000
41
0.016000
0
VERTEX
8
0
10
-1.300000
20
-1.300000
0
VERTEX
8
0
10
-1.800000
20
-1.300000
0
VERTEX
8
0
10
-1.800000
20
-1.300000
0
SEQEND
8
0
0
POLYLINE
8
0
66
1
40
0.016000
41
0.016000
0
VERTEX
8
0
10
3.600000
20
0.000000
0
VERTEX
8
0
10
3.600000
20
0.100000
0
VERTEX
8
0
10
3.000000
20
0.100000
0
SEQEND
8
0
0
POLYLINE
8
0
66
1
40
0.016000
41
0.016000
0
VERTEX
8
0
10
2.100000
20
0.200000
0
VERTEX
8
0
10
2.100000
20
0.100000
0
SEQEND
8
0
0
POLYLINE
8
0
66
1
40
0.016000
41
0.016000
0
VERTEX
8
0
10
1.700000
20
0.100000
0
VERTEX
8
0
10
2.100000
20
0.100000
0
SEQEND
8
0
0
TEXT
8
0
10
1.800000
20
0.118000
40
0.080000
41
1.000000
1
BTN0
0
POLYLINE
8
0
66
1
40
0.016000
41
0.016000
0
VERTEX
8
0
10
3.600000
20
-1.000000
0
VERTEX
8
0
10
3.600000
20
-0.900000
0
VERTEX
8
0
10
3.000000
20
-0.900000
0
SEQEND
8
0
0
POLYLINE
8
0
66
1
40
0.016000
41
0.016000
0
VERTEX
8
0
10
2.100000
20
-0.800000
0
VERTEX
8
0
10
2.100000
20
-0.900000
0
SEQEND
8
0
0
POLYLINE
8
0
66
1
40
0.016000
41
0.016000
0
VERTEX
8
0
10
1.700000
20
-0.900000
0
VERTEX
8
0
10
2.100000
20
-0.900000
0
SEQEND
8
0
0
TEXT
8
0
10
1.800000
20
-0.882000
40
0.080000
41
1.000000
1
BTN1
0
POLYLINE
8
0
66
1
40
0.016000
41
0.016000
0
VERTEX
8
0
10
3.600000
20
-2.000000
0
VERTEX
8
0
10
3.600000
20
-1.900000
0
VERTEX
8
0
10
3.000000
20
-1.900000
0
SEQEND
8
0
0
POLYLINE
8
0
66
1
40
0.016000
41
0.016000
0
VERTEX
8
0
10
2.100000
20
-1.800000
0
VERTEX
8
0
10
2.100000
20
-1.900000
0
SEQEND
8
0
0
POLYLINE
8
0
66
1
40
0.016000
41
0.016000
0
VERTEX
8
0
10
1.700000
20
-1.900000
0
VERTEX
8
0
10
2.100000
20
-1.900000
0
SEQEND
8
0
0
TEXT
8
0
10
1.800000
20
-1.882000
40
0.080000
41
1.000000
1
BTN2
0
POLYLINE
8
0
66
1
40
0.016000
41
0.016000
0
VERTEX
8
0
10
-2.800000
20
-2.300000
0
VERTEX
8
0
10
-2.400000
20
-2.300000
0
SEQEND
8
0
0
TEXT
8
0
10
-2.700000
20
-2.282000
40
0.080000
41
1.000000
1
LR
0
POLYLINE
8
0
66
1
40
0.016000
41
0.016000
0
VERTEX
8
0
10
-2.800000
20
-2.400000
0
VERTEX
8
0
10
-2.400000
20
-2.400000
0
SEQEND
8
0
0
TEXT
8
0
10
-2.700000
20
-2.382000
40
0.080000
41
1.000000
1
LG
0
POLYLINE
8
0
66
1
40
0.016000
41
0.016000
0
VERTEX
8
0
10
2.100000
20
0.100000
0
VERTEX
8
0
10
2.300000
20
0.100000
0
SEQEND
8
0
0
POLYLINE
8
0
66
1
40
0.016000
41
0.016000
0
VERTEX
8
0
10
2.500000
20
-0.300000
0
VERTEX
8
0
10
2.300000
20
-0.300000
0
VERTEX
8
0
10
2.300000
20
0.100000
0
SEQEND
8
0
0
POLYLINE
8
0
66
1
40
0.016000
41
0.016000
0
VERTEX
8
0
10
2.500000
20
0.100000
0
VERTEX
8
0
10
2.300000
20
0.100000
0
SEQEND
8
0
0
POLYLINE
8
0
66
1
40
0.016000
41
0.016000
0
VERTEX
8
0
10
2.100000
20
-0.900000
0
VERTEX
8
0
10
2.300000
20
-0.900000
0
SEQEND
8
0
0
POLYLINE
8
0
66
1
40
0.016000
41
0.016000
0
VERTEX
8
0
10
2.500000
20
-1.300000
0
VERTEX
8
0
10
2.300000
20
-1.300000
0
VERTEX
8
0
10
2.300000
20
-0.900000
0
SEQEND
8
0
0
POLYLINE
8
0
66
1
40
0.016000
41
0.016000
0
VERTEX
8
0
10
2.500000
20
-0.900000
0
VERTEX
8
0
10
2.300000
20
-0.900000
0
SEQEND
8
0
0
POLYLINE
8
0
66
1
40
0.016000
41
0.016000
0
VERTEX
8
0
10
2.100000
20
-1.900000
0
VERTEX
8
0
10
2.300000
20
-1.900000
0
SEQEND
8
0
0
POLYLINE
8
0
66
1
40
0.016000
41
0.016000
0
VERTEX
8
0
10
2.500000
20
-2.300000
0
VERTEX
8
0
10
2.300000
20
-2.300000
0
VERTEX
8
0
10
2.300000
20
-1.900000
0
SEQEND
8
0
0
POLYLINE
8
0
66
1
40
0.016000
41
0.016000
0
VERTEX
8
0
10
2.500000
20
-1.900000
0
VERTEX
8
0
10
2.300000
20
-1.900000
0
SEQEND
8
0
0
POLYLINE
8
0
66
1
40
0.016000
41
0.016000
0
VERTEX
8
0
10
-1.800000
20
2.800000
0
VERTEX
8
0
10
-1.900000
20
2.800000
0
VERTEX
8
0
10
-1.900000
20
2.700000
0
SEQEND
8
0
0
POLYLINE
8
0
66
1
40
0.016000
41
0.016000
0
VERTEX
8
0
10
-1.800000
20
2.900000
0
VERTEX
8
0
10
-1.900000
20
2.900000
0
SEQEND
8
0
0
POLYLINE
8
0
66
1
40
0.016000
41
0.016000
0
VERTEX
8
0
10
-5.200000
20
0.750000
0
VERTEX
8
0
10
-5.200000
20
0.450000
0
SEQEND
8
0
0
POLYLINE
8
0
66
1
40
0.016000
41
0.016000
0
VERTEX
8
0
10
-5.000000
20
0.750000
0
VERTEX
8
0
10
-5.000000
20
0.450000
0
SEQEND
8
0
0
POLYLINE
8
0
66
1
40
0.016000
41
0.016000
0
VERTEX
8
0
10
-5.150000
20
0.500000
0
VERTEX
8
0
10
-5.050000
20
0.500000
0
VERTEX
8
0
10
-5.050000
20
0.700000
0
VERTEX
8
0
10
-5.150000
20
0.700000
0
VERTEX
8
0
10
-5.150000
20
0.500000
0
SEQEND
8
0
0
POLYLINE
8
0
66
1
40
0.016000
41
0.016000
0
VERTEX
8
0
10
-5.300000
20
0.600000
0
VERTEX
8
0
10
-5.200000
20
0.600000
0
SEQEND
8
0
0
TEXT
8
0
10
-5.380000
20
0.610000
40
0.080000
41
1.000000
1
1
0
POLYLINE
8
0
66
1
40
0.016000
41
0.016000
0
VERTEX
8
0
10
-4.900000
20
0.600000
0
VERTEX
8
0
10
-5.000000
20
0.600000
0
SEQEND
8
0
0
TEXT
8
0
10
-4.900000
20
0.610000
40
0.080000
41
1.000000
1
2
0
TEXT
8
0
10
-5.208000
20
0.773000
40
0.120000
41
0.666667
1
X1
0
TEXT
8
0
10
-5.208000
20
0.352000
40
0.080000
41
1.000000
1
CRYSTAL
0
POLYLINE
8
0
66
1
40
0.016000
41
0.016000
0
VERTEX
8
0
10
-4.700000
20
0.970000
0
VERTEX
8
0
10
-4.900000
20
0.970000
0
SEQEND
8
0
0
POLYLINE
8
0
66
1
40
0.016000
41
0.016000
0
VERTEX
8
0
10
-4.700000
20
1.030000
0
VERTEX
8
0
10
-4.900000
20
1.030000
0
SEQEND
8
0
0
POLYLINE
8
0
66
1
40
0.016000
41
0.016000
0
VERTEX
8
0
10
-4.800000
20
1.030000
0
VERTEX
8
0
10
-4.800000
20
1.100000
0
SEQEND
8
0
0
POLYLINE
8
0
66
1
40
0.016000
41
0.016000
0
VERTEX
8
0
10
-4.800000
20
0.970000
0
VERTEX
8
0
10
-4.800000
20
0.900000
0
SEQEND
8
0
0
POLYLINE
8
0
66
1
40
0.016000
41
0.016000
0
VERTEX
8
0
10
-4.800000
20
0.800000
0
VERTEX
8
0
10
-4.800000
20
0.900000
0
SEQEND
8
0
0
POLYLINE
8
0
66
1
40
0.016000
41
0.016000
0
VERTEX
8
0
10
-4.800000
20
1.200000
0
VERTEX
8
0
10
-4.800000
20
1.100000
0
SEQEND
8
0
0
TEXT
8
0
10
-4.642000
20
0.973000
40
0.120000
41
0.666667
1
C2
0
TEXT
8
0
10
-4.642000
20
0.868000
40
0.080000
41
1.000000
1
33pF
0
CIRCLE
8
0
10
-4.800000
20
0.600000
40
0.020000
0
POLYLINE
8
0
66
1
40
0.016000
41
0.016000
0
VERTEX
8
0
10
-5.100000
20
1.300000
0
VERTEX
8
0
10
-5.100000
20
1.200000
0
SEQEND
8
0
0
POLYLINE
8
0
66
1
40
0.016000
41
0.016000
0
VERTEX
8
0
10
-5.200000
20
1.200000
0
VERTEX
8
0
10
-5.000000
20
1.200000
0
SEQEND
8
0
0
POLYLINE
8
0
66
1
40
0.016000
41
0.016000
0
VERTEX
8
0
10
-5.150000
20
1.150000
0
VERTEX
8
0
10
-5.050000
20
1.150000
0
SEQEND
8
0
0
POLYLINE
8
0
66
1
40
0.016000
41
0.016000
0
VERTEX
8
0
10
-5.110000
20
1.100000
0
VERTEX
8
0
10
-5.090000
20
1.100000
0
SEQEND
8
0
0
POLYLINE
8
0
66
1
40
0.016000
41
0.016000
0
VERTEX
8
0
10
-5.400000
20
3.100000
0
VERTEX
8
0
10
-4.600000
20
3.100000
0
VERTEX
8
0
10
-4.600000
20
3.500000
0
VERTEX
8
0
10
-5.400000
20
3.500000
0
VERTEX
8
0
10
-5.400000
20
3.100000
0
SEQEND
8
0
0
POLYLINE
8
0
66
1
40
0.016000
41
0.016000
0
VERTEX
8
0
10
-5.600000
20
3.400000
0
VERTEX
8
0
10
-5.400000
20
3.400000
0
SEQEND
8
0
0
TEXT
8
0
10
-5.350000
20
3.360000
40
0.080000
41
1.000000
1
VI
0
TEXT
8
0
10
-5.580000
20
3.410000
40
0.080000
41
1.000000
1
1
0
POLYLINE
8
0
66
1
40
0.016000
41
0.016000
0
VERTEX
8
0
10
-4.400000
20
3.400000
0
VERTEX
8
0
10
-4.600000
20
3.400000
0
SEQEND
8
0
0
TEXT
8
0
10
-4.810000
20
3.360000
40
0.080000
41
1.000000
1
VO
0
TEXT
8
0
10
-4.500000
20
3.410000
40
0.080000
41
1.000000
1
3
0
POLYLINE
8
0
66
1
40
0.016000
41
0.016000
0
VERTEX
8
0
10
-5.000000
20
2.900000
0
VERTEX
8
0
10
-5.000000
20
3.100000
0
SEQEND
8
0
0
TEXT
8
0
10
-4.960000
20
3.150000
40
0.080000
41
1.000000
50
90.000000
1
GND
0
TEXT
8
0
10
-5.010000
20
2.920000
40
0.080000
41
1.000000
50
90.000000
1
2
0
TEXT
8
0
10
-5.408000
20
3.723000
40
0.120000
41
0.666667
1
U2
0
TEXT
8
0
10
-5.408000
20
3.618000
40
0.080000
41
1.000000
1
7805
0
POLYLINE
8
0
66
1
40
0.016000
41
0.016000
0
VERTEX
8
0
10
-4.000000
20
3.050000
0
VERTEX
8
0
10
-4.200000
20
3.050000
0
SEQEND
8
0
0
POLYLINE
8
0
66
1
40
0.016000
41
0.016000
0
VERTEX
8
0
10
-4.100000
20
3.000000
0
VERTEX
8
0
10
-4.081348
20
2.999082
0
VERTEX
8
0
10
-4.063281
20
2.996406
0
VERTEX
8
0
10
-4.046387
20
2.992090
0
VERTEX
8
0
10
-4.031250
20
2.986250
0
VERTEX
8
0
10
-4.018457
20
2.979004
0
VERTEX
8
0
10
-4.008594
20
2.970469
0
VERTEX
8
0
10
-4.002246
20
2.960762
0
VERTEX
8
0
10
-4.000000
20
2.950000
0
SEQEND
8
0
0
POLYLINE
8
0
66
1
40
0.016000
41
0.016000
0
VERTEX
8
0
10
-4.100000
20
3.000000
0
VERTEX
8
0
10
-4.118652
20
2.999082
0
VERTEX
8
0
10
-4.136719
20
2.996406
0
VERTEX
8
0
10
-4.153613
20
2.992090
0
VERTEX
8
0
10
-4.168750
20
2.986250
0
VERTEX
8
0
10
-4.181543
20
2.979004
0
VERTEX
8
0
10
-4.191406
20
2.970469
0
VERTEX
8
0
10
-4.197754
20
2.960762
0
VERTEX
8
0
10
-4.200000
20
2.950000
0
SEQEND
8
0
0
POLYLINE
8
0
66
1
40
0.016000
41
0.016000
0
VERTEX
8
0
10
-4.100000
20
3.000000
0
VERTEX
8
0
10
-4.100000
20
2.900000
0
SEQEND
8
0
0
POLYLINE
8
0
66
1
40
0.016000
41
0.016000
0
VERTEX
8
0
10
-4.100000
20
3.100000
0
VERTEX
8
0
10
-4.100000
20
3.050000
0
SEQEND
8
0
0
POLYLINE
8
0
66
1
40
0.016000
41
0.016000
0
VERTEX
8
0
10
-4.100000
20
3.200000
0
VERTEX
8
0
10
-4.100000
20
3.100000
0
SEQEND
8
0
0
POLYLINE
8
0
66
1
40
0.016000
41
0.016000
0
VERTEX
8
0
10
-4.100000
20
2.800000
0
VERTEX
8
0
10
-4.100000
20
2.900000
0
SEQEND
8
0
0
TEXT
8
0
10
-3.942000
20
2.973000
40
0.120000
41
0.666667
1
C5
0
TEXT
8
0
10
-3.942000
20
2.868000
40
0.080000
41
1.000000
1
10uF
0
CIRCLE
8
0
10
-5.000000
20
2.600000
40
0.020000
0
CIRCLE
8
0
10
-3.200000
20
3.000000
40
0.120000
0
POLYLINE
8
0
66
1
40
0.015000
41
0.015000
0
VERTEX
8
0
10
-3.150000
20
2.950000
0
VERTEX
8
0
10
-3.250000
20
2.950000
0
SEQEND
8
0
0
POLYLINE
8
0
66
1
40
0.016000
41
0.016000
0
VERTEX
8
0
10
-3.200000
20
3.100000
0
VERTEX
8
0
10
-3.200000
20
3.030000
0
SEQEND
8
0
0
POLYLINE
8
0
66
1
40
0.016000
41
0.016000
0
VERTEX
8
0
10
-3.200000
20
2.950000
0
VERTEX
8
0
10
-3.200000
20
2.900000
0
SEQEND
8
0
0
POLYLINE
8
0
66
1
40
0.015000
41
0.015000
0
VERTEX
8
0
10
-3.200000
20
2.950000
0
VERTEX
8
0
10
-3.260000
20
3.030000
0
VERTEX
8
0
10
-3.140000
20
3.030000
0
VERTEX
8
0
10
-3.200000
20
2.950000
0
SEQEND
8
0
0
POLYLINE
8
0
66
1
40
0.016000
41
0.016000
0
VERTEX
8
0
10
-3.200000
20
3.200000
0
VERTEX
8
0
10
-3.200000
20
3.100000
0
SEQEND
8
0
0
TEXT
8
0
10
-3.110000
20
3.200000
40
0.080000
41
1.000000
50
90.000000
1
A
0
POLYLINE
8
0
66
1
40
0.016000
41
0.016000
0
VERTEX
8
0
10
-3.200000
20
2.800000
0
VERTEX
8
0
10
-3.200000
20
2.900000
0
SEQEND
8
0
0
TEXT
8
0
10
-3.110000
20
2.720000
40
0.080000
41
1.000000
50
90.000000
1
K
0
TEXT
8
0
10
-3.022000
20
2.993000
40
0.120000
41
0.666667
1
D1
0
TEXT
8
0
10
-3.022000
20
2.888000
40
0.080000
41
1.000000
1
LED-YELLOW
0
POLYLINE
8
0
66
1
40
0.016000
41
0.016000
0
VERTEX
8
0
10
-3.800000
20
3.360000
0
VERTEX
8
0
10
-3.500000
20
3.360000
0
VERTEX
8
0
10
-3.500000
20
3.440000
0
VERTEX
8
0
10
-3.800000
20
3.440000
0
VERTEX
8
0
10
-3.800000
20
3.360000
0
SEQEND
8
0
0
POLYLINE
8
0
66
1
40
0.016000
41
0.016000
0
VERTEX
8
0
10
-3.900000
20
3.400000
0
VERTEX
8
0
10
-3.800000
20
3.400000
0
SEQEND
8
0
0
POLYLINE
8
0
66
1
40
0.016000
41
0.016000
0
VERTEX
8
0
10
-3.400000
20
3.400000
0
VERTEX
8
0
10
-3.500000
20
3.400000
0
SEQEND
8
0
0
TEXT
8
0
10
-3.808000
20
3.463000
40
0.120000
41
0.666667
1
R2
0
TEXT
8
0
10
-3.808000
20
3.262000
40
0.080000
41
1.000000
1
220
0
CIRCLE
8
0
10
-4.100000
20
3.400000
40
0.020000
0
CIRCLE
8
0
10
-4.100000
20
2.600000
40
0.020000
0
POLYLINE
8
0
66
1
40
0.016000
41
0.016000
0
VERTEX
8
0
10
-5.000000
20
2.400000
0
VERTEX
8
0
10
-5.000000
20
2.300000
0
SEQEND
8
0
0
POLYLINE
8
0
66
1
40
0.016000
41
0.016000
0
VERTEX
8
0
10
-5.100000
20
2.300000
0
VERTEX
8
0
10
-4.900000
20
2.300000
0
SEQEND
8
0
0
POLYLINE
8
0
66
1
40
0.016000
41
0.016000
0
VERTEX
8
0
10
-5.050000
20
2.250000
0
VERTEX
8
0
10
-4.950000
20
2.250000
0
SEQEND
8
0
0
POLYLINE
8
0
66
1
40
0.016000
41
0.016000
0
VERTEX
8
0
10
-5.010000
20
2.200000
0
VERTEX
8
0
10
-4.990000
20
2.200000
0
SEQEND
8
0
0
POLYLINE
8
0
66
1
40
0.016000
41
0.016000
0
VERTEX
8
0
10
-0.700000
20
3.300000
0
VERTEX
8
0
10
-0.500000
20
3.300000
0
VERTEX
8
0
10
-0.500000
20
3.800000
0
VERTEX
8
0
10
-0.700000
20
3.800000
0
VERTEX
8
0
10
-0.700000
20
3.300000
0
SEQEND
8
0
0
POLYLINE
8
0
66
1
40
0.016000
41
0.016000
0
VERTEX
8
0
10
-0.630000
20
3.700000
0
VERTEX
8
0
10
-0.700000
20
3.700000
0
SEQEND
8
0
0
CIRCLE
8
0
10
-0.600000
20
3.700000
40
0.030000
0
POLYLINE
8
0
66
1
40
0.016000
41
0.016000
0
VERTEX
8
0
10
-0.630000
20
3.600000
0
VERTEX
8
0
10
-0.700000
20
3.600000
0
SEQEND
8
0
0
CIRCLE
8
0
10
-0.600000
20
3.600000
40
0.030000
0
POLYLINE
8
0
66
1
40
0.016000
41
0.016000
0
VERTEX
8
0
10
-0.630000
20
3.500000
0
VERTEX
8
0
10
-0.700000
20
3.500000
0
SEQEND
8
0
0
CIRCLE
8
0
10
-0.600000
20
3.500000
40
0.030000
0
POLYLINE
8
0
66
1
40
0.016000
41
0.016000
0
VERTEX
8
0
10
-0.630000
20
3.400000
0
VERTEX
8
0
10
-0.700000
20
3.400000
0
SEQEND
8
0
0
CIRCLE
8
0
10
-0.600000
20
3.400000
40
0.030000
0
POLYLINE
8
0
66
1
40
0.016000
41
0.016000
0
VERTEX
8
0
10
-0.900000
20
3.700000
0
VERTEX
8
0
10
-0.700000
20
3.700000
0
SEQEND
8
0
0
TEXT
8
0
10
-0.880000
20
3.710000
40
0.080000
41
1.000000
1
1
0
POLYLINE
8
0
66
1
40
0.016000
41
0.016000
0
VERTEX
8
0
10
-0.900000
20
3.600000
0
VERTEX
8
0
10
-0.700000
20
3.600000
0
SEQEND
8
0
0
TEXT
8
0
10
-0.880000
20
3.610000
40
0.080000
41
1.000000
1
2
0
POLYLINE
8
0
66
1
40
0.016000
41
0.016000
0
VERTEX
8
0
10
-0.900000
20
3.500000
0
VERTEX
8
0
10
-0.700000
20
3.500000
0
SEQEND
8
0
0
TEXT
8
0
10
-0.880000
20
3.510000
40
0.080000
41
1.000000
1
3
0
POLYLINE
8
0
66
1
40
0.016000
41
0.016000
0
VERTEX
8
0
10
-0.900000
20
3.400000
0
VERTEX
8
0
10
-0.700000
20
3.400000
0
SEQEND
8
0
0
TEXT
8
0
10
-0.880000
20
3.410000
40
0.080000
41
1.000000
1
4
0
TEXT
8
0
10
-0.708000
20
3.823000
40
0.120000
41
0.666667
1
J6
0
TEXT
8
0
10
-0.708000
20
3.202000
40
0.080000
41
1.000000
1
CONN-SIL4
0
POLYLINE
8
0
66
1
40
0.016000
41
0.016000
0
VERTEX
8
0
10
-0.600000
20
2.100000
0
VERTEX
8
0
10
-0.400000
20
2.100000
0
VERTEX
8
0
10
-0.400000
20
2.600000
0
VERTEX
8
0
10
-0.600000
20
2.600000
0
VERTEX
8
0
10
-0.600000
20
2.100000
0
SEQEND
8
0
0
POLYLINE
8
0
66
1
40
0.016000
41
0.016000
0
VERTEX
8
0
10
-0.530000
20
2.500000
0
VERTEX
8
0
10
-0.600000
20
2.500000
0
SEQEND
8
0
0
CIRCLE
8
0
10
-0.500000
20
2.500000
40
0.030000
0
POLYLINE
8
0
66
1
40
0.016000
41
0.016000
0
VERTEX
8
0
10
-0.530000
20
2.400000
0
VERTEX
8
0
10
-0.600000
20
2.400000
0
SEQEND
8
0
0
CIRCLE
8
0
10
-0.500000
20
2.400000
40
0.030000
0
POLYLINE
8
0
66
1
40
0.016000
41
0.016000
0
VERTEX
8
0
10
-0.530000
20
2.300000
0
VERTEX
8
0
10
-0.600000
20
2.300000
0
SEQEND
8
0
0
CIRCLE
8
0
10
-0.500000
20
2.300000
40
0.030000
0
POLYLINE
8
0
66
1
40
0.016000
41
0.016000
0
VERTEX
8
0
10
-0.530000
20
2.200000
0
VERTEX
8
0
10
-0.600000
20
2.200000
0
SEQEND
8
0
0
CIRCLE
8
0
10
-0.500000
20
2.200000
40
0.030000
0
POLYLINE
8
0
66
1
40
0.016000
41
0.016000
0
VERTEX
8
0
10
-0.800000
20
2.500000
0
VERTEX
8
0
10
-0.600000
20
2.500000
0
SEQEND
8
0
0
TEXT
8
0
10
-0.780000
20
2.510000
40
0.080000
41
1.000000
1
1
0
POLYLINE
8
0
66
1
40
0.016000
41
0.016000
0
VERTEX
8
0
10
-0.800000
20
2.400000
0
VERTEX
8
0
10
-0.600000
20
2.400000
0
SEQEND
8
0
0
TEXT
8
0
10
-0.780000
20
2.410000
40
0.080000
41
1.000000
1
2
0
POLYLINE
8
0
66
1
40
0.016000
41
0.016000
0
VERTEX
8
0
10
-0.800000
20
2.300000
0
VERTEX
8
0
10
-0.600000
20
2.300000
0
SEQEND
8
0
0
TEXT
8
0
10
-0.780000
20
2.310000
40
0.080000
41
1.000000
1
3
0
POLYLINE
8
0
66
1
40
0.016000
41
0.016000
0
VERTEX
8
0
10
-0.800000
20
2.200000
0
VERTEX
8
0
10
-0.600000
20
2.200000
0
SEQEND
8
0
0
TEXT
8
0
10
-0.780000
20
2.210000
40
0.080000
41
1.000000
1
4
0
TEXT
8
0
10
-0.608000
20
2.623000
40
0.120000
41
0.666667
1
J7
0
TEXT
8
0
10
-0.608000
20
2.002000
40
0.080000
41
1.000000
1
CONN-SIL4
0
CIRCLE
8
0
10
-1.000000
20
3.500000
40
0.020000
0
POLYLINE
8
0
66
1
40
0.016000
41
0.016000
0
VERTEX
8
0
10
-0.900000
20
2.100000
0
VERTEX
8
0
10
-0.900000
20
2.000000
0
SEQEND
8
0
0
POLYLINE
8
0
66
1
40
0.016000
41
0.016000
0
VERTEX
8
0
10
-1.000000
20
2.000000
0
VERTEX
8
0
10
-0.800000
20
2.000000
0
SEQEND
8
0
0
POLYLINE
8
0
66
1
40
0.016000
41
0.016000
0
VERTEX
8
0
10
-0.950000
20
1.950000
0
VERTEX
8
0
10
-0.850000
20
1.950000
0
SEQEND
8
0
0
POLYLINE
8
0
66
1
40
0.016000
41
0.016000
0
VERTEX
8
0
10
-0.910000
20
1.900000
0
VERTEX
8
0
10
-0.890000
20
1.900000
0
SEQEND
8
0
0
CIRCLE
8
0
10
-0.900000
20
2.400000
40
0.020000
0
CIRCLE
8
0
10
-0.900000
20
2.300000
40
0.020000
0
CIRCLE
8
0
10
-0.900000
20
2.200000
40
0.020000
0
POLYLINE
8
0
66
1
40
0.016000
41
0.016000
0
VERTEX
8
0
10
-1.400000
20
-0.400000
0
VERTEX
8
0
10
-0.100000
20
-0.400000
0
VERTEX
8
0
10
-0.100000
20
-0.200000
0
VERTEX
8
0
10
-1.400000
20
-0.200000
0
VERTEX
8
0
10
-1.400000
20
-0.400000
0
SEQEND
8
0
0
POLYLINE
8
0
66
1
40
0.016000
41
0.016000
0
VERTEX
8
0
10
-1.300000
20
-0.330000
0
VERTEX
8
0
10
-1.300000
20
-0.400000
0
SEQEND
8
0
0
CIRCLE
8
0
10
-1.300000
20
-0.300000
40
0.030000
0
POLYLINE
8
0
66
1
40
0.016000
41
0.016000
0
VERTEX
8
0
10
-1.200000
20
-0.330000
0
VERTEX
8
0
10
-1.200000
20
-0.400000
0
SEQEND
8
0
0
CIRCLE
8
0
10
-1.200000
20
-0.300000
40
0.030000
0
POLYLINE
8
0
66
1
40
0.016000
41
0.016000
0
VERTEX
8
0
10
-1.100000
20
-0.330000
0
VERTEX
8
0
10
-1.100000
20
-0.400000
0
SEQEND
8
0
0
CIRCLE
8
0
10
-1.100000
20
-0.300000
40
0.030000
0
POLYLINE
8
0
66
1
40
0.016000
41
0.016000
0
VERTEX
8
0
10
-1.000000
20
-0.330000
0
VERTEX
8
0
10
-1.000000
20
-0.400000
0
SEQEND
8
0
0
CIRCLE
8
0
10
-1.000000
20
-0.300000
40
0.030000
0
POLYLINE
8
0
66
1
40
0.016000
41
0.016000
0
VERTEX
8
0
10
-0.900000
20
-0.330000
0
VERTEX
8
0
10
-0.900000
20
-0.400000
0
SEQEND
8
0
0
CIRCLE
8
0
10
-0.900000
20
-0.300000
40
0.030000
0
POLYLINE
8
0
66
1
40
0.016000
41
0.016000
0
VERTEX
8
0
10
-0.800000
20
-0.330000
0
VERTEX
8
0
10
-0.800000
20
-0.400000
0
SEQEND
8
0
0
CIRCLE
8
0
10
-0.800000
20
-0.300000
40
0.030000
0
POLYLINE
8
0
66
1
40
0.016000
41
0.016000
0
VERTEX
8
0
10
-0.700000
20
-0.330000
0
VERTEX
8
0
10
-0.700000
20
-0.400000
0
SEQEND
8
0
0
CIRCLE
8
0
10
-0.700000
20
-0.300000
40
0.030000
0
POLYLINE
8
0
66
1
40
0.016000
41
0.016000
0
VERTEX
8
0
10
-0.600000
20
-0.330000
0
VERTEX
8
0
10
-0.600000
20
-0.400000
0
SEQEND
8
0
0
CIRCLE
8
0
10
-0.600000
20
-0.300000
40
0.030000
0
POLYLINE
8
0
66
1
40
0.016000
41
0.016000
0
VERTEX
8
0
10
-0.500000
20
-0.330000
0
VERTEX
8
0
10
-0.500000
20
-0.400000
0
SEQEND
8
0
0
CIRCLE
8
0
10
-0.500000
20
-0.300000
40
0.030000
0
POLYLINE
8
0
66
1
40
0.016000
41
0.016000
0
VERTEX
8
0
10
-0.400000
20
-0.330000
0
VERTEX
8
0
10
-0.400000
20
-0.400000
0
SEQEND
8
0
0
CIRCLE
8
0
10
-0.400000
20
-0.300000
40
0.030000
0
POLYLINE
8
0
66
1
40
0.016000
41
0.016000
0
VERTEX
8
0
10
-0.300000
20
-0.330000
0
VERTEX
8
0
10
-0.300000
20
-0.400000
0
SEQEND
8
0
0
CIRCLE
8
0
10
-0.300000
20
-0.300000
40
0.030000
0
POLYLINE
8
0
66
1
40
0.016000
41
0.016000
0
VERTEX
8
0
10
-0.200000
20
-0.330000
0
VERTEX
8
0
10
-0.200000
20
-0.400000
0
SEQEND
8
0
0
CIRCLE
8
0
10
-0.200000
20
-0.300000
40
0.030000
0
POLYLINE
8
0
66
1
40
0.016000
41
0.016000
0
VERTEX
8
0
10
-1.300000
20
-0.600000
0
VERTEX
8
0
10
-1.300000
20
-0.400000
0
SEQEND
8
0
0
TEXT
8
0
10
-1.310000
20
-0.580000
40
0.080000
41
1.000000
50
90.000000
1
1
0
POLYLINE
8
0
66
1
40
0.016000
41
0.016000
0
VERTEX
8
0
10
-1.200000
20
-0.600000
0
VERTEX
8
0
10
-1.200000
20
-0.400000
0
SEQEND
8
0
0
TEXT
8
0
10
-1.210000
20
-0.580000
40
0.080000
41
1.000000
50
90.000000
1
2
0
POLYLINE
8
0
66
1
40
0.016000
41
0.016000
0
VERTEX
8
0
10
-1.100000
20
-0.600000
0
VERTEX
8
0
10
-1.100000
20
-0.400000
0
SEQEND
8
0
0
TEXT
8
0
10
-1.110000
20
-0.580000
40
0.080000
41
1.000000
50
90.000000
1
3
0
POLYLINE
8
0
66
1
40
0.016000
41
0.016000
0
VERTEX
8
0
10
-1.000000
20
-0.600000
0
VERTEX
8
0
10
-1.000000
20
-0.400000
0
SEQEND
8
0
0
TEXT
8
0
10
-1.010000
20
-0.580000
40
0.080000
41
1.000000
50
90.000000
1
4
0
POLYLINE
8
0
66
1
40
0.016000
41
0.016000
0
VERTEX
8
0
10
-0.900000
20
-0.600000
0
VERTEX
8
0
10
-0.900000
20
-0.400000
0
SEQEND
8
0
0
TEXT
8
0
10
-0.910000
20
-0.580000
40
0.080000
41
1.000000
50
90.000000
1
5
0
POLYLINE
8
0
66
1
40
0.016000
41
0.016000
0
VERTEX
8
0
10
-0.800000
20
-0.600000
0
VERTEX
8
0
10
-0.800000
20
-0.400000
0
SEQEND
8
0
0
TEXT
8
0
10
-0.810000
20
-0.580000
40
0.080000
41
1.000000
50
90.000000
1
6
0
POLYLINE
8
0
66
1
40
0.016000
41
0.016000
0
VERTEX
8
0
10
-0.700000
20
-0.600000
0
VERTEX
8
0
10
-0.700000
20
-0.400000
0
SEQEND
8
0
0
TEXT
8
0
10
-0.710000
20
-0.580000
40
0.080000
41
1.000000
50
90.000000
1
7
0
POLYLINE
8
0
66
1
40
0.016000
41
0.016000
0
VERTEX
8
0
10
-0.600000
20
-0.600000
0
VERTEX
8
0
10
-0.600000
20
-0.400000
0
SEQEND
8
0
0
TEXT
8
0
10
-0.610000
20
-0.580000
40
0.080000
41
1.000000
50
90.000000
1
8
0
POLYLINE
8
0
66
1
40
0.016000
41
0.016000
0
VERTEX
8
0
10
-0.500000
20
-0.600000
0
VERTEX
8
0
10
-0.500000
20
-0.400000
0
SEQEND
8
0
0
TEXT
8
0
10
-0.510000
20
-0.580000
40
0.080000
41
1.000000
50
90.000000
1
9
0
POLYLINE
8
0
66
1
40
0.016000
41
0.016000
0
VERTEX
8
0
10
-0.400000
20
-0.600000
0
VERTEX
8
0
10
-0.400000
20
-0.400000
0
SEQEND
8
0
0
TEXT
8
0
10
-0.410000
20
-0.660000
40
0.080000
41
1.000000
50
90.000000
1
10
0
POLYLINE
8
0
66
1
40
0.016000
41
0.016000
0
VERTEX
8
0
10
-0.300000
20
-0.600000
0
VERTEX
8
0
10
-0.300000
20
-0.400000
0
SEQEND
8
0
0
TEXT
8
0
10
-0.310000
20
-0.660000
40
0.080000
41
1.000000
50
90.000000
1
11
0
POLYLINE
8
0
66
1
40
0.016000
41
0.016000
0
VERTEX
8
0
10
-0.200000
20
-0.600000
0
VERTEX
8
0
10
-0.200000
20
-0.400000
0
SEQEND
8
0
0
TEXT
8
0
10
-0.210000
20
-0.660000
40
0.080000
41
1.000000
50
90.000000
1
12
0
TEXT
8
0
10
-1.408000
20
0.023000
40
0.120000
41
0.666667
1
J9
0
TEXT
8
0
10
-1.408000
20
-0.082000
40
0.080000
41
1.000000
1
CONN-SIL12
0
POLYLINE
8
0
66
1
40
0.016000
41
0.016000
0
VERTEX
8
0
10
-0.100000
20
-0.400000
0
VERTEX
8
0
10
0.400000
20
-0.400000
0
VERTEX
8
0
10
0.400000
20
-0.200000
0
VERTEX
8
0
10
-0.100000
20
-0.200000
0
VERTEX
8
0
10
-0.100000
20
-0.400000
0
SEQEND
8
0
0
POLYLINE
8
0
66
1
40
0.016000
41
0.016000
0
VERTEX
8
0
10
0.000000
20
-0.330000
0
VERTEX
8
0
10
0.000000
20
-0.400000
0
SEQEND
8
0
0
CIRCLE
8
0
10
0.000000
20
-0.300000
40
0.030000
0
POLYLINE
8
0
66
1
40
0.016000
41
0.016000
0
VERTEX
8
0
10
0.100000
20
-0.330000
0
VERTEX
8
0
10
0.100000
20
-0.400000
0
SEQEND
8
0
0
CIRCLE
8
0
10
0.100000
20
-0.300000
40
0.030000
0
POLYLINE
8
0
66
1
40
0.016000
41
0.016000
0
VERTEX
8
0
10
0.200000
20
-0.330000
0
VERTEX
8
0
10
0.200000
20
-0.400000
0
SEQEND
8
0
0
CIRCLE
8
0
10
0.200000
20
-0.300000
40
0.030000
0
POLYLINE
8
0
66
1
40
0.016000
41
0.016000
0
VERTEX
8
0
10
0.300000
20
-0.330000
0
VERTEX
8
0
10
0.300000
20
-0.400000
0
SEQEND
8
0
0
CIRCLE
8
0
10
0.300000
20
-0.300000
40
0.030000
0
POLYLINE
8
0
66
1
40
0.016000
41
0.016000
0
VERTEX
8
0
10
0.000000
20
-0.600000
0
VERTEX
8
0
10
0.000000
20
-0.400000
0
SEQEND
8
0
0
TEXT
8
0
10
-0.010000
20
-0.580000
40
0.080000
41
1.000000
50
90.000000
1
1
0
POLYLINE
8
0
66
1
40
0.016000
41
0.016000
0
VERTEX
8
0
10
0.100000
20
-0.600000
0
VERTEX
8
0
10
0.100000
20
-0.400000
0
SEQEND
8
0
0
TEXT
8
0
10
0.090000
20
-0.580000
40
0.080000
41
1.000000
50
90.000000
1
2
0
POLYLINE
8
0
66
1
40
0.016000
41
0.016000
0
VERTEX
8
0
10
0.200000
20
-0.600000
0
VERTEX
8
0
10
0.200000
20
-0.400000
0
SEQEND
8
0
0
TEXT
8
0
10
0.190000
20
-0.580000
40
0.080000
41
1.000000
50
90.000000
1
3
0
POLYLINE
8
0
66
1
40
0.016000
41
0.016000
0
VERTEX
8
0
10
0.300000
20
-0.600000
0
VERTEX
8
0
10
0.300000
20
-0.400000
0
SEQEND
8
0
0
TEXT
8
0
10
0.290000
20
-0.580000
40
0.080000
41
1.000000
50
90.000000
1
4
0
TEXT
8
0
10
-0.108000
20
0.023000
40
0.120000
41
0.666667
1
J10
0
TEXT
8
0
10
-0.108000
20
-0.082000
40
0.080000
41
1.000000
1
CONN-SIL4
0
POLYLINE
8
0
66
1
40
0.016000
41
0.016000
0
VERTEX
8
0
10
0.700000
20
-1.100000
0
VERTEX
8
0
10
0.900000
20
-1.100000
0
VERTEX
8
0
10
0.900000
20
-0.800000
0
VERTEX
8
0
10
0.700000
20
-0.800000
0
VERTEX
8
0
10
0.700000
20
-1.100000
0
SEQEND
8
0
0
POLYLINE
8
0
66
1
40
0.016000
41
0.016000
0
VERTEX
8
0
10
0.770000
20
-0.900000
0
VERTEX
8
0
10
0.700000
20
-0.900000
0
SEQEND
8
0
0
CIRCLE
8
0
10
0.800000
20
-0.900000
40
0.030000
0
POLYLINE
8
0
66
1
40
0.016000
41
0.016000
0
VERTEX
8
0
10
0.770000
20
-1.000000
0
VERTEX
8
0
10
0.700000
20
-1.000000
0
SEQEND
8
0
0
CIRCLE
8
0
10
0.800000
20
-1.000000
40
0.030000
0
POLYLINE
8
0
66
1
40
0.016000
41
0.016000
0
VERTEX
8
0
10
0.500000
20
-0.900000
0
VERTEX
8
0
10
0.700000
20
-0.900000
0
SEQEND
8
0
0
TEXT
8
0
10
0.520000
20
-0.890000
40
0.080000
41
1.000000
1
1
0
POLYLINE
8
0
66
1
40
0.016000
41
0.016000
0
VERTEX
8
0
10
0.500000
20
-1.000000
0
VERTEX
8
0
10
0.700000
20
-1.000000
0
SEQEND
8
0
0
TEXT
8
0
10
0.520000
20
-0.990000
40
0.080000
41
1.000000
1
2
0
TEXT
8
0
10
0.692000
20
-0.777000
40
0.120000
41
0.666667
1
J11
0
TEXT
8
0
10
0.692000
20
-1.198000
40
0.080000
41
1.000000
1
CONN-SIL2
0
CIRCLE
8
0
10
-0.900000
20
-1.300000
40
0.020000
0
CIRCLE
8
0
10
-0.700000
20
-1.300000
40
0.020000
0
CIRCLE
8
0
10
-0.600000
20
-1.300000
40
0.020000
0
POLYLINE
8
0
66
1
40
0.016000
41
0.016000
0
VERTEX
8
0
10
0.550000
20
-1.200000
0
VERTEX
8
0
10
0.500000
20
-1.300000
0
VERTEX
8
0
10
0.450000
20
-1.200000
0
VERTEX
8
0
10
0.550000
20
-1.200000
0
SEQEND
8
0
0
POLYLINE
8
0
66
1
40
0.016000
41
0.016000
0
VERTEX
8
0
10
0.500000
20
-1.100000
0
VERTEX
8
0
10
0.500000
20
-1.300000
0
SEQEND
8
0
0
CIRCLE
8
0
10
0.500000
20
-1.000000
40
0.020000
0
POLYLINE
8
0
66
1
40
0.016000
41
0.016000
0
VERTEX
8
0
10
0.500000
20
-0.800000
0
VERTEX
8
0
10
0.500000
20
-0.700000
0
SEQEND
8
0
0
POLYLINE
8
0
66
1
40
0.016000
41
0.016000
0
VERTEX
8
0
10
0.600000
20
-0.700000
0
VERTEX
8
0
10
0.400000
20
-0.700000
0
SEQEND
8
0
0
POLYLINE
8
0
66
1
40
0.016000
41
0.016000
0
VERTEX
8
0
10
0.550000
20
-0.650000
0
VERTEX
8
0
10
0.450000
20
-0.650000
0
SEQEND
8
0
0
POLYLINE
8
0
66
1
40
0.016000
41
0.016000
0
VERTEX
8
0
10
0.510000
20
-0.600000
0
VERTEX
8
0
10
0.490000
20
-0.600000
0
SEQEND
8
0
0
CIRCLE
8
0
10
0.500000
20
-0.900000
40
0.020000
0
CIRCLE
8
0
10
-0.500000
20
-1.300000
40
0.020000
0
POLYLINE
8
0
66
1
40
0.016000
41
0.016000
0
VERTEX
8
0
10
3.600000
20
0.000000
0
VERTEX
8
0
10
3.600000
20
-0.100000
0
SEQEND
8
0
0
POLYLINE
8
0
66
1
40
0.016000
41
0.016000
0
VERTEX
8
0
10
3.700000
20
-0.100000
0
VERTEX
8
0
10
3.500000
20
-0.100000
0
SEQEND
8
0
0
POLYLINE
8
0
66
1
40
0.016000
41
0.016000
0
VERTEX
8
0
10
3.650000
20
-0.150000
0
VERTEX
8
0
10
3.550000
20
-0.150000
0
SEQEND
8
0
0
POLYLINE
8
0
66
1
40
0.016000
41
0.016000
0
VERTEX
8
0
10
3.610000
20
-0.200000
0
VERTEX
8
0
10
3.590000
20
-0.200000
0
SEQEND
8
0
0
POLYLINE
8
0
66
1
40
0.016000
41
0.016000
0
VERTEX
8
0
10
2.150000
20
0.800000
0
VERTEX
8
0
10
2.100000
20
0.900000
0
VERTEX
8
0
10
2.050000
20
0.800000
0
VERTEX
8
0
10
2.150000
20
0.800000
0
SEQEND
8
0
0
POLYLINE
8
0
66
1
40
0.016000
41
0.016000
0
VERTEX
8
0
10
2.100000
20
0.700000
0
VERTEX
8
0
10
2.100000
20
0.900000
0
SEQEND
8
0
0
POLYLINE
8
0
66
1
40
0.016000
41
0.016000
0
VERTEX
8
0
10
2.060000
20
0.300000
0
VERTEX
8
0
10
2.140000
20
0.300000
0
VERTEX
8
0
10
2.140000
20
0.600000
0
VERTEX
8
0
10
2.060000
20
0.600000
0
VERTEX
8
0
10
2.060000
20
0.300000
0
SEQEND
8
0
0
POLYLINE
8
0
66
1
40
0.016000
41
0.016000
0
VERTEX
8
0
10
2.100000
20
0.200000
0
VERTEX
8
0
10
2.100000
20
0.300000
0
SEQEND
8
0
0
POLYLINE
8
0
66
1
40
0.016000
41
0.016000
0
VERTEX
8
0
10
2.100000
20
0.700000
0
VERTEX
8
0
10
2.100000
20
0.600000
0
SEQEND
8
0
0
TEXT
8
0
10
2.198000
20
0.473000
40
0.120000
41
0.666667
1
R3
0
TEXT
8
0
10
2.198000
20
0.368000
40
0.080000
41
1.000000
1
10k
0
CIRCLE
8
0
10
1.700000
20
0.100000
40
0.020000
0
POLYLINE
8
0
66
1
40
0.016000
41
0.016000
0
VERTEX
8
0
10
3.600000
20
-1.000000
0
VERTEX
8
0
10
3.600000
20
-1.100000
0
SEQEND
8
0
0
POLYLINE
8
0
66
1
40
0.016000
41
0.016000
0
VERTEX
8
0
10
3.700000
20
-1.100000
0
VERTEX
8
0
10
3.500000
20
-1.100000
0
SEQEND
8
0
0
POLYLINE
8
0
66
1
40
0.016000
41
0.016000
0
VERTEX
8
0
10
3.650000
20
-1.150000
0
VERTEX
8
0
10
3.550000
20
-1.150000
0
SEQEND
8
0
0
POLYLINE
8
0
66
1
40
0.016000
41
0.016000
0
VERTEX
8
0
10
3.610000
20
-1.200000
0
VERTEX
8
0
10
3.590000
20
-1.200000
0
SEQEND
8
0
0
POLYLINE
8
0
66
1
40
0.016000
41
0.016000
0
VERTEX
8
0
10
2.150000
20
-0.200000
0
VERTEX
8
0
10
2.100000
20
-0.100000
0
VERTEX
8
0
10
2.050000
20
-0.200000
0
VERTEX
8
0
10
2.150000
20
-0.200000
0
SEQEND
8
0
0
POLYLINE
8
0
66
1
40
0.016000
41
0.016000
0
VERTEX
8
0
10
2.100000
20
-0.300000
0
VERTEX
8
0
10
2.100000
20
-0.100000
0
SEQEND
8
0
0
POLYLINE
8
0
66
1
40
0.016000
41
0.016000
0
VERTEX
8
0
10
2.060000
20
-0.700000
0
VERTEX
8
0
10
2.140000
20
-0.700000
0
VERTEX
8
0
10
2.140000
20
-0.400000
0
VERTEX
8
0
10
2.060000
20
-0.400000
0
VERTEX
8
0
10
2.060000
20
-0.700000
0
SEQEND
8
0
0
POLYLINE
8
0
66
1
40
0.016000
41
0.016000
0
VERTEX
8
0
10
2.100000
20
-0.800000
0
VERTEX
8
0
10
2.100000
20
-0.700000
0
SEQEND
8
0
0
POLYLINE
8
0
66
1
40
0.016000
41
0.016000
0
VERTEX
8
0
10
2.100000
20
-0.300000
0
VERTEX
8
0
10
2.100000
20
-0.400000
0
SEQEND
8
0
0
TEXT
8
0
10
2.198000
20
-0.527000
40
0.120000
41
0.666667
1
R4
0
TEXT
8
0
10
2.198000
20
-0.632000
40
0.080000
41
1.000000
1
10k
0
CIRCLE
8
0
10
1.700000
20
-0.900000
40
0.020000
0
POLYLINE
8
0
66
1
40
0.016000
41
0.016000
0
VERTEX
8
0
10
3.600000
20
-2.000000
0
VERTEX
8
0
10
3.600000
20
-2.100000
0
SEQEND
8
0
0
POLYLINE
8
0
66
1
40
0.016000
41
0.016000
0
VERTEX
8
0
10
3.700000
20
-2.100000
0
VERTEX
8
0
10
3.500000
20
-2.100000
0
SEQEND
8
0
0
POLYLINE
8
0
66
1
40
0.016000
41
0.016000
0
VERTEX
8
0
10
3.650000
20
-2.150000
0
VERTEX
8
0
10
3.550000
20
-2.150000
0
SEQEND
8
0
0
POLYLINE
8
0
66
1
40
0.016000
41
0.016000
0
VERTEX
8
0
10
3.610000
20
-2.200000
0
VERTEX
8
0
10
3.590000
20
-2.200000
0
SEQEND
8
0
0
POLYLINE
8
0
66
1
40
0.016000
41
0.016000
0
VERTEX
8
0
10
2.150000
20
-1.200000
0
VERTEX
8
0
10
2.100000
20
-1.100000
0
VERTEX
8
0
10
2.050000
20
-1.200000
0
VERTEX
8
0
10
2.150000
20
-1.200000
0
SEQEND
8
0
0
POLYLINE
8
0
66
1
40
0.016000
41
0.016000
0
VERTEX
8
0
10
2.100000
20
-1.300000
0
VERTEX
8
0
10
2.100000
20
-1.100000
0
SEQEND
8
0
0
POLYLINE
8
0
66
1
40
0.016000
41
0.016000
0
VERTEX
8
0
10
2.060000
20
-1.700000
0
VERTEX
8
0
10
2.140000
20
-1.700000
0
VERTEX
8
0
10
2.140000
20
-1.400000
0
VERTEX
8
0
10
2.060000
20
-1.400000
0
VERTEX
8
0
10
2.060000
20
-1.700000
0
SEQEND
8
0
0
POLYLINE
8
0
66
1
40
0.016000
41
0.016000
0
VERTEX
8
0
10
2.100000
20
-1.800000
0
VERTEX
8
0
10
2.100000
20
-1.700000
0
SEQEND
8
0
0
POLYLINE
8
0
66
1
40
0.016000
41
0.016000
0
VERTEX
8
0
10
2.100000
20
-1.300000
0
VERTEX
8
0
10
2.100000
20
-1.400000
0
SEQEND
8
0
0
TEXT
8
0
10
2.198000
20
-1.527000
40
0.120000
41
0.666667
1
R5
0
TEXT
8
0
10
2.198000
20
-1.632000
40
0.080000
41
1.000000
1
10k
0
CIRCLE
8
0
10
1.700000
20
-1.900000
40
0.020000
0
POLYLINE
8
0
66
1
40
0.016000
41
0.016000
0
VERTEX
8
0
10
-1.800000
20
0.500000
0
VERTEX
8
0
10
-1.600000
20
0.500000
0
VERTEX
8
0
10
-1.600000
20
1.000000
0
VERTEX
8
0
10
-1.800000
20
1.000000
0
VERTEX
8
0
10
-1.800000
20
0.500000
0
SEQEND
8
0
0
POLYLINE
8
0
66
1
40
0.016000
41
0.016000
0
VERTEX
8
0
10
-1.730000
20
0.900000
0
VERTEX
8
0
10
-1.800000
20
0.900000
0
SEQEND
8
0
0
CIRCLE
8
0
10
-1.700000
20
0.900000
40
0.030000
0
POLYLINE
8
0
66
1
40
0.016000
41
0.016000
0
VERTEX
8
0
10
-1.730000
20
0.800000
0
VERTEX
8
0
10
-1.800000
20
0.800000
0
SEQEND
8
0
0
CIRCLE
8
0
10
-1.700000
20
0.800000
40
0.030000
0
POLYLINE
8
0
66
1
40
0.016000
41
0.016000
0
VERTEX
8
0
10
-1.730000
20
0.700000
0
VERTEX
8
0
10
-1.800000
20
0.700000
0
SEQEND
8
0
0
CIRCLE
8
0
10
-1.700000
20
0.700000
40
0.030000
0
POLYLINE
8
0
66
1
40
0.016000
41
0.016000
0
VERTEX
8
0
10
-1.730000
20
0.600000
0
VERTEX
8
0
10
-1.800000
20
0.600000
0
SEQEND
8
0
0
CIRCLE
8
0
10
-1.700000
20
0.600000
40
0.030000
0
POLYLINE
8
0
66
1
40
0.016000
41
0.016000
0
VERTEX
8
0
10
-2.000000
20
0.900000
0
VERTEX
8
0
10
-1.800000
20
0.900000
0
SEQEND
8
0
0
TEXT
8
0
10
-1.980000
20
0.910000
40
0.080000
41
1.000000
1
1
0
POLYLINE
8
0
66
1
40
0.016000
41
0.016000
0
VERTEX
8
0
10
-2.000000
20
0.800000
0
VERTEX
8
0
10
-1.800000
20
0.800000
0
SEQEND
8
0
0
TEXT
8
0
10
-1.980000
20
0.810000
40
0.080000
41
1.000000
1
2
0
POLYLINE
8
0
66
1
40
0.016000
41
0.016000
0
VERTEX
8
0
10
-2.000000
20
0.700000
0
VERTEX
8
0
10
-1.800000
20
0.700000
0
SEQEND
8
0
0
TEXT
8
0
10
-1.980000
20
0.710000
40
0.080000
41
1.000000
1
3
0
POLYLINE
8
0
66
1
40
0.016000
41
0.016000
0
VERTEX
8
0
10
-2.000000
20
0.600000
0
VERTEX
8
0
10
-1.800000
20
0.600000
0
SEQEND
8
0
0
TEXT
8
0
10
-1.980000
20
0.610000
40
0.080000
41
1.000000
1
4
0
TEXT
8
0
10
-1.808000
20
1.023000
40
0.120000
41
0.666667
1
J3
0
TEXT
8
0
10
-1.808000
20
0.402000
40
0.080000
41
1.000000
1
CONN-SIL4
0
POLYLINE
8
0
66
1
40
0.016000
41
0.016000
0
VERTEX
8
0
10
-2.050000
20
0.400000
0
VERTEX
8
0
10
-2.100000
20
0.300000
0
VERTEX
8
0
10
-2.150000
20
0.400000
0
VERTEX
8
0
10
-2.050000
20
0.400000
0
SEQEND
8
0
0
POLYLINE
8
0
66
1
40
0.016000
41
0.016000
0
VERTEX
8
0
10
-2.100000
20
0.500000
0
VERTEX
8
0
10
-2.100000
20
0.300000
0
SEQEND
8
0
0
POLYLINE
8
0
66
1
40
0.016000
41
0.016000
0
VERTEX
8
0
10
-2.300000
20
0.500000
0
VERTEX
8
0
10
-2.300000
20
0.400000
0
SEQEND
8
0
0
POLYLINE
8
0
66
1
40
0.016000
41
0.016000
0
VERTEX
8
0
10
-2.400000
20
0.400000
0
VERTEX
8
0
10
-2.200000
20
0.400000
0
SEQEND
8
0
0
POLYLINE
8
0
66
1
40
0.016000
41
0.016000
0
VERTEX
8
0
10
-2.350000
20
0.350000
0
VERTEX
8
0
10
-2.250000
20
0.350000
0
SEQEND
8
0
0
POLYLINE
8
0
66
1
40
0.016000
41
0.016000
0
VERTEX
8
0
10
-2.310000
20
0.300000
0
VERTEX
8
0
10
-2.290000
20
0.300000
0
SEQEND
8
0
0
POLYLINE
8
0
66
1
40
0.016000
41
0.016000
0
VERTEX
8
0
10
-2.400000
20
-0.700000
0
VERTEX
8
0
10
-2.200000
20
-0.700000
0
VERTEX
8
0
10
-2.200000
20
0.000000
0
VERTEX
8
0
10
-2.400000
20
0.000000
0
VERTEX
8
0
10
-2.400000
20
-0.700000
0
SEQEND
8
0
0
POLYLINE
8
0
66
1
40
0.016000
41
0.016000
0
VERTEX
8
0
10
-2.330000
20
-0.100000
0
VERTEX
8
0
10
-2.400000
20
-0.100000
0
SEQEND
8
0
0
CIRCLE
8
0
10
-2.300000
20
-0.100000
40
0.030000
0
POLYLINE
8
0
66
1
40
0.016000
41
0.016000
0
VERTEX
8
0
10
-2.330000
20
-0.200000
0
VERTEX
8
0
10
-2.400000
20
-0.200000
0
SEQEND
8
0
0
CIRCLE
8
0
10
-2.300000
20
-0.200000
40
0.030000
0
POLYLINE
8
0
66
1
40
0.016000
41
0.016000
0
VERTEX
8
0
10
-2.330000
20
-0.300000
0
VERTEX
8
0
10
-2.400000
20
-0.300000
0
SEQEND
8
0
0
CIRCLE
8
0
10
-2.300000
20
-0.300000
40
0.030000
0
POLYLINE
8
0
66
1
40
0.016000
41
0.016000
0
VERTEX
8
0
10
-2.330000
20
-0.400000
0
VERTEX
8
0
10
-2.400000
20
-0.400000
0
SEQEND
8
0
0
CIRCLE
8
0
10
-2.300000
20
-0.400000
40
0.030000
0
POLYLINE
8
0
66
1
40
0.016000
41
0.016000
0
VERTEX
8
0
10
-2.330000
20
-0.500000
0
VERTEX
8
0
10
-2.400000
20
-0.500000
0
SEQEND
8
0
0
CIRCLE
8
0
10
-2.300000
20
-0.500000
40
0.030000
0
POLYLINE
8
0
66
1
40
0.016000
41
0.016000
0
VERTEX
8
0
10
-2.330000
20
-0.600000
0
VERTEX
8
0
10
-2.400000
20
-0.600000
0
SEQEND
8
0
0
CIRCLE
8
0
10
-2.300000
20
-0.600000
40
0.030000
0
POLYLINE
8
0
66
1
40
0.016000
41
0.016000
0
VERTEX
8
0
10
-2.600000
20
-0.100000
0
VERTEX
8
0
10
-2.400000
20
-0.100000
0
SEQEND
8
0
0
TEXT
8
0
10
-2.580000
20
-0.090000
40
0.080000
41
1.000000
1
1
0
POLYLINE
8
0
66
1
40
0.016000
41
0.016000
0
VERTEX
8
0
10
-2.600000
20
-0.200000
0
VERTEX
8
0
10
-2.400000
20
-0.200000
0
SEQEND
8
0
0
TEXT
8
0
10
-2.580000
20
-0.190000
40
0.080000
41
1.000000
1
2
0
POLYLINE
8
0
66
1
40
0.016000
41
0.016000
0
VERTEX
8
0
10
-2.600000
20
-0.300000
0
VERTEX
8
0
10
-2.400000
20
-0.300000
0
SEQEND
8
0
0
TEXT
8
0
10
-2.580000
20
-0.290000
40
0.080000
41
1.000000
1
3
0
POLYLINE
8
0
66
1
40
0.016000
41
0.016000
0
VERTEX
8
0
10
-2.600000
20
-0.400000
0
VERTEX
8
0
10
-2.400000
20
-0.400000
0
SEQEND
8
0
0
TEXT
8
0
10
-2.580000
20
-0.390000
40
0.080000
41
1.000000
1
4
0
POLYLINE
8
0
66
1
40
0.016000
41
0.016000
0
VERTEX
8
0
10
-2.600000
20
-0.500000
0
VERTEX
8
0
10
-2.400000
20
-0.500000
0
SEQEND
8
0
0
TEXT
8
0
10
-2.580000
20
-0.490000
40
0.080000
41
1.000000
1
5
0
POLYLINE
8
0
66
1
40
0.016000
41
0.016000
0
VERTEX
8
0
10
-2.600000
20
-0.600000
0
VERTEX
8
0
10
-2.400000
20
-0.600000
0
SEQEND
8
0
0
TEXT
8
0
10
-2.580000
20
-0.590000
40
0.080000
41
1.000000
1
6
0
TEXT
8
0
10
-2.408000
20
0.023000
40
0.120000
41
0.666667
1
J4
0
TEXT
8
0
10
-2.408000
20
-0.798000
40
0.080000
41
1.000000
1
CONN-SIL6
0
POLYLINE
8
0
66
1
40
0.016000
41
0.016000
0
VERTEX
8
0
10
-4.500000
20
-2.500000
0
VERTEX
8
0
10
-3.000000
20
-2.500000
0
VERTEX
8
0
10
-3.000000
20
0.200000
0
VERTEX
8
0
10
-4.500000
20
0.200000
0
VERTEX
8
0
10
-4.500000
20
-2.500000
0
SEQEND
8
0
0
POLYLINE
8
0
66
1
40
0.016000
41
0.016000
0
VERTEX
8
0
10
-4.700000
20
-0.300000
0
VERTEX
8
0
10
-4.500000
20
-0.300000
0
SEQEND
8
0
0
TEXT
8
0
10
-4.450000
20
-0.340000
40
0.080000
41
1.000000
1
RA0/AN0
0
TEXT
8
0
10
-4.680000
20
-0.290000
40
0.080000
41
1.000000
1
2
0
POLYLINE
8
0
66
1
40
0.016000
41
0.016000
0
VERTEX
8
0
10
-4.700000
20
-0.400000
0
VERTEX
8
0
10
-4.500000
20
-0.400000
0
SEQEND
8
0
0
TEXT
8
0
10
-4.450000
20
-0.440000
40
0.080000
41
1.000000
1
RA1/AN1
0
TEXT
8
0
10
-4.680000
20
-0.390000
40
0.080000
41
1.000000
1
3
0
POLYLINE
8
0
66
1
40
0.016000
41
0.016000
0
VERTEX
8
0
10
-4.700000
20
-0.500000
0
VERTEX
8
0
10
-4.500000
20
-0.500000
0
SEQEND
8
0
0
TEXT
8
0
10
-4.450000
20
-0.540000
40
0.080000
41
1.000000
1
RA2/AN2/VREF-
0
TEXT
8
0
10
-4.680000
20
-0.490000
40
0.080000
41
1.000000
1
4
0
POLYLINE
8
0
66
1
40
0.016000
41
0.016000
0
VERTEX
8
0
10
-4.700000
20
-0.700000
0
VERTEX
8
0
10
-4.500000
20
-0.700000
0
SEQEND
8
0
0
TEXT
8
0
10
-4.450000
20
-0.740000
40
0.080000
41
1.000000
1
RA4/T0CKI
0
TEXT
8
0
10
-4.680000
20
-0.690000
40
0.080000
41
1.000000
1
6
0
POLYLINE
8
0
66
1
40
0.016000
41
0.016000
0
VERTEX
8
0
10
-4.700000
20
-0.800000
0
VERTEX
8
0
10
-4.500000
20
-0.800000
0
SEQEND
8
0
0
TEXT
8
0
10
-4.450000
20
-0.840000
40
0.080000
41
1.000000
1
RA5/AN4/SS
0
TEXT
8
0
10
-4.680000
20
-0.790000
40
0.080000
41
1.000000
1
7
0
POLYLINE
8
0
66
1
40
0.016000
41
0.016000
0
VERTEX
8
0
10
-4.700000
20
-1.000000
0
VERTEX
8
0
10
-4.500000
20
-1.000000
0
SEQEND
8
0
0
TEXT
8
0
10
-4.450000
20
-1.040000
40
0.080000
41
1.000000
1
RE0/AN5/RD
0
TEXT
8
0
10
-4.680000
20
-0.990000
40
0.080000
41
1.000000
1
8
0
POLYLINE
8
0
66
1
40
0.016000
41
0.016000
0
VERTEX
8
0
10
-4.700000
20
-1.100000
0
VERTEX
8
0
10
-4.500000
20
-1.100000
0
SEQEND
8
0
0
TEXT
8
0
10
-4.450000
20
-1.140000
40
0.080000
41
1.000000
1
RE1/AN6/WR
0
TEXT
8
0
10
-4.680000
20
-1.090000
40
0.080000
41
1.000000
1
9
0
POLYLINE
8
0
66
1
40
0.016000
41
0.016000
0
VERTEX
8
0
10
-4.700000
20
-1.200000
0
VERTEX
8
0
10
-4.500000
20
-1.200000
0
SEQEND
8
0
0
TEXT
8
0
10
-4.450000
20
-1.240000
40
0.080000
41
1.000000
1
RE2/AN7/CS
0
TEXT
8
0
10
-4.760000
20
-1.190000
40
0.080000
41
1.000000
1
10
0
POLYLINE
8
0
66
1
40
0.016000
41
0.016000
0
VERTEX
8
0
10
-4.700000
20
0.100000
0
VERTEX
8
0
10
-4.500000
20
0.100000
0
SEQEND
8
0
0
TEXT
8
0
10
-4.450000
20
0.060000
40
0.080000
41
1.000000
1
OSC1/CLKIN
0
TEXT
8
0
10
-4.760000
20
0.110000
40
0.080000
41
1.000000
1
13
0
POLYLINE
8
0
66
1
40
0.016000
41
0.016000
0
VERTEX
8
0
10
-4.700000
20
0.000000
0
VERTEX
8
0
10
-4.500000
20
0.000000
0
SEQEND
8
0
0
TEXT
8
0
10
-4.450000
20
-0.040000
40
0.080000
41
1.000000
1
OSC2/CLKOUT
0
TEXT
8
0
10
-4.760000
20
0.010000
40
0.080000
41
1.000000
1
14
0
POLYLINE
8
0
66
1
40
0.016000
41
0.016000
0
VERTEX
8
0
10
-2.800000
20
-0.900000
0
VERTEX
8
0
10
-3.000000
20
-0.900000
0
SEQEND
8
0
0
TEXT
8
0
10
-4.170000
20
-0.940000
40
0.080000
41
1.000000
1
RC1/T1OSI/CCP2
0
TEXT
8
0
10
-2.900000
20
-0.890000
40
0.080000
41
1.000000
1
16
0
POLYLINE
8
0
66
1
40
0.016000
41
0.016000
0
VERTEX
8
0
10
-2.800000
20
-1.000000
0
VERTEX
8
0
10
-3.000000
20
-1.000000
0
SEQEND
8
0
0
TEXT
8
0
10
-3.690000
20
-1.040000
40
0.080000
41
1.000000
1
RC2/CCP1
0
TEXT
8
0
10
-2.900000
20
-0.990000
40
0.080000
41
1.000000
1
17
0
POLYLINE
8
0
66
1
40
0.016000
41
0.016000
0
VERTEX
8
0
10
-2.800000
20
-1.100000
0
VERTEX
8
0
10
-3.000000
20
-1.100000
0
SEQEND
8
0
0
TEXT
8
0
10
-3.930000
20
-1.140000
40
0.080000
41
1.000000
1
RC3/SCK/SCL
0
TEXT
8
0
10
-2.900000
20
-1.090000
40
0.080000
41
1.000000
1
18
0
POLYLINE
8
0
66
1
40
0.016000
41
0.016000
0
VERTEX
8
0
10
-2.800000
20
-1.700000
0
VERTEX
8
0
10
-3.000000
20
-1.700000
0
SEQEND
8
0
0
TEXT
8
0
10
-3.690000
20
-1.740000
40
0.080000
41
1.000000
1
RD0/PSP0
0
TEXT
8
0
10
-2.900000
20
-1.690000
40
0.080000
41
1.000000
1
19
0
POLYLINE
8
0
66
1
40
0.016000
41
0.016000
0
VERTEX
8
0
10
-2.800000
20
-1.800000
0
VERTEX
8
0
10
-3.000000
20
-1.800000
0
SEQEND
8
0
0
TEXT
8
0
10
-3.690000
20
-1.840000
40
0.080000
41
1.000000
1
RD1/PSP1
0
TEXT
8
0
10
-2.900000
20
-1.790000
40
0.080000
41
1.000000
1
20
0
POLYLINE
8
0
66
1
40
0.016000
41
0.016000
0
VERTEX
8
0
10
-2.800000
20
-0.600000
0
VERTEX
8
0
10
-3.000000
20
-0.600000
0
SEQEND
8
0
0
TEXT
8
0
10
-3.610000
20
-0.640000
40
0.080000
41
1.000000
1
RB7/PGD
0
TEXT
8
0
10
-2.900000
20
-0.590000
40
0.080000
41
1.000000
1
40
0
POLYLINE
8
0
66
1
40
0.016000
41
0.016000
0
VERTEX
8
0
10
-2.800000
20
-0.500000
0
VERTEX
8
0
10
-3.000000
20
-0.500000
0
SEQEND
8
0
0
TEXT
8
0
10
-3.610000
20
-0.540000
40
0.080000
41
1.000000
1
RB6/PGC
0
TEXT
8
0
10
-2.900000
20
-0.490000
40
0.080000
41
1.000000
1
39
0
POLYLINE
8
0
66
1
40
0.016000
41
0.016000
0
VERTEX
8
0
10
-2.800000
20
-0.400000
0
VERTEX
8
0
10
-3.000000
20
-0.400000
0
SEQEND
8
0
0
TEXT
8
0
10
-3.290000
20
-0.440000
40
0.080000
41
1.000000
1
RB5
0
TEXT
8
0
10
-2.900000
20
-0.390000
40
0.080000
41
1.000000
1
38
0
POLYLINE
8
0
66
1
40
0.016000
41
0.016000
0
VERTEX
8
0
10
-2.800000
20
-0.300000
0
VERTEX
8
0
10
-3.000000
20
-0.300000
0
SEQEND
8
0
0
TEXT
8
0
10
-3.290000
20
-0.340000
40
0.080000
41
1.000000
1
RB4
0
TEXT
8
0
10
-2.900000
20
-0.290000
40
0.080000
41
1.000000
1
37
0
POLYLINE
8
0
66
1
40
0.016000
41
0.016000
0
VERTEX
8
0
10
-2.800000
20
-0.200000
0
VERTEX
8
0
10
-3.000000
20
-0.200000
0
SEQEND
8
0
0
TEXT
8
0
10
-3.610000
20
-0.240000
40
0.080000
41
1.000000
1
RB3/PGM
0
TEXT
8
0
10
-2.900000
20
-0.190000
40
0.080000
41
1.000000
1
36
0
POLYLINE
8
0
66
1
40
0.016000
41
0.016000
0
VERTEX
8
0
10
-2.800000
20
-0.100000
0
VERTEX
8
0
10
-3.000000
20
-0.100000
0
SEQEND
8
0
0
TEXT
8
0
10
-3.290000
20
-0.140000
40
0.080000
41
1.000000
1
RB2
0
TEXT
8
0
10
-2.900000
20
-0.090000
40
0.080000
41
1.000000
1
35
0
POLYLINE
8
0
66
1
40
0.016000
41
0.016000
0
VERTEX
8
0
10
-2.800000
20
0.000000
0
VERTEX
8
0
10
-3.000000
20
0.000000
0
SEQEND
8
0
0
TEXT
8
0
10
-3.290000
20
-0.040000
40
0.080000
41
1.000000
1
RB1
0
TEXT
8
0
10
-2.900000
20
0.010000
40
0.080000
41
1.000000
1
34
0
POLYLINE
8
0
66
1
40
0.016000
41
0.016000
0
VERTEX
8
0
10
-2.800000
20
0.100000
0
VERTEX
8
0
10
-3.000000
20
0.100000
0
SEQEND
8
0
0
TEXT
8
0
10
-3.610000
20
0.060000
40
0.080000
41
1.000000
1
RB0/INT
0
TEXT
8
0
10
-2.900000
20
0.110000
40
0.080000
41
1.000000
1
33
0
POLYLINE
8
0
66
1
40
0.016000
41
0.016000
0
VERTEX
8
0
10
-2.800000
20
-2.400000
0
VERTEX
8
0
10
-3.000000
20
-2.400000
0
SEQEND
8
0
0
TEXT
8
0
10
-3.690000
20
-2.440000
40
0.080000
41
1.000000
1
RD7/PSP7
0
TEXT
8
0
10
-2.900000
20
-2.390000
40
0.080000
41
1.000000
1
30
0
POLYLINE
8
0
66
1
40
0.016000
41
0.016000
0
VERTEX
8
0
10
-2.800000
20
-2.300000
0
VERTEX
8
0
10
-3.000000
20
-2.300000
0
SEQEND
8
0
0
TEXT
8
0
10
-3.690000
20
-2.340000
40
0.080000
41
1.000000
1
RD6/PSP6
0
TEXT
8
0
10
-2.900000
20
-2.290000
40
0.080000
41
1.000000
1
29
0
POLYLINE
8
0
66
1
40
0.016000
41
0.016000
0
VERTEX
8
0
10
-2.800000
20
-2.200000
0
VERTEX
8
0
10
-3.000000
20
-2.200000
0
SEQEND
8
0
0
TEXT
8
0
10
-3.690000
20
-2.240000
40
0.080000
41
1.000000
1
RD5/PSP5
0
TEXT
8
0
10
-2.900000
20
-2.190000
40
0.080000
41
1.000000
1
28
0
POLYLINE
8
0
66
1
40
0.016000
41
0.016000
0
VERTEX
8
0
10
-2.800000
20
-2.100000
0
VERTEX
8
0
10
-3.000000
20
-2.100000
0
SEQEND
8
0
0
TEXT
8
0
10
-3.690000
20
-2.140000
40
0.080000
41
1.000000
1
RD4/PSP4
0
TEXT
8
0
10
-2.900000
20
-2.090000
40
0.080000
41
1.000000
1
27
0
POLYLINE
8
0
66
1
40
0.016000
41
0.016000
0
VERTEX
8
0
10
-2.800000
20
-2.000000
0
VERTEX
8
0
10
-3.000000
20
-2.000000
0
SEQEND
8
0
0
TEXT
8
0
10
-3.690000
20
-2.040000
40
0.080000
41
1.000000
1
RD3/PSP3
0
TEXT
8
0
10
-2.900000
20
-1.990000
40
0.080000
41
1.000000
1
22
0
POLYLINE
8
0
66
1
40
0.016000
41
0.016000
0
VERTEX
8
0
10
-2.800000
20
-1.900000
0
VERTEX
8
0
10
-3.000000
20
-1.900000
0
SEQEND
8
0
0
TEXT
8
0
10
-3.690000
20
-1.940000
40
0.080000
41
1.000000
1
RD2/PSP2
0
TEXT
8
0
10
-2.900000
20
-1.890000
40
0.080000
41
1.000000
1
21
0
POLYLINE
8
0
66
1
40
0.016000
41
0.016000
0
VERTEX
8
0
10
-2.800000
20
-1.500000
0
VERTEX
8
0
10
-3.000000
20
-1.500000
0
SEQEND
8
0
0
TEXT
8
0
10
-3.770000
20
-1.540000
40
0.080000
41
1.000000
1
RC7/RX/DT
0
TEXT
8
0
10
-2.900000
20
-1.490000
40
0.080000
41
1.000000
1
26
0
POLYLINE
8
0
66
1
40
0.016000
41
0.016000
0
VERTEX
8
0
10
-2.800000
20
-1.400000
0
VERTEX
8
0
10
-3.000000
20
-1.400000
0
SEQEND
8
0
0
TEXT
8
0
10
-3.770000
20
-1.440000
40
0.080000
41
1.000000
1
RC6/TX/CK
0
TEXT
8
0
10
-2.900000
20
-1.390000
40
0.080000
41
1.000000
1
25
0
POLYLINE
8
0
66
1
40
0.016000
41
0.016000
0
VERTEX
8
0
10
-2.800000
20
-1.300000
0
VERTEX
8
0
10
-3.000000
20
-1.300000
0
SEQEND
8
0
0
TEXT
8
0
10
-3.610000
20
-1.340000
40
0.080000
41
1.000000
1
RC5/SDO
0
TEXT
8
0
10
-2.900000
20
-1.290000
40
0.080000
41
1.000000
1
24
0
POLYLINE
8
0
66
1
40
0.016000
41
0.016000
0
VERTEX
8
0
10
-2.800000
20
-1.200000
0
VERTEX
8
0
10
-3.000000
20
-1.200000
0
SEQEND
8
0
0
TEXT
8
0
10
-3.930000
20
-1.240000
40
0.080000
41
1.000000
1
RC4/SDI/SDA
0
TEXT
8
0
10
-2.900000
20
-1.190000
40
0.080000
41
1.000000
1
23
0
POLYLINE
8
0
66
1
40
0.016000
41
0.016000
0
VERTEX
8
0
10
-4.700000
20
-0.600000
0
VERTEX
8
0
10
-4.500000
20
-0.600000
0
SEQEND
8
0
0
TEXT
8
0
10
-4.450000
20
-0.640000
40
0.080000
41
1.000000
1
RA3/AN3/VREF+
0
TEXT
8
0
10
-4.680000
20
-0.590000
40
0.080000
41
1.000000
1
5
0
POLYLINE
8
0
66
1
40
0.016000
41
0.016000
0
VERTEX
8
0
10
-2.800000
20
-0.800000
0
VERTEX
8
0
10
-3.000000
20
-0.800000
0
SEQEND
8
0
0
TEXT
8
0
10
-4.250000
20
-0.840000
40
0.080000
41
1.000000
1
RC0/T1OSO/T1CKI
0
TEXT
8
0
10
-2.900000
20
-0.790000
40
0.080000
41
1.000000
1
15
0
POLYLINE
8
0
66
1
40
0.016000
41
0.016000
0
VERTEX
8
0
10
-4.700000
20
-0.100000
0
VERTEX
8
0
10
-4.500000
20
-0.100000
0
SEQEND
8
0
0
TEXT
8
0
10
-4.450000
20
-0.140000
40
0.080000
41
1.000000
1
MCLR/Vpp/THV
0
TEXT
8
0
10
-4.680000
20
-0.090000
40
0.080000
41
1.000000
1
1
0
TEXT
8
0
10
-4.508000
20
0.223000
40
0.120000
41
0.666667
1
U1
0
TEXT
8
0
10
-4.508000
20
-2.598000
40
0.080000
41
1.000000
1
PIC16F877
0
POLYLINE
8
0
66
1
40
0.016000
41
0.016000
0
VERTEX
8
0
10
-5.300000
20
-1.300000
0
VERTEX
8
0
10
-5.100000
20
-1.300000
0
VERTEX
8
0
10
-5.100000
20
-0.500000
0
VERTEX
8
0
10
-5.300000
20
-0.500000
0
VERTEX
8
0
10
-5.300000
20
-1.300000
0
SEQEND
8
0
0
POLYLINE
8
0
66
1
40
0.016000
41
0.016000
0
VERTEX
8
0
10
-5.170000
20
-0.600000
0
VERTEX
8
0
10
-5.100000
20
-0.600000
0
SEQEND
8
0
0
CIRCLE
8
0
10
-5.200000
20
-0.600000
40
0.030000
0
POLYLINE
8
0
66
1
40
0.016000
41
0.016000
0
VERTEX
8
0
10
-5.170000
20
-0.700000
0
VERTEX
8
0
10
-5.100000
20
-0.700000
0
SEQEND
8
0
0
CIRCLE
8
0
10
-5.200000
20
-0.700000
40
0.030000
0
POLYLINE
8
0
66
1
40
0.016000
41
0.016000
0
VERTEX
8
0
10
-5.170000
20
-0.800000
0
VERTEX
8
0
10
-5.100000
20
-0.800000
0
SEQEND
8
0
0
CIRCLE
8
0
10
-5.200000
20
-0.800000
40
0.030000
0
POLYLINE
8
0
66
1
40
0.016000
41
0.016000
0
VERTEX
8
0
10
-5.170000
20
-0.900000
0
VERTEX
8
0
10
-5.100000
20
-0.900000
0
SEQEND
8
0
0
CIRCLE
8
0
10
-5.200000
20
-0.900000
40
0.030000
0
POLYLINE
8
0
66
1
40
0.016000
41
0.016000
0
VERTEX
8
0
10
-5.170000
20
-1.000000
0
VERTEX
8
0
10
-5.100000
20
-1.000000
0
SEQEND
8
0
0
CIRCLE
8
0
10
-5.200000
20
-1.000000
40
0.030000
0
POLYLINE
8
0
66
1
40
0.016000
41
0.016000
0
VERTEX
8
0
10
-5.170000
20
-1.100000
0
VERTEX
8
0
10
-5.100000
20
-1.100000
0
SEQEND
8
0
0
CIRCLE
8
0
10
-5.200000
20
-1.100000
40
0.030000
0
POLYLINE
8
0
66
1
40
0.016000
41
0.016000
0
VERTEX
8
0
10
-5.170000
20
-1.200000
0
VERTEX
8
0
10
-5.100000
20
-1.200000
0
SEQEND
8
0
0
CIRCLE
8
0
10
-5.200000
20
-1.200000
40
0.030000
0
POLYLINE
8
0
66
1
40
0.016000
41
0.016000
0
VERTEX
8
0
10
-4.900000
20
-0.600000
0
VERTEX
8
0
10
-5.100000
20
-0.600000
0
SEQEND
8
0
0
TEXT
8
0
10
-5.000000
20
-0.590000
40
0.080000
41
1.000000
1
1
0
POLYLINE
8
0
66
1
40
0.016000
41
0.016000
0
VERTEX
8
0
10
-4.900000
20
-0.700000
0
VERTEX
8
0
10
-5.100000
20
-0.700000
0
SEQEND
8
0
0
TEXT
8
0
10
-5.000000
20
-0.690000
40
0.080000
41
1.000000
1
2
0
POLYLINE
8
0
66
1
40
0.016000
41
0.016000
0
VERTEX
8
0
10
-4.900000
20
-0.800000
0
VERTEX
8
0
10
-5.100000
20
-0.800000
0
SEQEND
8
0
0
TEXT
8
0
10
-5.000000
20
-0.790000
40
0.080000
41
1.000000
1
3
0
POLYLINE
8
0
66
1
40
0.016000
41
0.016000
0
VERTEX
8
0
10
-4.900000
20
-0.900000
0
VERTEX
8
0
10
-5.100000
20
-0.900000
0
SEQEND
8
0
0
TEXT
8
0
10
-5.000000
20
-0.890000
40
0.080000
41
1.000000
1
4
0
POLYLINE
8
0
66
1
40
0.016000
41
0.016000
0
VERTEX
8
0
10
-4.900000
20
-1.000000
0
VERTEX
8
0
10
-5.100000
20
-1.000000
0
SEQEND
8
0
0
TEXT
8
0
10
-5.000000
20
-0.990000
40
0.080000
41
1.000000
1
5
0
POLYLINE
8
0
66
1
40
0.016000
41
0.016000
0
VERTEX
8
0
10
-4.900000
20
-1.100000
0
VERTEX
8
0
10
-5.100000
20
-1.100000
0
SEQEND
8
0
0
TEXT
8
0
10
-5.000000
20
-1.090000
40
0.080000
41
1.000000
1
6
0
POLYLINE
8
0
66
1
40
0.016000
41
0.016000
0
VERTEX
8
0
10
-4.900000
20
-1.200000
0
VERTEX
8
0
10
-5.100000
20
-1.200000
0
SEQEND
8
0
0
TEXT
8
0
10
-5.000000
20
-1.190000
40
0.080000
41
1.000000
1
7
0
TEXT
8
0
10
-5.308000
20
-0.477000
40
0.120000
41
0.666667
1
J8
0
TEXT
8
0
10
-5.308000
20
-1.398000
40
0.080000
41
1.000000
1
CONN-SIL7
0
POLYLINE
8
0
66
1
40
0.016000
41
0.016000
0
VERTEX
8
0
10
3.800000
20
1.700000
0
VERTEX
8
0
10
4.000000
20
1.700000
0
VERTEX
8
0
10
4.000000
20
2.400000
0
VERTEX
8
0
10
3.800000
20
2.400000
0
VERTEX
8
0
10
3.800000
20
1.700000
0
SEQEND
8
0
0
POLYLINE
8
0
66
1
40
0.016000
41
0.016000
0
VERTEX
8
0
10
3.870000
20
2.300000
0
VERTEX
8
0
10
3.800000
20
2.300000
0
SEQEND
8
0
0
CIRCLE
8
0
10
3.900000
20
2.300000
40
0.030000
0
POLYLINE
8
0
66
1
40
0.016000
41
0.016000
0
VERTEX
8
0
10
3.870000
20
2.200000
0
VERTEX
8
0
10
3.800000
20
2.200000
0
SEQEND
8
0
0
CIRCLE
8
0
10
3.900000
20
2.200000
40
0.030000
0
POLYLINE
8
0
66
1
40
0.016000
41
0.016000
0
VERTEX
8
0
10
3.870000
20
2.100000
0
VERTEX
8
0
10
3.800000
20
2.100000
0
SEQEND
8
0
0
CIRCLE
8
0
10
3.900000
20
2.100000
40
0.030000
0
POLYLINE
8
0
66
1
40
0.016000
41
0.016000
0
VERTEX
8
0
10
3.870000
20
2.000000
0
VERTEX
8
0
10
3.800000
20
2.000000
0
SEQEND
8
0
0
CIRCLE
8
0
10
3.900000
20
2.000000
40
0.030000
0
POLYLINE
8
0
66
1
40
0.016000
41
0.016000
0
VERTEX
8
0
10
3.870000
20
1.900000
0
VERTEX
8
0
10
3.800000
20
1.900000
0
SEQEND
8
0
0
CIRCLE
8
0
10
3.900000
20
1.900000
40
0.030000
0
POLYLINE
8
0
66
1
40
0.016000
41
0.016000
0
VERTEX
8
0
10
3.870000
20
1.800000
0
VERTEX
8
0
10
3.800000
20
1.800000
0
SEQEND
8
0
0
CIRCLE
8
0
10
3.900000
20
1.800000
40
0.030000
0
POLYLINE
8
0
66
1
40
0.016000
41
0.016000
0
VERTEX
8
0
10
3.600000
20
2.300000
0
VERTEX
8
0
10
3.800000
20
2.300000
0
SEQEND
8
0
0
TEXT
8
0
10
3.620000
20
2.310000
40
0.080000
41
1.000000
1
1
0
POLYLINE
8
0
66
1
40
0.016000
41
0.016000
0
VERTEX
8
0
10
3.600000
20
2.200000
0
VERTEX
8
0
10
3.800000
20
2.200000
0
SEQEND
8
0
0
TEXT
8
0
10
3.620000
20
2.210000
40
0.080000
41
1.000000
1
2
0
POLYLINE
8
0
66
1
40
0.016000
41
0.016000
0
VERTEX
8
0
10
3.600000
20
2.100000
0
VERTEX
8
0
10
3.800000
20
2.100000
0
SEQEND
8
0
0
TEXT
8
0
10
3.620000
20
2.110000
40
0.080000
41
1.000000
1
3
0
POLYLINE
8
0
66
1
40
0.016000
41
0.016000
0
VERTEX
8
0
10
3.600000
20
2.000000
0
VERTEX
8
0
10
3.800000
20
2.000000
0
SEQEND
8
0
0
TEXT
8
0
10
3.620000
20
2.010000
40
0.080000
41
1.000000
1
4
0
POLYLINE
8
0
66
1
40
0.016000
41
0.016000
0
VERTEX
8
0
10
3.600000
20
1.900000
0
VERTEX
8
0
10
3.800000
20
1.900000
0
SEQEND
8
0
0
TEXT
8
0
10
3.620000
20
1.910000
40
0.080000
41
1.000000
1
5
0
POLYLINE
8
0
66
1
40
0.016000
41
0.016000
0
VERTEX
8
0
10
3.600000
20
1.800000
0
VERTEX
8
0
10
3.800000
20
1.800000
0
SEQEND
8
0
0
TEXT
8
0
10
3.620000
20
1.810000
40
0.080000
41
1.000000
1
6
0
TEXT
8
0
10
3.792000
20
2.423000
40
0.120000
41
0.666667
1
J12
0
TEXT
8
0
10
3.792000
20
1.602000
40
0.080000
41
1.000000
1
CONN-SIL6
0
POLYLINE
8
0
66
1
40
0.016000
41
0.016000
0
VERTEX
8
0
10
3.250000
20
2.400000
0
VERTEX
8
0
10
3.300000
20
2.500000
0
VERTEX
8
0
10
3.350000
20
2.400000
0
VERTEX
8
0
10
3.250000
20
2.400000
0
SEQEND
8
0
0
POLYLINE
8
0
66
1
40
0.016000
41
0.016000
0
VERTEX
8
0
10
3.300000
20
2.300000
0
VERTEX
8
0
10
3.300000
20
2.500000
0
SEQEND
8
0
0
POLYLINE
8
0
66
1
40
0.016000
41
0.016000
0
VERTEX
8
0
10
3.100000
20
2.200000
0
VERTEX
8
0
10
3.100000
20
2.300000
0
SEQEND
8
0
0
POLYLINE
8
0
66
1
40
0.016000
41
0.016000
0
VERTEX
8
0
10
3.200000
20
2.300000
0
VERTEX
8
0
10
3.000000
20
2.300000
0
SEQEND
8
0
0
POLYLINE
8
0
66
1
40
0.016000
41
0.016000
0
VERTEX
8
0
10
3.150000
20
2.350000
0
VERTEX
8
0
10
3.050000
20
2.350000
0
SEQEND
8
0
0
POLYLINE
8
0
66
1
40
0.016000
41
0.016000
0
VERTEX
8
0
10
3.110000
20
2.400000
0
VERTEX
8
0
10
3.090000
20
2.400000
0
SEQEND
8
0
0
POLYLINE
8
0
66
1
40
0.016000
41
0.016000
0
VERTEX
8
0
10
1.800000
20
1.860000
0
VERTEX
8
0
10
2.100000
20
1.860000
0
VERTEX
8
0
10
2.100000
20
1.940000
0
VERTEX
8
0
10
1.800000
20
1.940000
0
VERTEX
8
0
10
1.800000
20
1.860000
0
SEQEND
8
0
0
POLYLINE
8
0
66
1
40
0.016000
41
0.016000
0
VERTEX
8
0
10
1.700000
20
1.900000
0
VERTEX
8
0
10
1.800000
20
1.900000
0
SEQEND
8
0
0
POLYLINE
8
0
66
1
40
0.016000
41
0.016000
0
VERTEX
8
0
10
2.200000
20
1.900000
0
VERTEX
8
0
10
2.100000
20
1.900000
0
SEQEND
8
0
0
TEXT
8
0
10
1.792000
20
1.963000
40
0.120000
41
0.666667
1
R8
0
TEXT
8
0
10
1.792000
20
1.762000
40
0.080000
41
1.000000
1
1k
0
POLYLINE
8
0
66
1
40
0.016000
41
0.016000
0
VERTEX
8
0
10
2.300000
20
1.300000
0
VERTEX
8
0
10
2.300000
20
1.200000
0
SEQEND
8
0
0
POLYLINE
8
0
66
1
40
0.016000
41
0.016000
0
VERTEX
8
0
10
2.200000
20
1.200000
0
VERTEX
8
0
10
2.400000
20
1.200000
0
SEQEND
8
0
0
POLYLINE
8
0
66
1
40
0.016000
41
0.016000
0
VERTEX
8
0
10
2.250000
20
1.150000
0
VERTEX
8
0
10
2.350000
20
1.150000
0
SEQEND
8
0
0
POLYLINE
8
0
66
1
40
0.016000
41
0.016000
0
VERTEX
8
0
10
2.290000
20
1.100000
0
VERTEX
8
0
10
2.310000
20
1.100000
0
SEQEND
8
0
0
POLYLINE
8
0
66
1
40
0.016000
41
0.016000
0
VERTEX
8
0
10
2.260000
20
1.400000
0
VERTEX
8
0
10
2.340000
20
1.400000
0
VERTEX
8
0
10
2.340000
20
1.700000
0
VERTEX
8
0
10
2.260000
20
1.700000
0
VERTEX
8
0
10
2.260000
20
1.400000
0
SEQEND
8
0
0
POLYLINE
8
0
66
1
40
0.016000
41
0.016000
0
VERTEX
8
0
10
2.300000
20
1.800000
0
VERTEX
8
0
10
2.300000
20
1.700000
0
SEQEND
8
0
0
POLYLINE
8
0
66
1
40
0.016000
41
0.016000
0
VERTEX
8
0
10
2.300000
20
1.300000
0
VERTEX
8
0
10
2.300000
20
1.400000
0
SEQEND
8
0
0
TEXT
8
0
10
2.398000
20
1.573000
40
0.120000
41
0.666667
1
R9
0
TEXT
8
0
10
2.398000
20
1.468000
40
0.080000
41
1.000000
1
2k
0
CIRCLE
8
0
10
2.300000
20
1.900000
40
0.020000
0
CIRCLE
8
0
10
-1.300000
20
-1.300000
40
0.020000
0
POLYLINE
8
0
66
1
40
0.016000
41
0.016000
0
VERTEX
8
0
10
-1.850000
20
-0.400000
0
VERTEX
8
0
10
-1.800000
20
-0.300000
0
VERTEX
8
0
10
-1.750000
20
-0.400000
0
VERTEX
8
0
10
-1.850000
20
-0.400000
0
SEQEND
8
0
0
POLYLINE
8
0
66
1
40
0.016000
41
0.016000
0
VERTEX
8
0
10
-1.800000
20
-0.500000
0
VERTEX
8
0
10
-1.800000
20
-0.300000
0
SEQEND
8
0
0
POLYLINE
8
0
66
1
40
0.016000
41
0.016000
0
VERTEX
8
0
10
-2.000000
20
-1.100000
0
VERTEX
8
0
10
-1.600000
20
-1.100000
0
VERTEX
8
0
10
-1.600000
20
-0.700000
0
VERTEX
8
0
10
-2.000000
20
-0.700000
0
VERTEX
8
0
10
-2.000000
20
-1.100000
0
SEQEND
8
0
0
POLYLINE
8
0
66
1
40
0.016000
41
0.016000
0
VERTEX
8
0
10
-1.800000
20
-0.500000
0
VERTEX
8
0
10
-1.800000
20
-0.700000
0
SEQEND
8
0
0
TEXT
8
0
10
-1.920000
20
-0.840000
40
0.080000
41
1.000000
1
VCC
0
TEXT
8
0
10
-1.710000
20
-0.600000
40
0.080000
41
1.000000
50
90.000000
1
1
0
POLYLINE
8
0
66
1
40
0.016000
41
0.016000
0
VERTEX
8
0
10
-1.800000
20
-1.300000
0
VERTEX
8
0
10
-1.800000
20
-1.100000
0
SEQEND
8
0
0
TEXT
8
0
10
-1.920000
20
-1.040000
40
0.080000
41
1.000000
1
GND
0
TEXT
8
0
10
-1.810000
20
-1.280000
40
0.080000
41
1.000000
50
90.000000
1
2
0
POLYLINE
8
0
66
1
40
0.016000
41
0.016000
0
VERTEX
8
0
10
-1.400000
20
-0.900000
0
VERTEX
8
0
10
-1.600000
20
-0.900000
0
SEQEND
8
0
0
TEXT
8
0
10
-1.730000
20
-0.940000
40
0.080000
41
1.000000
1
A
0
TEXT
8
0
10
-1.500000
20
-0.990000
40
0.080000
41
1.000000
1
3
0
TEXT
8
0
10
-1.591996
20
-0.577000
40
0.120000
41
0.666667
1
J13
0
POLYLINE
8
0
66
1
40
0.016000
41
0.016000
0
VERTEX
8
0
10
-1.150000
20
-0.800000
0
VERTEX
8
0
10
-1.200000
20
-0.900000
0
VERTEX
8
0
10
-1.250000
20
-0.800000
0
VERTEX
8
0
10
-1.150000
20
-0.800000
0
SEQEND
8
0
0
POLYLINE
8
0
66
1
40
0.016000
41
0.016000
0
VERTEX
8
0
10
-1.200000
20
-0.700000
0
VERTEX
8
0
10
-1.200000
20
-0.900000
0
SEQEND
8
0
0
POLYLINE
8
0
66
1
40
0.016000
41
0.016000
0
VERTEX
8
0
10
-1.800000
20
-1.300000
0
VERTEX
8
0
10
-1.800000
20
-1.400000
0
SEQEND
8
0
0
POLYLINE
8
0
66
1
40
0.016000
41
0.016000
0
VERTEX
8
0
10
-1.900000
20
-1.400000
0
VERTEX
8
0
10
-1.700000
20
-1.400000
0
SEQEND
8
0
0
POLYLINE
8
0
66
1
40
0.016000
41
0.016000
0
VERTEX
8
0
10
-1.850000
20
-1.450000
0
VERTEX
8
0
10
-1.750000
20
-1.450000
0
SEQEND
8
0
0
POLYLINE
8
0
66
1
40
0.016000
41
0.016000
0
VERTEX
8
0
10
-1.810000
20
-1.500000
0
VERTEX
8
0
10
-1.790000
20
-1.500000
0
SEQEND
8
0
0
CIRCLE
8
0
10
-1.800000
20
-1.300000
40
0.020000
0
CIRCLE
8
0
10
2.630000
20
0.100000
40
0.020000
0
CIRCLE
8
0
10
2.870000
20
0.100000
40
0.020000
0
POLYLINE
8
0
66
1
40
0.016000
41
0.016000
0
VERTEX
8
0
10
2.600000
20
0.100000
0
VERTEX
8
0
10
2.610000
20
0.100000
0
SEQEND
8
0
0
POLYLINE
8
0
66
1
40
0.016000
41
0.016000
0
VERTEX
8
0
10
2.890000
20
0.100000
0
VERTEX
8
0
10
2.900000
20
0.100000
0
SEQEND
8
0
0
POLYLINE
8
0
66
1
40
0.016000
41
0.016000
0
VERTEX
8
0
10
2.650000
20
0.110000
0
VERTEX
8
0
10
2.850000
20
0.220000
0
SEQEND
8
0
0
CIRCLE
8
0
10
2.630000
20
-0.300000
40
0.020000
0
CIRCLE
8
0
10
2.870000
20
-0.300000
40
0.020000
0
POLYLINE
8
0
66
1
40
0.016000
41
0.016000
0
VERTEX
8
0
10
2.600000
20
-0.300000
0
VERTEX
8
0
10
2.610000
20
-0.300000
0
SEQEND
8
0
0
POLYLINE
8
0
66
1
40
0.016000
41
0.016000
0
VERTEX
8
0
10
2.890000
20
-0.300000
0
VERTEX
8
0
10
2.900000
20
-0.300000
0
SEQEND
8
0
0
POLYLINE
8
0
66
1
40
0.016000
41
0.016000
0
VERTEX
8
0
10
2.650000
20
-0.290000
0
VERTEX
8
0
10
2.850000
20
-0.180000
0
SEQEND
8
0
0
POLYLINE
8
0
66
1
40
0.016000
41
0.016000
0
VERTEX
8
0
10
2.750000
20
0.150000
0
VERTEX
8
0
10
2.750000
20
0.100000
0
SEQEND
8
0
0
POLYLINE
8
0
66
1
40
0.016000
41
0.016000
0
VERTEX
8
0
10
2.750000
20
0.050000
0
VERTEX
8
0
10
2.750000
20
0.000000
0
SEQEND
8
0
0
POLYLINE
8
0
66
1
40
0.016000
41
0.016000
0
VERTEX
8
0
10
2.750000
20
-0.050000
0
VERTEX
8
0
10
2.750000
20
-0.100000
0
SEQEND
8
0
0
POLYLINE
8
0
66
1
40
0.016000
41
0.016000
0
VERTEX
8
0
10
2.750000
20
-0.150000
0
VERTEX
8
0
10
2.750000
20
-0.200000
0
SEQEND
8
0
0
POLYLINE
8
0
66
1
40
0.016000
41
0.016000
0
VERTEX
8
0
10
2.500000
20
0.100000
0
VERTEX
8
0
10
2.600000
20
0.100000
0
SEQEND
8
0
0
TEXT
8
0
10
2.420000
20
0.110000
40
0.080000
41
1.000000
1
1
0
POLYLINE
8
0
66
1
40
0.016000
41
0.016000
0
VERTEX
8
0
10
3.000000
20
0.100000
0
VERTEX
8
0
10
2.900000
20
0.100000
0
SEQEND
8
0
0
TEXT
8
0
10
3.000000
20
0.110000
40
0.080000
41
1.000000
1
2
0
POLYLINE
8
0
66
1
40
0.016000
41
0.016000
0
VERTEX
8
0
10
2.500000
20
-0.300000
0
VERTEX
8
0
10
2.600000
20
-0.300000
0
SEQEND
8
0
0
TEXT
8
0
10
2.420000
20
-0.290000
40
0.080000
41
1.000000
1
3
0
POLYLINE
8
0
66
1
40
0.016000
41
0.016000
0
VERTEX
8
0
10
3.000000
20
-0.300000
0
VERTEX
8
0
10
2.900000
20
-0.300000
0
SEQEND
8
0
0
TEXT
8
0
10
3.000000
20
-0.290000
40
0.080000
41
1.000000
1
4
0
CIRCLE
8
0
10
2.950000
20
-0.200000
40
0.040000
0
POLYLINE
8
0
66
1
40
0.008000
41
0.008000
0
VERTEX
8
0
10
2.950000
20
-0.220000
0
VERTEX
8
0
10
2.940000
20
-0.210000
0
SEQEND
8
0
0
POLYLINE
8
0
66
1
40
0.008000
41
0.008000
0
VERTEX
8
0
10
2.950000
20
-0.220000
0
VERTEX
8
0
10
2.960000
20
-0.210000
0
SEQEND
8
0
0
POLYLINE
8
0
66
1
40
0.008000
41
0.008000
0
VERTEX
8
0
10
2.950000
20
-0.220000
0
VERTEX
8
0
10
2.950000
20
-0.180000
0
SEQEND
8
0
0
CIRCLE
8
0
10
2.950000
20
0.000000
40
0.040000
0
POLYLINE
8
0
66
1
40
0.008000
41
0.008000
0
VERTEX
8
0
10
2.950000
20
0.020000
0
VERTEX
8
0
10
2.940000
20
0.010000
0
SEQEND
8
0
0
POLYLINE
8
0
66
1
40
0.008000
41
0.008000
0
VERTEX
8
0
10
2.950000
20
0.020000
0
VERTEX
8
0
10
2.960000
20
0.010000
0
SEQEND
8
0
0
POLYLINE
8
0
66
1
40
0.008000
41
0.008000
0
VERTEX
8
0
10
2.950000
20
0.020000
0
VERTEX
8
0
10
2.950000
20
-0.020000
0
SEQEND
8
0
0
TEXT
8
0
10
2.592000
20
0.243000
40
0.120000
41
0.666667
1
SW2
0
TEXT
8
0
10
2.592000
20
-0.418000
40
0.080000
41
1.000000
1
SW-DPST
0
CIRCLE
8
0
10
2.100000
20
0.100000
40
0.020000
0
CIRCLE
8
0
10
2.630000
20
-0.900000
40
0.020000
0
CIRCLE
8
0
10
2.870000
20
-0.900000
40
0.020000
0
POLYLINE
8
0
66
1
40
0.016000
41
0.016000
0
VERTEX
8
0
10
2.600000
20
-0.900000
0
VERTEX
8
0
10
2.610000
20
-0.900000
0
SEQEND
8
0
0
POLYLINE
8
0
66
1
40
0.016000
41
0.016000
0
VERTEX
8
0
10
2.890000
20
-0.900000
0
VERTEX
8
0
10
2.900000
20
-0.900000
0
SEQEND
8
0
0
POLYLINE
8
0
66
1
40
0.016000
41
0.016000
0
VERTEX
8
0
10
2.650000
20
-0.890000
0
VERTEX
8
0
10
2.850000
20
-0.780000
0
SEQEND
8
0
0
CIRCLE
8
0
10
2.630000
20
-1.300000
40
0.020000
0
CIRCLE
8
0
10
2.870000
20
-1.300000
40
0.020000
0
POLYLINE
8
0
66
1
40
0.016000
41
0.016000
0
VERTEX
8
0
10
2.600000
20
-1.300000
0
VERTEX
8
0
10
2.610000
20
-1.300000
0
SEQEND
8
0
0
POLYLINE
8
0
66
1
40
0.016000
41
0.016000
0
VERTEX
8
0
10
2.890000
20
-1.300000
0
VERTEX
8
0
10
2.900000
20
-1.300000
0
SEQEND
8
0
0
POLYLINE
8
0
66
1
40
0.016000
41
0.016000
0
VERTEX
8
0
10
2.650000
20
-1.290000
0
VERTEX
8
0
10
2.850000
20
-1.180000
0
SEQEND
8
0
0
POLYLINE
8
0
66
1
40
0.016000
41
0.016000
0
VERTEX
8
0
10
2.750000
20
-0.850000
0
VERTEX
8
0
10
2.750000
20
-0.900000
0
SEQEND
8
0
0
POLYLINE
8
0
66
1
40
0.016000
41
0.016000
0
VERTEX
8
0
10
2.750000
20
-0.950000
0
VERTEX
8
0
10
2.750000
20
-1.000000
0
SEQEND
8
0
0
POLYLINE
8
0
66
1
40
0.016000
41
0.016000
0
VERTEX
8
0
10
2.750000
20
-1.050000
0
VERTEX
8
0
10
2.750000
20
-1.100000
0
SEQEND
8
0
0
POLYLINE
8
0
66
1
40
0.016000
41
0.016000
0
VERTEX
8
0
10
2.750000
20
-1.150000
0
VERTEX
8
0
10
2.750000
20
-1.200000
0
SEQEND
8
0
0
POLYLINE
8
0
66
1
40
0.016000
41
0.016000
0
VERTEX
8
0
10
2.500000
20
-0.900000
0
VERTEX
8
0
10
2.600000
20
-0.900000
0
SEQEND
8
0
0
TEXT
8
0
10
2.420000
20
-0.890000
40
0.080000
41
1.000000
1
1
0
POLYLINE
8
0
66
1
40
0.016000
41
0.016000
0
VERTEX
8
0
10
3.000000
20
-0.900000
0
VERTEX
8
0
10
2.900000
20
-0.900000
0
SEQEND
8
0
0
TEXT
8
0
10
3.000000
20
-0.890000
40
0.080000
41
1.000000
1
2
0
POLYLINE
8
0
66
1
40
0.016000
41
0.016000
0
VERTEX
8
0
10
2.500000
20
-1.300000
0
VERTEX
8
0
10
2.600000
20
-1.300000
0
SEQEND
8
0
0
TEXT
8
0
10
2.420000
20
-1.290000
40
0.080000
41
1.000000
1
3
0
POLYLINE
8
0
66
1
40
0.016000
41
0.016000
0
VERTEX
8
0
10
3.000000
20
-1.300000
0
VERTEX
8
0
10
2.900000
20
-1.300000
0
SEQEND
8
0
0
TEXT
8
0
10
3.000000
20
-1.290000
40
0.080000
41
1.000000
1
4
0
CIRCLE
8
0
10
2.950000
20
-1.200000
40
0.040000
0
POLYLINE
8
0
66
1
40
0.008000
41
0.008000
0
VERTEX
8
0
10
2.950000
20
-1.220000
0
VERTEX
8
0
10
2.940000
20
-1.210000
0
SEQEND
8
0
0
POLYLINE
8
0
66
1
40
0.008000
41
0.008000
0
VERTEX
8
0
10
2.950000
20
-1.220000
0
VERTEX
8
0
10
2.960000
20
-1.210000
0
SEQEND
8
0
0
POLYLINE
8
0
66
1
40
0.008000
41
0.008000
0
VERTEX
8
0
10
2.950000
20
-1.220000
0
VERTEX
8
0
10
2.950000
20
-1.180000
0
SEQEND
8
0
0
CIRCLE
8
0
10
2.950000
20
-1.000000
40
0.040000
0
POLYLINE
8
0
66
1
40
0.008000
41
0.008000
0
VERTEX
8
0
10
2.950000
20
-0.980000
0
VERTEX
8
0
10
2.940000
20
-0.990000
0
SEQEND
8
0
0
POLYLINE
8
0
66
1
40
0.008000
41
0.008000
0
VERTEX
8
0
10
2.950000
20
-0.980000
0
VERTEX
8
0
10
2.960000
20
-0.990000
0
SEQEND
8
0
0
POLYLINE
8
0
66
1
40
0.008000
41
0.008000
0
VERTEX
8
0
10
2.950000
20
-0.980000
0
VERTEX
8
0
10
2.950000
20
-1.020000
0
SEQEND
8
0
0
TEXT
8
0
10
2.592000
20
-0.757000
40
0.120000
41
0.666667
1
SW3
0
TEXT
8
0
10
2.592000
20
-1.418000
40
0.080000
41
1.000000
1
SW-DPST
0
CIRCLE
8
0
10
2.100000
20
-0.900000
40
0.020000
0
CIRCLE
8
0
10
2.630000
20
-1.900000
40
0.020000
0
CIRCLE
8
0
10
2.870000
20
-1.900000
40
0.020000
0
POLYLINE
8
0
66
1
40
0.016000
41
0.016000
0
VERTEX
8
0
10
2.600000
20
-1.900000
0
VERTEX
8
0
10
2.610000
20
-1.900000
0
SEQEND
8
0
0
POLYLINE
8
0
66
1
40
0.016000
41
0.016000
0
VERTEX
8
0
10
2.890000
20
-1.900000
0
VERTEX
8
0
10
2.900000
20
-1.900000
0
SEQEND
8
0
0
POLYLINE
8
0
66
1
40
0.016000
41
0.016000
0
VERTEX
8
0
10
2.650000
20
-1.890000
0
VERTEX
8
0
10
2.850000
20
-1.780000
0
SEQEND
8
0
0
CIRCLE
8
0
10
2.630000
20
-2.300000
40
0.020000
0
CIRCLE
8
0
10
2.870000
20
-2.300000
40
0.020000
0
POLYLINE
8
0
66
1
40
0.016000
41
0.016000
0
VERTEX
8
0
10
2.600000
20
-2.300000
0
VERTEX
8
0
10
2.610000
20
-2.300000
0
SEQEND
8
0
0
POLYLINE
8
0
66
1
40
0.016000
41
0.016000
0
VERTEX
8
0
10
2.890000
20
-2.300000
0
VERTEX
8
0
10
2.900000
20
-2.300000
0
SEQEND
8
0
0
POLYLINE
8
0
66
1
40
0.016000
41
0.016000
0
VERTEX
8
0
10
2.650000
20
-2.290000
0
VERTEX
8
0
10
2.850000
20
-2.180000
0
SEQEND
8
0
0
POLYLINE
8
0
66
1
40
0.016000
41
0.016000
0
VERTEX
8
0
10
2.750000
20
-1.850000
0
VERTEX
8
0
10
2.750000
20
-1.900000
0
SEQEND
8
0
0
POLYLINE
8
0
66
1
40
0.016000
41
0.016000
0
VERTEX
8
0
10
2.750000
20
-1.950000
0
VERTEX
8
0
10
2.750000
20
-2.000000
0
SEQEND
8
0
0
POLYLINE
8
0
66
1
40
0.016000
41
0.016000
0
VERTEX
8
0
10
2.750000
20
-2.050000
0
VERTEX
8
0
10
2.750000
20
-2.100000
0
SEQEND
8
0
0
POLYLINE
8
0
66
1
40
0.016000
41
0.016000
0
VERTEX
8
0
10
2.750000
20
-2.150000
0
VERTEX
8
0
10
2.750000
20
-2.200000
0
SEQEND
8
0
0
POLYLINE
8
0
66
1
40
0.016000
41
0.016000
0
VERTEX
8
0
10
2.500000
20
-1.900000
0
VERTEX
8
0
10
2.600000
20
-1.900000
0
SEQEND
8
0
0
TEXT
8
0
10
2.420000
20
-1.890000
40
0.080000
41
1.000000
1
1
0
POLYLINE
8
0
66
1
40
0.016000
41
0.016000
0
VERTEX
8
0
10
3.000000
20
-1.900000
0
VERTEX
8
0
10
2.900000
20
-1.900000
0
SEQEND
8
0
0
TEXT
8
0
10
3.000000
20
-1.890000
40
0.080000
41
1.000000
1
2
0
POLYLINE
8
0
66
1
40
0.016000
41
0.016000
0
VERTEX
8
0
10
2.500000
20
-2.300000
0
VERTEX
8
0
10
2.600000
20
-2.300000
0
SEQEND
8
0
0
TEXT
8
0
10
2.420000
20
-2.290000
40
0.080000
41
1.000000
1
3
0
POLYLINE
8
0
66
1
40
0.016000
41
0.016000
0
VERTEX
8
0
10
3.000000
20
-2.300000
0
VERTEX
8
0
10
2.900000
20
-2.300000
0
SEQEND
8
0
0
TEXT
8
0
10
3.000000
20
-2.290000
40
0.080000
41
1.000000
1
4
0
CIRCLE
8
0
10
2.950000
20
-2.200000
40
0.040000
0
POLYLINE
8
0
66
1
40
0.008000
41
0.008000
0
VERTEX
8
0
10
2.950000
20
-2.220000
0
VERTEX
8
0
10
2.940000
20
-2.210000
0
SEQEND
8
0
0
POLYLINE
8
0
66
1
40
0.008000
41
0.008000
0
VERTEX
8
0
10
2.950000
20
-2.220000
0
VERTEX
8
0
10
2.960000
20
-2.210000
0
SEQEND
8
0
0
POLYLINE
8
0
66
1
40
0.008000
41
0.008000
0
VERTEX
8
0
10
2.950000
20
-2.220000
0
VERTEX
8
0
10
2.950000
20
-2.180000
0
SEQEND
8
0
0
CIRCLE
8
0
10
2.950000
20
-2.000000
40
0.040000
0
POLYLINE
8
0
66
1
40
0.008000
41
0.008000
0
VERTEX
8
0
10
2.950000
20
-1.980000
0
VERTEX
8
0
10
2.940000
20
-1.990000
0
SEQEND
8
0
0
POLYLINE
8
0
66
1
40
0.008000
41
0.008000
0
VERTEX
8
0
10
2.950000
20
-1.980000
0
VERTEX
8
0
10
2.960000
20
-1.990000
0
SEQEND
8
0
0
POLYLINE
8
0
66
1
40
0.008000
41
0.008000
0
VERTEX
8
0
10
2.950000
20
-1.980000
0
VERTEX
8
0
10
2.950000
20
-2.020000
0
SEQEND
8
0
0
TEXT
8
0
10
2.592000
20
-1.757000
40
0.120000
41
0.666667
1
SW4
0
TEXT
8
0
10
2.592000
20
-2.418000
40
0.080000
41
1.000000
1
SW-DPST
0
CIRCLE
8
0
10
2.100000
20
-1.900000
40
0.020000
0
CIRCLE
8
0
10
-2.400000
20
-2.300000
40
0.020000
0
CIRCLE
8
0
10
-2.400000
20
-2.400000
40
0.020000
0
CIRCLE
8
0
10
2.300000
20
0.100000
40
0.020000
0
CIRCLE
8
0
10
2.300000
20
-0.900000
40
0.020000
0
CIRCLE
8
0
10
2.300000
20
-1.900000
40
0.020000
0
POLYLINE
8
0
66
1
40
0.016000
41
0.016000
0
VERTEX
8
0
10
-1.600000
20
2.700000
0
VERTEX
8
0
10
-1.400000
20
2.700000
0
VERTEX
8
0
10
-1.400000
20
3.000000
0
VERTEX
8
0
10
-1.600000
20
3.000000
0
VERTEX
8
0
10
-1.600000
20
2.700000
0
SEQEND
8
0
0
POLYLINE
8
0
66
1
40
0.016000
41
0.016000
0
VERTEX
8
0
10
-1.530000
20
2.900000
0
VERTEX
8
0
10
-1.600000
20
2.900000
0
SEQEND
8
0
0
CIRCLE
8
0
10
-1.500000
20
2.900000
40
0.030000
0
POLYLINE
8
0
66
1
40
0.016000
41
0.016000
0
VERTEX
8
0
10
-1.530000
20
2.800000
0
VERTEX
8
0
10
-1.600000
20
2.800000
0
SEQEND
8
0
0
CIRCLE
8
0
10
-1.500000
20
2.800000
40
0.030000
0
POLYLINE
8
0
66
1
40
0.016000
41
0.016000
0
VERTEX
8
0
10
-1.800000
20
2.900000
0
VERTEX
8
0
10
-1.600000
20
2.900000
0
SEQEND
8
0
0
TEXT
8
0
10
-1.780000
20
2.910000
40
0.080000
41
1.000000
1
1
0
POLYLINE
8
0
66
1
40
0.016000
41
0.016000
0
VERTEX
8
0
10
-1.800000
20
2.800000
0
VERTEX
8
0
10
-1.600000
20
2.800000
0
SEQEND
8
0
0
TEXT
8
0
10
-1.780000
20
2.810000
40
0.080000
41
1.000000
1
2
0
TEXT
8
0
10
-1.608000
20
3.023000
40
0.120000
41
0.666667
1
J14
0
TEXT
8
0
10
-1.608000
20
2.602000
40
0.080000
41
1.000000
1
CONN-SIL2
0
POLYLINE
8
0
66
1
40
0.016000
41
0.016000
0
VERTEX
8
0
10
-1.900000
20
2.700000
0
VERTEX
8
0
10
-1.900000
20
2.600000
0
SEQEND
8
0
0
POLYLINE
8
0
66
1
40
0.016000
41
0.016000
0
VERTEX
8
0
10
-2.000000
20
2.600000
0
VERTEX
8
0
10
-1.800000
20
2.600000
0
SEQEND
8
0
0
POLYLINE
8
0
66
1
40
0.016000
41
0.016000
0
VERTEX
8
0
10
-1.950000
20
2.550000
0
VERTEX
8
0
10
-1.850000
20
2.550000
0
SEQEND
8
0
0
POLYLINE
8
0
66
1
40
0.016000
41
0.016000
0
VERTEX
8
0
10
-1.910000
20
2.500000
0
VERTEX
8
0
10
-1.890000
20
2.500000
0
SEQEND
8
0
0
POLYLINE
8
0
66
1
40
0.016000
41
0.016000
0
VERTEX
8
0
10
-1.950000
20
3.000000
0
VERTEX
8
0
10
-1.900000
20
3.100000
0
VERTEX
8
0
10
-1.850000
20
3.000000
0
VERTEX
8
0
10
-1.950000
20
3.000000
0
SEQEND
8
0
0
POLYLINE
8
0
66
1
40
0.016000
41
0.016000
0
VERTEX
8
0
10
-1.900000
20
2.900000
0
VERTEX
8
0
10
-1.900000
20
3.100000
0
SEQEND
8
0
0
ENDSEC
0
EOF

