  0
SECTION
  2
HEADER
  9
$ACADVER
  1
AC1009
  9
$INSUNITS
 70
     1
  0
ENDSEC
  0
SECTION
  2
TABLES
  0
TABLE
  2
LAYER
 70
     8
  0
LAYER
  2
0
 62
     7
 70
0
  6
CONTINUOUS
  0
LAYER
  2
1
 62
     1
 70
0
  6
CONTINUOUS
  0
LAYER
  2
2
 62
     2
 70
0
  6
CONTINUOUS
  0
LAYER
  2
3
 62
     3
 70
0
  6
CONTINUOUS
  0
LAYER
  2
4
 62
     4
 70
0
  6
CONTINUOUS
  0
LAYER
  2
5
 62
     5
 70
0
  6
CONTINUOUS
  0
LAYER
  2
6
 62
     6
 70
0
  6
CONTINUOUS
  0
LAYER
  2
7
 62
     7
 70
0
  6
CONTINUOUS
  0
ENDTAB
  0
TABLE
  2
STYLE
 70
     1
  0
STYLE
 70
     0
  2
STANDARD
  3
TXT
 40
0.00
 41
1.00
 42
1.00
 50
0.00
 71
     0
  0
ENDTAB
  0
ENDSEC
  0
SECTION
  2
BLOCKS
  0
BLOCK
  8
0
  2
EPAD
 70
0
 10
0.0
 20
0.0
  0
POLYLINE
  8
0
 66
1
 70
1
 40
0.5
 41
0.5
  0
VERTEX
  8
0
 10
-0.25
 20
0.0
 42
1.0
  0
VERTEX
  8
0
 10
0.25
 20
0.0
 42
1.0
  0
SEQEND
  8
0
  0
ENDBLK
  8
0
  0
BLOCK
  8
0
  2
RPAD
 70
0
 10
0.0
 20
0.0
  0
TRACE
  8
0
 10
-0.5
 20
-0.5
 11
-0.5
 21
0.5
 12
0.5
 22
-0.5
 13
0.5
 23
0.5
  0
ENDBLK
  8
0
  0
ENDSEC
0
SECTION
2
ENTITIES
0
POLYLINE
8
0
66
1
40
0.060000
41
0.060000
0
VERTEX
8
0
10
-3.900000
20
1.000000
0
VERTEX
8
0
10
-3.400000
20
1.000000
0
SEQEND
8
0
0
POLYLINE
8
0
66
1
40
0.060000
41
0.060000
0
VERTEX
8
0
10
-3.400000
20
1.300000
0
VERTEX
8
0
10
-3.900000
20
1.300000
0
SEQEND
8
0
0
POLYLINE
8
0
66
1
40
0.060000
41
0.060000
0
VERTEX
8
0
10
1.600000
20
-0.600000
0
VERTEX
8
0
10
1.000000
20
-0.600000
0
SEQEND
8
0
0
POLYLINE
8
0
66
1
40
0.060000
41
0.060000
0
VERTEX
8
0
10
0.800000
20
-0.600000
0
VERTEX
8
0
10
1.000000
20
-0.600000
0
SEQEND
8
0
0
POLYLINE
8
0
66
1
40
0.060000
41
0.060000
0
VERTEX
8
0
10
1.700000
20
-0.600000
0
VERTEX
8
0
10
1.600000
20
-0.600000
0
SEQEND
8
0
0
POLYLINE
8
0
66
1
40
0.060000
41
0.060000
0
VERTEX
8
0
10
1.800000
20
-0.600000
0
VERTEX
8
0
10
1.700000
20
-0.600000
0
SEQEND
8
0
0
POLYLINE
8
0
66
1
40
0.060000
41
0.060000
0
VERTEX
8
0
10
1.900000
20
-0.600000
0
VERTEX
8
0
10
1.800000
20
-0.600000
0
SEQEND
8
0
0
POLYLINE
8
0
66
1
40
0.060000
41
0.060000
0
VERTEX
8
0
10
0.000000
20
-2.600000
0
VERTEX
8
0
10
0.000000
20
-2.500000
0
SEQEND
8
0
0
POLYLINE
8
0
66
1
40
0.060000
41
0.060000
0
VERTEX
8
0
10
0.000000
20
-2.400000
0
VERTEX
8
0
10
0.000000
20
-2.500000
0
SEQEND
8
0
0
POLYLINE
8
0
66
1
40
0.060000
41
0.060000
0
VERTEX
8
0
10
0.000000
20
-2.300000
0
VERTEX
8
0
10
0.000000
20
-2.400000
0
SEQEND
8
0
0
POLYLINE
8
0
66
1
40
0.060000
41
0.060000
0
VERTEX
8
0
10
0.000000
20
-2.200000
0
VERTEX
8
0
10
0.000000
20
-2.300000
0
SEQEND
8
0
0
POLYLINE
8
0
66
1
40
0.060000
41
0.060000
0
VERTEX
8
0
10
0.000000
20
-2.100000
0
VERTEX
8
0
10
0.000000
20
-2.200000
0
SEQEND
8
0
0
POLYLINE
8
0
66
1
40
0.060000
41
0.060000
0
VERTEX
8
0
10
0.000000
20
-2.000000
0
VERTEX
8
0
10
0.000000
20
-2.100000
0
SEQEND
8
0
0
POLYLINE
8
0
66
1
40
0.060000
41
0.060000
0
VERTEX
8
0
10
0.000000
20
-1.900000
0
VERTEX
8
0
10
0.000000
20
-2.000000
0
SEQEND
8
0
0
POLYLINE
8
0
66
1
40
0.060000
41
0.060000
0
VERTEX
8
0
10
0.000000
20
-1.300000
0
VERTEX
8
0
10
0.000000
20
-1.400000
0
SEQEND
8
0
0
POLYLINE
8
0
66
1
40
0.060000
41
0.060000
0
VERTEX
8
0
10
0.000000
20
-1.300000
0
VERTEX
8
0
10
0.000000
20
-1.200000
0
SEQEND
8
0
0
POLYLINE
8
0
66
1
40
0.060000
41
0.060000
0
VERTEX
8
0
10
0.000000
20
-1.100000
0
VERTEX
8
0
10
0.000000
20
-1.200000
0
SEQEND
8
0
0
POLYLINE
8
0
66
1
40
0.060000
41
0.060000
0
VERTEX
8
0
10
0.000000
20
-1.000000
0
VERTEX
8
0
10
0.000000
20
-1.100000
0
SEQEND
8
0
0
POLYLINE
8
0
66
1
40
0.016000
41
0.016000
0
VERTEX
8
0
10
0.600000
20
0.200000
0
VERTEX
8
0
10
0.600000
20
-0.100000
0
VERTEX
8
0
10
0.200000
20
-0.100000
0
SEQEND
8
0
0
POLYLINE
8
0
66
1
40
0.016000
41
0.016000
0
VERTEX
8
0
10
0.000000
20
0.200000
0
VERTEX
8
0
10
0.000000
20
0.200000
0
SEQEND
8
0
0
POLYLINE
8
0
66
1
40
0.016000
41
0.016000
0
VERTEX
8
0
10
0.500000
20
0.200000
0
VERTEX
8
0
10
0.000000
20
0.200000
0
VERTEX
8
0
10
0.000000
20
0.200000
0
SEQEND
8
0
0
POLYLINE
8
0
66
1
40
0.016000
41
0.016000
0
VERTEX
8
0
10
0.000000
20
-0.400000
0
VERTEX
8
0
10
0.000000
20
-0.400000
0
VERTEX
8
0
10
0.000000
20
-0.400000
0
SEQEND
8
0
0
POLYLINE
8
0
66
1
40
0.016000
41
0.016000
0
VERTEX
8
0
10
0.400000
20
0.200000
0
VERTEX
8
0
10
0.400000
20
-0.400000
0
SEQEND
8
0
0
POLYLINE
8
0
66
1
40
0.016000
41
0.016000
0
VERTEX
8
0
10
0.000000
20
-0.400000
0
VERTEX
8
0
10
0.400000
20
-0.400000
0
SEQEND
8
0
0
POLYLINE
8
0
66
1
40
0.016000
41
0.016000
0
VERTEX
8
0
10
1.500000
20
0.200000
0
VERTEX
8
0
10
1.500000
20
-0.400000
0
VERTEX
8
0
10
1.400000
20
-0.400000
0
SEQEND
8
0
0
POLYLINE
8
0
66
1
40
0.016000
41
0.016000
0
VERTEX
8
0
10
1.400000
20
0.200000
0
VERTEX
8
0
10
1.400000
20
-0.400000
0
VERTEX
8
0
10
1.300000
20
-0.400000
0
SEQEND
8
0
0
POLYLINE
8
0
66
1
40
0.016000
41
0.016000
0
VERTEX
8
0
10
1.300000
20
0.200000
0
VERTEX
8
0
10
1.300000
20
-0.400000
0
VERTEX
8
0
10
1.200000
20
-0.400000
0
SEQEND
8
0
0
POLYLINE
8
0
66
1
40
0.016000
41
0.016000
0
VERTEX
8
0
10
1.200000
20
0.200000
0
VERTEX
8
0
10
1.200000
20
-0.400000
0
SEQEND
8
0
0
POLYLINE
8
0
66
1
40
0.016000
41
0.016000
0
VERTEX
8
0
10
0.400000
20
-0.400000
0
VERTEX
8
0
10
0.900000
20
-0.400000
0
SEQEND
8
0
0
POLYLINE
8
0
66
1
40
0.016000
41
0.016000
0
VERTEX
8
0
10
1.200000
20
-0.400000
0
VERTEX
8
0
10
0.900000
20
-0.400000
0
SEQEND
8
0
0
POLYLINE
8
0
66
1
40
0.016000
41
0.016000
0
VERTEX
8
0
10
0.900000
20
0.200000
0
VERTEX
8
0
10
0.900000
20
-0.400000
0
SEQEND
8
0
0
POLYLINE
8
0
66
1
40
0.016000
41
0.016000
0
VERTEX
8
0
10
-2.400000
20
-0.400000
0
VERTEX
8
0
10
-2.700000
20
-0.400000
0
SEQEND
8
0
0
POLYLINE
8
0
66
1
40
0.016000
41
0.016000
0
VERTEX
8
0
10
-3.100000
20
-0.800000
0
VERTEX
8
0
10
-3.100000
20
-0.800000
0
SEQEND
8
0
0
POLYLINE
8
0
66
1
40
0.016000
41
0.016000
0
VERTEX
8
0
10
-3.100000
20
0.300000
0
VERTEX
8
0
10
-3.100000
20
0.300000
0
SEQEND
8
0
0
POLYLINE
8
0
66
1
40
0.016000
41
0.016000
0
VERTEX
8
0
10
3.150000
20
-0.800000
0
VERTEX
8
0
10
3.300000
20
-0.900000
0
SEQEND
8
0
0
POLYLINE
8
0
66
1
40
0.016000
41
0.016000
0
VERTEX
8
0
10
2.500000
20
-0.200000
0
VERTEX
8
0
10
2.500000
20
-0.200000
0
SEQEND
8
0
0
POLYLINE
8
0
66
1
40
0.016000
41
0.016000
0
VERTEX
8
0
10
2.500000
20
-0.700000
0
VERTEX
8
0
10
2.500000
20
-0.800000
0
SEQEND
8
0
0
POLYLINE
8
0
66
1
40
0.016000
41
0.016000
0
VERTEX
8
0
10
2.650000
20
-0.800000
0
VERTEX
8
0
10
2.500000
20
-0.800000
0
VERTEX
8
0
10
2.100000
20
-0.800000
0
SEQEND
8
0
0
TEXT
8
0
10
2.200000
20
-0.782000
40
0.080000
41
1.000000
1
BTN0
0
POLYLINE
8
0
66
1
40
0.016000
41
0.016000
0
VERTEX
8
0
10
3.150000
20
-1.700000
0
VERTEX
8
0
10
3.300000
20
-1.800000
0
SEQEND
8
0
0
POLYLINE
8
0
66
1
40
0.016000
41
0.016000
0
VERTEX
8
0
10
2.500000
20
-1.100000
0
VERTEX
8
0
10
2.500000
20
-1.100000
0
SEQEND
8
0
0
POLYLINE
8
0
66
1
40
0.016000
41
0.016000
0
VERTEX
8
0
10
2.500000
20
-1.600000
0
VERTEX
8
0
10
2.500000
20
-1.700000
0
SEQEND
8
0
0
POLYLINE
8
0
66
1
40
0.016000
41
0.016000
0
VERTEX
8
0
10
2.650000
20
-1.700000
0
VERTEX
8
0
10
2.500000
20
-1.700000
0
VERTEX
8
0
10
2.100000
20
-1.700000
0
SEQEND
8
0
0
TEXT
8
0
10
2.200000
20
-1.682000
40
0.080000
41
1.000000
1
BTN1
0
POLYLINE
8
0
66
1
40
0.016000
41
0.016000
0
VERTEX
8
0
10
3.150000
20
-2.600000
0
VERTEX
8
0
10
3.300000
20
-2.700000
0
SEQEND
8
0
0
POLYLINE
8
0
66
1
40
0.016000
41
0.016000
0
VERTEX
8
0
10
2.500000
20
-2.000000
0
VERTEX
8
0
10
2.500000
20
-2.000000
0
SEQEND
8
0
0
POLYLINE
8
0
66
1
40
0.016000
41
0.016000
0
VERTEX
8
0
10
2.500000
20
-2.500000
0
VERTEX
8
0
10
2.500000
20
-2.600000
0
SEQEND
8
0
0
POLYLINE
8
0
66
1
40
0.016000
41
0.016000
0
VERTEX
8
0
10
2.650000
20
-2.600000
0
VERTEX
8
0
10
2.500000
20
-2.600000
0
VERTEX
8
0
10
2.100000
20
-2.600000
0
SEQEND
8
0
0
TEXT
8
0
10
2.200000
20
-2.582000
40
0.080000
41
1.000000
1
BTN2
0
POLYLINE
8
0
66
1
40
0.016000
41
0.016000
0
VERTEX
8
0
10
-0.500000
20
-1.000000
0
VERTEX
8
0
10
0.000000
20
-1.000000
0
SEQEND
8
0
0
TEXT
8
0
10
-0.300000
20
-0.982000
40
0.080000
41
1.000000
1
BTN0
0
POLYLINE
8
0
66
1
40
0.016000
41
0.016000
0
VERTEX
8
0
10
-0.500000
20
-1.300000
0
VERTEX
8
0
10
0.000000
20
-1.300000
0
SEQEND
8
0
0
POLYLINE
8
0
66
1
40
0.016000
41
0.016000
0
VERTEX
8
0
10
-0.500000
20
-1.100000
0
VERTEX
8
0
10
0.000000
20
-1.100000
0
SEQEND
8
0
0
TEXT
8
0
10
-0.300000
20
-1.082000
40
0.080000
41
1.000000
1
BTN1
0
POLYLINE
8
0
66
1
40
0.016000
41
0.016000
0
VERTEX
8
0
10
-0.500000
20
-1.200000
0
VERTEX
8
0
10
0.000000
20
-1.200000
0
SEQEND
8
0
0
TEXT
8
0
10
-0.300000
20
-1.182000
40
0.080000
41
1.000000
1
BTN2
0
POLYLINE
8
0
66
1
40
0.016000
41
0.016000
0
VERTEX
8
0
10
-0.500000
20
-1.400000
0
VERTEX
8
0
10
0.000000
20
-1.400000
0
SEQEND
8
0
0
POLYLINE
8
0
66
1
40
0.016000
41
0.016000
0
VERTEX
8
0
10
-0.500000
20
-1.900000
0
VERTEX
8
0
10
0.000000
20
-1.900000
0
SEQEND
8
0
0
TEXT
8
0
10
-0.200000
20
-1.882000
40
0.080000
41
1.000000
1
PD0
0
POLYLINE
8
0
66
1
40
0.016000
41
0.016000
0
VERTEX
8
0
10
-0.500000
20
-2.600000
0
VERTEX
8
0
10
0.000000
20
-2.600000
0
SEQEND
8
0
0
TEXT
8
0
10
-0.200000
20
-2.582000
40
0.080000
41
1.000000
1
PD7
0
POLYLINE
8
0
66
1
40
0.016000
41
0.016000
0
VERTEX
8
0
10
-0.500000
20
-2.000000
0
VERTEX
8
0
10
0.000000
20
-2.000000
0
SEQEND
8
0
0
TEXT
8
0
10
-0.200000
20
-1.982000
40
0.080000
41
1.000000
1
PD1
0
POLYLINE
8
0
66
1
40
0.016000
41
0.016000
0
VERTEX
8
0
10
-0.500000
20
-2.100000
0
VERTEX
8
0
10
0.000000
20
-2.100000
0
SEQEND
8
0
0
TEXT
8
0
10
-0.200000
20
-2.082000
40
0.080000
41
1.000000
1
PD2
0
POLYLINE
8
0
66
1
40
0.016000
41
0.016000
0
VERTEX
8
0
10
-0.500000
20
-2.200000
0
VERTEX
8
0
10
0.000000
20
-2.200000
0
SEQEND
8
0
0
TEXT
8
0
10
-0.200000
20
-2.182000
40
0.080000
41
1.000000
1
PD3
0
POLYLINE
8
0
66
1
40
0.016000
41
0.016000
0
VERTEX
8
0
10
-0.500000
20
-2.300000
0
VERTEX
8
0
10
0.000000
20
-2.300000
0
SEQEND
8
0
0
TEXT
8
0
10
-0.200000
20
-2.282000
40
0.080000
41
1.000000
1
PD4
0
POLYLINE
8
0
66
1
40
0.016000
41
0.016000
0
VERTEX
8
0
10
-0.500000
20
-2.400000
0
VERTEX
8
0
10
0.000000
20
-2.400000
0
SEQEND
8
0
0
TEXT
8
0
10
-0.200000
20
-2.382000
40
0.080000
41
1.000000
1
PD5
0
POLYLINE
8
0
66
1
40
0.016000
41
0.016000
0
VERTEX
8
0
10
-0.500000
20
-2.500000
0
VERTEX
8
0
10
0.000000
20
-2.500000
0
SEQEND
8
0
0
TEXT
8
0
10
-0.200000
20
-2.482000
40
0.080000
41
1.000000
1
PD6
0
POLYLINE
8
0
66
1
40
0.016000
41
0.016000
0
VERTEX
8
0
10
0.800000
20
0.200000
0
VERTEX
8
0
10
0.800000
20
-0.600000
0
SEQEND
8
0
0
TEXT
8
0
10
0.782000
20
-0.500000
40
0.080000
41
1.000000
50
90.000000
1
PD0
0
POLYLINE
8
0
66
1
40
0.016000
41
0.016000
0
VERTEX
8
0
10
1.900000
20
0.200000
0
VERTEX
8
0
10
1.900000
20
-0.600000
0
SEQEND
8
0
0
TEXT
8
0
10
1.882000
20
-0.500000
40
0.080000
41
1.000000
50
90.000000
1
PD5
0
POLYLINE
8
0
66
1
40
0.016000
41
0.016000
0
VERTEX
8
0
10
1.800000
20
0.200000
0
VERTEX
8
0
10
1.800000
20
-0.600000
0
SEQEND
8
0
0
TEXT
8
0
10
1.782000
20
-0.500000
40
0.080000
41
1.000000
50
90.000000
1
PD4
0
POLYLINE
8
0
66
1
40
0.016000
41
0.016000
0
VERTEX
8
0
10
1.700000
20
0.200000
0
VERTEX
8
0
10
1.700000
20
-0.600000
0
SEQEND
8
0
0
TEXT
8
0
10
1.682000
20
-0.500000
40
0.080000
41
1.000000
50
90.000000
1
PD3
0
POLYLINE
8
0
66
1
40
0.016000
41
0.016000
0
VERTEX
8
0
10
1.600000
20
0.200000
0
VERTEX
8
0
10
1.600000
20
-0.600000
0
SEQEND
8
0
0
TEXT
8
0
10
1.582000
20
-0.500000
40
0.080000
41
1.000000
50
90.000000
1
PD2
0
POLYLINE
8
0
66
1
40
0.016000
41
0.016000
0
VERTEX
8
0
10
1.000000
20
0.200000
0
VERTEX
8
0
10
1.000000
20
-0.600000
0
SEQEND
8
0
0
TEXT
8
0
10
0.982000
20
-0.500000
40
0.080000
41
1.000000
50
90.000000
1
PD1
0
POLYLINE
8
0
66
1
40
0.016000
41
0.016000
0
VERTEX
8
0
10
0.700000
20
-1.000000
0
VERTEX
8
0
10
0.700000
20
-0.900000
0
SEQEND
8
0
0
POLYLINE
8
0
66
1
40
0.016000
41
0.016000
0
VERTEX
8
0
10
-0.500000
20
-1.500000
0
VERTEX
8
0
10
0.100000
20
-1.500000
0
SEQEND
8
0
0
POLYLINE
8
0
66
1
40
0.016000
41
0.016000
0
VERTEX
8
0
10
0.700000
20
-1.400000
0
VERTEX
8
0
10
0.700000
20
-1.500000
0
VERTEX
8
0
10
0.600000
20
-1.500000
0
SEQEND
8
0
0
POLYLINE
8
0
66
1
40
0.016000
41
0.016000
0
VERTEX
8
0
10
-0.500000
20
-1.600000
0
VERTEX
8
0
10
0.000000
20
-1.600000
0
VERTEX
8
0
10
0.100000
20
-1.700000
0
SEQEND
8
0
0
POLYLINE
8
0
66
1
40
0.016000
41
0.016000
0
VERTEX
8
0
10
0.700000
20
-2.200000
0
VERTEX
8
0
10
0.700000
20
-2.200000
0
SEQEND
8
0
0
POLYLINE
8
0
66
1
40
0.016000
41
0.016000
0
VERTEX
8
0
10
0.600000
20
-1.700000
0
VERTEX
8
0
10
0.700000
20
-1.700000
0
VERTEX
8
0
10
0.700000
20
-1.800000
0
SEQEND
8
0
0
POLYLINE
8
0
66
1
40
0.016000
41
0.016000
0
VERTEX
8
0
10
-0.900000
20
1.300000
0
VERTEX
8
0
10
-0.300000
20
1.300000
0
VERTEX
8
0
10
-0.300000
20
-0.800000
0
VERTEX
8
0
10
-0.500000
20
-0.800000
0
SEQEND
8
0
0
POLYLINE
8
0
66
1
40
0.016000
41
0.016000
0
VERTEX
8
0
10
-0.900000
20
1.000000
0
VERTEX
8
0
10
-0.400000
20
1.000000
0
VERTEX
8
0
10
-0.400000
20
-0.100000
0
VERTEX
8
0
10
-0.500000
20
-0.100000
0
SEQEND
8
0
0
POLYLINE
8
0
66
1
40
0.016000
41
0.016000
0
VERTEX
8
0
10
-2.200000
20
-2.700000
0
VERTEX
8
0
10
-0.700000
20
-2.700000
0
VERTEX
8
0
10
-0.700000
20
0.000000
0
VERTEX
8
0
10
-2.200000
20
0.000000
0
VERTEX
8
0
10
-2.200000
20
-2.700000
0
SEQEND
8
0
0
POLYLINE
8
0
66
1
40
0.016000
41
0.016000
0
VERTEX
8
0
10
-2.400000
20
-0.400000
0
VERTEX
8
0
10
-2.200000
20
-0.400000
0
SEQEND
8
0
0
TEXT
8
0
10
-2.150000
20
-0.440000
40
0.080000
41
1.000000
1
RA0/AN0
0
TEXT
8
0
10
-2.380000
20
-0.390000
40
0.080000
41
1.000000
1
2
0
POLYLINE
8
0
66
1
40
0.016000
41
0.016000
0
VERTEX
8
0
10
-2.400000
20
-0.500000
0
VERTEX
8
0
10
-2.200000
20
-0.500000
0
SEQEND
8
0
0
TEXT
8
0
10
-2.150000
20
-0.540000
40
0.080000
41
1.000000
1
RA1/AN1
0
TEXT
8
0
10
-2.380000
20
-0.490000
40
0.080000
41
1.000000
1
3
0
POLYLINE
8
0
66
1
40
0.016000
41
0.016000
0
VERTEX
8
0
10
-2.400000
20
-0.600000
0
VERTEX
8
0
10
-2.200000
20
-0.600000
0
SEQEND
8
0
0
TEXT
8
0
10
-2.150000
20
-0.640000
40
0.080000
41
1.000000
1
RA2/AN2/VREF-/CVREF
0
TEXT
8
0
10
-2.380000
20
-0.590000
40
0.080000
41
1.000000
1
4
0
POLYLINE
8
0
66
1
40
0.016000
41
0.016000
0
VERTEX
8
0
10
-2.400000
20
-0.800000
0
VERTEX
8
0
10
-2.200000
20
-0.800000
0
SEQEND
8
0
0
TEXT
8
0
10
-2.150000
20
-0.840000
40
0.080000
41
1.000000
1
RA4/T0CKI/C1OUT
0
TEXT
8
0
10
-2.380000
20
-0.790000
40
0.080000
41
1.000000
1
6
0
POLYLINE
8
0
66
1
40
0.016000
41
0.016000
0
VERTEX
8
0
10
-2.400000
20
-0.900000
0
VERTEX
8
0
10
-2.200000
20
-0.900000
0
SEQEND
8
0
0
TEXT
8
0
10
-2.150000
20
-0.940000
40
0.080000
41
1.000000
1
RA5/AN4/SS/C2OUT
0
TEXT
8
0
10
-2.380000
20
-0.890000
40
0.080000
41
1.000000
1
7
0
POLYLINE
8
0
66
1
40
0.016000
41
0.016000
0
VERTEX
8
0
10
-2.400000
20
-1.100000
0
VERTEX
8
0
10
-2.200000
20
-1.100000
0
SEQEND
8
0
0
TEXT
8
0
10
-2.150000
20
-1.140000
40
0.080000
41
1.000000
1
RE0/AN5/RD
0
TEXT
8
0
10
-2.380000
20
-1.090000
40
0.080000
41
1.000000
1
8
0
POLYLINE
8
0
66
1
40
0.016000
41
0.016000
0
VERTEX
8
0
10
-2.400000
20
-1.200000
0
VERTEX
8
0
10
-2.200000
20
-1.200000
0
SEQEND
8
0
0
TEXT
8
0
10
-2.150000
20
-1.240000
40
0.080000
41
1.000000
1
RE1/AN6/WR
0
TEXT
8
0
10
-2.380000
20
-1.190000
40
0.080000
41
1.000000
1
9
0
POLYLINE
8
0
66
1
40
0.016000
41
0.016000
0
VERTEX
8
0
10
-2.400000
20
-1.300000
0
VERTEX
8
0
10
-2.200000
20
-1.300000
0
SEQEND
8
0
0
TEXT
8
0
10
-2.150000
20
-1.340000
40
0.080000
41
1.000000
1
RE2/AN7/CS
0
TEXT
8
0
10
-2.460000
20
-1.290000
40
0.080000
41
1.000000
1
10
0
POLYLINE
8
0
66
1
40
0.016000
41
0.016000
0
VERTEX
8
0
10
-2.400000
20
-0.100000
0
VERTEX
8
0
10
-2.200000
20
-0.100000
0
SEQEND
8
0
0
TEXT
8
0
10
-2.150000
20
-0.140000
40
0.080000
41
1.000000
1
OSC1/CLKIN
0
TEXT
8
0
10
-2.460000
20
-0.090000
40
0.080000
41
1.000000
1
13
0
POLYLINE
8
0
66
1
40
0.016000
41
0.016000
0
VERTEX
8
0
10
-2.400000
20
-0.200000
0
VERTEX
8
0
10
-2.200000
20
-0.200000
0
SEQEND
8
0
0
TEXT
8
0
10
-2.150000
20
-0.240000
40
0.080000
41
1.000000
1
OSC2/CLKOUT
0
TEXT
8
0
10
-2.460000
20
-0.190000
40
0.080000
41
1.000000
1
14
0
POLYLINE
8
0
66
1
40
0.016000
41
0.016000
0
VERTEX
8
0
10
-0.500000
20
-1.100000
0
VERTEX
8
0
10
-0.700000
20
-1.100000
0
SEQEND
8
0
0
TEXT
8
0
10
-1.870000
20
-1.140000
40
0.080000
41
1.000000
1
RC1/T1OSI/CCP2
0
TEXT
8
0
10
-0.600000
20
-1.090000
40
0.080000
41
1.000000
1
16
0
POLYLINE
8
0
66
1
40
0.016000
41
0.016000
0
VERTEX
8
0
10
-0.500000
20
-1.200000
0
VERTEX
8
0
10
-0.700000
20
-1.200000
0
SEQEND
8
0
0
TEXT
8
0
10
-1.390000
20
-1.240000
40
0.080000
41
1.000000
1
RC2/CCP1
0
TEXT
8
0
10
-0.600000
20
-1.190000
40
0.080000
41
1.000000
1
17
0
POLYLINE
8
0
66
1
40
0.016000
41
0.016000
0
VERTEX
8
0
10
-0.500000
20
-1.300000
0
VERTEX
8
0
10
-0.700000
20
-1.300000
0
SEQEND
8
0
0
TEXT
8
0
10
-1.630000
20
-1.340000
40
0.080000
41
1.000000
1
RC3/SCK/SCL
0
TEXT
8
0
10
-0.600000
20
-1.290000
40
0.080000
41
1.000000
1
18
0
POLYLINE
8
0
66
1
40
0.016000
41
0.016000
0
VERTEX
8
0
10
-0.500000
20
-1.900000
0
VERTEX
8
0
10
-0.700000
20
-1.900000
0
SEQEND
8
0
0
TEXT
8
0
10
-1.390000
20
-1.940000
40
0.080000
41
1.000000
1
RD0/PSP0
0
TEXT
8
0
10
-0.600000
20
-1.890000
40
0.080000
41
1.000000
1
19
0
POLYLINE
8
0
66
1
40
0.016000
41
0.016000
0
VERTEX
8
0
10
-0.500000
20
-2.000000
0
VERTEX
8
0
10
-0.700000
20
-2.000000
0
SEQEND
8
0
0
TEXT
8
0
10
-1.390000
20
-2.040000
40
0.080000
41
1.000000
1
RD1/PSP1
0
TEXT
8
0
10
-0.600000
20
-1.990000
40
0.080000
41
1.000000
1
20
0
POLYLINE
8
0
66
1
40
0.016000
41
0.016000
0
VERTEX
8
0
10
-0.500000
20
-0.800000
0
VERTEX
8
0
10
-0.700000
20
-0.800000
0
SEQEND
8
0
0
TEXT
8
0
10
-1.310000
20
-0.840000
40
0.080000
41
1.000000
1
RB7/PGD
0
TEXT
8
0
10
-0.600000
20
-0.790000
40
0.080000
41
1.000000
1
40
0
POLYLINE
8
0
66
1
40
0.016000
41
0.016000
0
VERTEX
8
0
10
-0.500000
20
-0.700000
0
VERTEX
8
0
10
-0.700000
20
-0.700000
0
SEQEND
8
0
0
TEXT
8
0
10
-1.310000
20
-0.740000
40
0.080000
41
1.000000
1
RB6/PGC
0
TEXT
8
0
10
-0.600000
20
-0.690000
40
0.080000
41
1.000000
1
39
0
POLYLINE
8
0
66
1
40
0.016000
41
0.016000
0
VERTEX
8
0
10
-0.500000
20
-0.600000
0
VERTEX
8
0
10
-0.700000
20
-0.600000
0
SEQEND
8
0
0
TEXT
8
0
10
-0.990000
20
-0.640000
40
0.080000
41
1.000000
1
RB5
0
TEXT
8
0
10
-0.600000
20
-0.590000
40
0.080000
41
1.000000
1
38
0
POLYLINE
8
0
66
1
40
0.016000
41
0.016000
0
VERTEX
8
0
10
-0.500000
20
-0.500000
0
VERTEX
8
0
10
-0.700000
20
-0.500000
0
SEQEND
8
0
0
TEXT
8
0
10
-0.990000
20
-0.540000
40
0.080000
41
1.000000
1
RB4
0
TEXT
8
0
10
-0.600000
20
-0.490000
40
0.080000
41
1.000000
1
37
0
POLYLINE
8
0
66
1
40
0.016000
41
0.016000
0
VERTEX
8
0
10
-0.500000
20
-0.400000
0
VERTEX
8
0
10
-0.700000
20
-0.400000
0
SEQEND
8
0
0
TEXT
8
0
10
-1.310000
20
-0.440000
40
0.080000
41
1.000000
1
RB3/PGM
0
TEXT
8
0
10
-0.600000
20
-0.390000
40
0.080000
41
1.000000
1
36
0
POLYLINE
8
0
66
1
40
0.016000
41
0.016000
0
VERTEX
8
0
10
-0.500000
20
-0.300000
0
VERTEX
8
0
10
-0.700000
20
-0.300000
0
SEQEND
8
0
0
TEXT
8
0
10
-0.990000
20
-0.340000
40
0.080000
41
1.000000
1
RB2
0
TEXT
8
0
10
-0.600000
20
-0.290000
40
0.080000
41
1.000000
1
35
0
POLYLINE
8
0
66
1
40
0.016000
41
0.016000
0
VERTEX
8
0
10
-0.500000
20
-0.200000
0
VERTEX
8
0
10
-0.700000
20
-0.200000
0
SEQEND
8
0
0
TEXT
8
0
10
-0.990000
20
-0.240000
40
0.080000
41
1.000000
1
RB1
0
TEXT
8
0
10
-0.600000
20
-0.190000
40
0.080000
41
1.000000
1
34
0
POLYLINE
8
0
66
1
40
0.016000
41
0.016000
0
VERTEX
8
0
10
-0.500000
20
-0.100000
0
VERTEX
8
0
10
-0.700000
20
-0.100000
0
SEQEND
8
0
0
TEXT
8
0
10
-1.310000
20
-0.140000
40
0.080000
41
1.000000
1
RB0/INT
0
TEXT
8
0
10
-0.600000
20
-0.090000
40
0.080000
41
1.000000
1
33
0
POLYLINE
8
0
66
1
40
0.016000
41
0.016000
0
VERTEX
8
0
10
-0.500000
20
-2.600000
0
VERTEX
8
0
10
-0.700000
20
-2.600000
0
SEQEND
8
0
0
TEXT
8
0
10
-1.390000
20
-2.640000
40
0.080000
41
1.000000
1
RD7/PSP7
0
TEXT
8
0
10
-0.600000
20
-2.590000
40
0.080000
41
1.000000
1
30
0
POLYLINE
8
0
66
1
40
0.016000
41
0.016000
0
VERTEX
8
0
10
-0.500000
20
-2.500000
0
VERTEX
8
0
10
-0.700000
20
-2.500000
0
SEQEND
8
0
0
TEXT
8
0
10
-1.390000
20
-2.540000
40
0.080000
41
1.000000
1
RD6/PSP6
0
TEXT
8
0
10
-0.600000
20
-2.490000
40
0.080000
41
1.000000
1
29
0
POLYLINE
8
0
66
1
40
0.016000
41
0.016000
0
VERTEX
8
0
10
-0.500000
20
-2.400000
0
VERTEX
8
0
10
-0.700000
20
-2.400000
0
SEQEND
8
0
0
TEXT
8
0
10
-1.390000
20
-2.440000
40
0.080000
41
1.000000
1
RD5/PSP5
0
TEXT
8
0
10
-0.600000
20
-2.390000
40
0.080000
41
1.000000
1
28
0
POLYLINE
8
0
66
1
40
0.016000
41
0.016000
0
VERTEX
8
0
10
-0.500000
20
-2.300000
0
VERTEX
8
0
10
-0.700000
20
-2.300000
0
SEQEND
8
0
0
TEXT
8
0
10
-1.390000
20
-2.340000
40
0.080000
41
1.000000
1
RD4/PSP4
0
TEXT
8
0
10
-0.600000
20
-2.290000
40
0.080000
41
1.000000
1
27
0
POLYLINE
8
0
66
1
40
0.016000
41
0.016000
0
VERTEX
8
0
10
-0.500000
20
-2.200000
0
VERTEX
8
0
10
-0.700000
20
-2.200000
0
SEQEND
8
0
0
TEXT
8
0
10
-1.390000
20
-2.240000
40
0.080000
41
1.000000
1
RD3/PSP3
0
TEXT
8
0
10
-0.600000
20
-2.190000
40
0.080000
41
1.000000
1
22
0
POLYLINE
8
0
66
1
40
0.016000
41
0.016000
0
VERTEX
8
0
10
-0.500000
20
-2.100000
0
VERTEX
8
0
10
-0.700000
20
-2.100000
0
SEQEND
8
0
0
TEXT
8
0
10
-1.390000
20
-2.140000
40
0.080000
41
1.000000
1
RD2/PSP2
0
TEXT
8
0
10
-0.600000
20
-2.090000
40
0.080000
41
1.000000
1
21
0
POLYLINE
8
0
66
1
40
0.016000
41
0.016000
0
VERTEX
8
0
10
-0.500000
20
-1.700000
0
VERTEX
8
0
10
-0.700000
20
-1.700000
0
SEQEND
8
0
0
TEXT
8
0
10
-1.470000
20
-1.740000
40
0.080000
41
1.000000
1
RC7/RX/DT
0
TEXT
8
0
10
-0.600000
20
-1.690000
40
0.080000
41
1.000000
1
26
0
POLYLINE
8
0
66
1
40
0.016000
41
0.016000
0
VERTEX
8
0
10
-0.500000
20
-1.600000
0
VERTEX
8
0
10
-0.700000
20
-1.600000
0
SEQEND
8
0
0
TEXT
8
0
10
-1.470000
20
-1.640000
40
0.080000
41
1.000000
1
RC6/TX/CK
0
TEXT
8
0
10
-0.600000
20
-1.590000
40
0.080000
41
1.000000
1
25
0
POLYLINE
8
0
66
1
40
0.016000
41
0.016000
0
VERTEX
8
0
10
-0.500000
20
-1.500000
0
VERTEX
8
0
10
-0.700000
20
-1.500000
0
SEQEND
8
0
0
TEXT
8
0
10
-1.310000
20
-1.540000
40
0.080000
41
1.000000
1
RC5/SDO
0
TEXT
8
0
10
-0.600000
20
-1.490000
40
0.080000
41
1.000000
1
24
0
POLYLINE
8
0
66
1
40
0.016000
41
0.016000
0
VERTEX
8
0
10
-0.500000
20
-1.400000
0
VERTEX
8
0
10
-0.700000
20
-1.400000
0
SEQEND
8
0
0
TEXT
8
0
10
-1.630000
20
-1.440000
40
0.080000
41
1.000000
1
RC4/SDI/SDA
0
TEXT
8
0
10
-0.600000
20
-1.390000
40
0.080000
41
1.000000
1
23
0
POLYLINE
8
0
66
1
40
0.016000
41
0.016000
0
VERTEX
8
0
10
-2.400000
20
-0.700000
0
VERTEX
8
0
10
-2.200000
20
-0.700000
0
SEQEND
8
0
0
TEXT
8
0
10
-2.150000
20
-0.740000
40
0.080000
41
1.000000
1
RA3/AN3/VREF+
0
TEXT
8
0
10
-2.380000
20
-0.690000
40
0.080000
41
1.000000
1
5
0
POLYLINE
8
0
66
1
40
0.016000
41
0.016000
0
VERTEX
8
0
10
-0.500000
20
-1.000000
0
VERTEX
8
0
10
-0.700000
20
-1.000000
0
SEQEND
8
0
0
TEXT
8
0
10
-1.950000
20
-1.040000
40
0.080000
41
1.000000
1
RC0/T1OSO/T1CKI
0
TEXT
8
0
10
-0.600000
20
-0.990000
40
0.080000
41
1.000000
1
15
0
POLYLINE
8
0
66
1
40
0.016000
41
0.016000
0
VERTEX
8
0
10
-2.400000
20
-1.500000
0
VERTEX
8
0
10
-2.200000
20
-1.500000
0
SEQEND
8
0
0
TEXT
8
0
10
-2.150000
20
-1.540000
40
0.080000
41
1.000000
1
MCLR/Vpp/THV
0
TEXT
8
0
10
-2.380000
20
-1.490000
40
0.080000
41
1.000000
1
1
0
TEXT
8
0
10
-2.208000
20
0.023000
40
0.120000
41
0.666667
1
U1
0
TEXT
8
0
10
-2.208000
20
-2.798000
40
0.080000
41
1.000000
1
PIC16F877A
0
POLYLINE
8
0
66
1
40
0.016000
41
0.016000
0
VERTEX
8
0
10
0.200000
20
0.400000
0
VERTEX
8
0
10
2.200000
20
0.400000
0
VERTEX
8
0
10
2.200000
20
1.200000
0
VERTEX
8
0
10
0.200000
20
1.200000
0
VERTEX
8
0
10
0.200000
20
0.400000
0
SEQEND
8
0
0
POLYLINE
8
0
66
1
40
0.010000
41
0.010000
0
VERTEX
8
0
10
0.300000
20
0.680000
0
VERTEX
8
0
10
2.100000
20
0.680000
0
VERTEX
8
0
10
2.100000
20
1.120000
0
VERTEX
8
0
10
0.300000
20
1.120000
0
VERTEX
8
0
10
0.300000
20
0.680000
0
SEQEND
8
0
0
POLYLINE
8
0
66
1
40
0.016000
41
0.016000
0
VERTEX
8
0
10
1.900000
20
0.200000
0
VERTEX
8
0
10
1.900000
20
0.400000
0
SEQEND
8
0
0
TEXT
8
0
10
1.940000
20
0.450000
40
0.080000
41
1.000000
50
90.000000
1
D7
0
TEXT
8
0
10
1.890000
20
0.140000
40
0.080000
41
1.000000
50
90.000000
1
14
0
POLYLINE
8
0
66
1
40
0.016000
41
0.016000
0
VERTEX
8
0
10
1.800000
20
0.200000
0
VERTEX
8
0
10
1.800000
20
0.400000
0
SEQEND
8
0
0
TEXT
8
0
10
1.840000
20
0.450000
40
0.080000
41
1.000000
50
90.000000
1
D6
0
TEXT
8
0
10
1.790000
20
0.140000
40
0.080000
41
1.000000
50
90.000000
1
13
0
POLYLINE
8
0
66
1
40
0.016000
41
0.016000
0
VERTEX
8
0
10
1.700000
20
0.200000
0
VERTEX
8
0
10
1.700000
20
0.400000
0
SEQEND
8
0
0
TEXT
8
0
10
1.740000
20
0.450000
40
0.080000
41
1.000000
50
90.000000
1
D5
0
TEXT
8
0
10
1.690000
20
0.140000
40
0.080000
41
1.000000
50
90.000000
1
12
0
POLYLINE
8
0
66
1
40
0.016000
41
0.016000
0
VERTEX
8
0
10
1.600000
20
0.200000
0
VERTEX
8
0
10
1.600000
20
0.400000
0
SEQEND
8
0
0
TEXT
8
0
10
1.640000
20
0.450000
40
0.080000
41
1.000000
50
90.000000
1
D4
0
TEXT
8
0
10
1.590000
20
0.140000
40
0.080000
41
1.000000
50
90.000000
1
11
0
POLYLINE
8
0
66
1
40
0.016000
41
0.016000
0
VERTEX
8
0
10
1.500000
20
0.200000
0
VERTEX
8
0
10
1.500000
20
0.400000
0
SEQEND
8
0
0
TEXT
8
0
10
1.540000
20
0.450000
40
0.080000
41
1.000000
50
90.000000
1
D3
0
TEXT
8
0
10
1.490000
20
0.140000
40
0.080000
41
1.000000
50
90.000000
1
10
0
POLYLINE
8
0
66
1
40
0.016000
41
0.016000
0
VERTEX
8
0
10
1.400000
20
0.200000
0
VERTEX
8
0
10
1.400000
20
0.400000
0
SEQEND
8
0
0
TEXT
8
0
10
1.440000
20
0.450000
40
0.080000
41
1.000000
50
90.000000
1
D2
0
TEXT
8
0
10
1.390000
20
0.220000
40
0.080000
41
1.000000
50
90.000000
1
9
0
POLYLINE
8
0
66
1
40
0.016000
41
0.016000
0
VERTEX
8
0
10
1.300000
20
0.200000
0
VERTEX
8
0
10
1.300000
20
0.400000
0
SEQEND
8
0
0
TEXT
8
0
10
1.340000
20
0.450000
40
0.080000
41
1.000000
50
90.000000
1
D1
0
TEXT
8
0
10
1.290000
20
0.220000
40
0.080000
41
1.000000
50
90.000000
1
8
0
POLYLINE
8
0
66
1
40
0.016000
41
0.016000
0
VERTEX
8
0
10
1.200000
20
0.200000
0
VERTEX
8
0
10
1.200000
20
0.400000
0
SEQEND
8
0
0
TEXT
8
0
10
1.240000
20
0.450000
40
0.080000
41
1.000000
50
90.000000
1
D0
0
TEXT
8
0
10
1.190000
20
0.220000
40
0.080000
41
1.000000
50
90.000000
1
7
0
POLYLINE
8
0
66
1
40
0.016000
41
0.016000
0
VERTEX
8
0
10
1.000000
20
0.200000
0
VERTEX
8
0
10
1.000000
20
0.400000
0
SEQEND
8
0
0
TEXT
8
0
10
1.040000
20
0.450000
40
0.080000
41
1.000000
50
90.000000
1
E
0
TEXT
8
0
10
0.990000
20
0.220000
40
0.080000
41
1.000000
50
90.000000
1
6
0
POLYLINE
8
0
66
1
40
0.016000
41
0.016000
0
VERTEX
8
0
10
0.900000
20
0.200000
0
VERTEX
8
0
10
0.900000
20
0.400000
0
SEQEND
8
0
0
TEXT
8
0
10
0.940000
20
0.450000
40
0.080000
41
1.000000
50
90.000000
1
RW
0
TEXT
8
0
10
0.890000
20
0.220000
40
0.080000
41
1.000000
50
90.000000
1
5
0
POLYLINE
8
0
66
1
40
0.016000
41
0.016000
0
VERTEX
8
0
10
0.800000
20
0.200000
0
VERTEX
8
0
10
0.800000
20
0.400000
0
SEQEND
8
0
0
TEXT
8
0
10
0.840000
20
0.450000
40
0.080000
41
1.000000
50
90.000000
1
RS
0
TEXT
8
0
10
0.790000
20
0.220000
40
0.080000
41
1.000000
50
90.000000
1
4
0
POLYLINE
8
0
66
1
40
0.016000
41
0.016000
0
VERTEX
8
0
10
0.400000
20
0.200000
0
VERTEX
8
0
10
0.400000
20
0.400000
0
SEQEND
8
0
0
TEXT
8
0
10
0.440000
20
0.450000
40
0.080000
41
1.000000
50
90.000000
1
VSS
0
TEXT
8
0
10
0.390000
20
0.220000
40
0.080000
41
1.000000
50
90.000000
1
1
0
POLYLINE
8
0
66
1
40
0.016000
41
0.016000
0
VERTEX
8
0
10
0.500000
20
0.200000
0
VERTEX
8
0
10
0.500000
20
0.400000
0
SEQEND
8
0
0
TEXT
8
0
10
0.540000
20
0.450000
40
0.080000
41
1.000000
50
90.000000
1
VDD
0
TEXT
8
0
10
0.490000
20
0.220000
40
0.080000
41
1.000000
50
90.000000
1
2
0
POLYLINE
8
0
66
1
40
0.016000
41
0.016000
0
VERTEX
8
0
10
0.600000
20
0.200000
0
VERTEX
8
0
10
0.600000
20
0.400000
0
SEQEND
8
0
0
TEXT
8
0
10
0.640000
20
0.450000
40
0.080000
41
1.000000
50
90.000000
1
VEE
0
TEXT
8
0
10
0.590000
20
0.220000
40
0.080000
41
1.000000
50
90.000000
1
3
0
TEXT
8
0
10
0.192000
20
1.423000
40
0.120000
41
0.666667
1
LCD1
0
TEXT
8
0
10
0.192000
20
1.318000
40
0.080000
41
1.000000
1
LM016L
0
POLYLINE
8
0
66
1
40
0.016000
41
0.016000
0
VERTEX
8
0
10
-0.040000
20
-0.250000
0
VERTEX
8
0
10
0.040000
20
-0.250000
0
VERTEX
8
0
10
0.040000
20
0.050000
0
VERTEX
8
0
10
-0.040000
20
0.050000
0
VERTEX
8
0
10
-0.040000
20
-0.250000
0
SEQEND
8
0
0
POLYLINE
8
0
66
1
40
0.016000
41
0.016000
0
VERTEX
8
0
10
0.000000
20
-0.300000
0
VERTEX
8
0
10
0.000000
20
-0.250000
0
SEQEND
8
0
0
POLYLINE
8
0
66
1
40
0.016000
41
0.016000
0
VERTEX
8
0
10
0.000000
20
0.050000
0
VERTEX
8
0
10
0.000000
20
0.100000
0
SEQEND
8
0
0
POLYLINE
8
0
66
1
40
0.016000
41
0.016000
0
VERTEX
8
0
10
0.050000
20
-0.100000
0
VERTEX
8
0
10
0.080000
20
-0.120000
0
SEQEND
8
0
0
POLYLINE
8
0
66
1
40
0.016000
41
0.016000
0
VERTEX
8
0
10
0.050000
20
-0.100000
0
VERTEX
8
0
10
0.080000
20
-0.080000
0
SEQEND
8
0
0
POLYLINE
8
0
66
1
40
0.016000
41
0.016000
0
VERTEX
8
0
10
0.050000
20
-0.100000
0
VERTEX
8
0
10
0.100000
20
-0.100000
0
SEQEND
8
0
0
TEXT
8
1
10
0.028000
20
-0.184000
40
0.056000
41
1.000000
50
90.000000
1
50%
0
POLYLINE
8
0
66
1
40
0.016000
41
0.016000
0
VERTEX
8
0
10
0.000000
20
-0.400000
0
VERTEX
8
0
10
0.000000
20
-0.300000
0
SEQEND
8
0
0
POLYLINE
8
0
66
1
40
0.016000
41
0.016000
0
VERTEX
8
0
10
0.000000
20
0.200000
0
VERTEX
8
0
10
0.000000
20
0.100000
0
SEQEND
8
0
0
POLYLINE
8
0
66
1
40
0.016000
41
0.016000
0
VERTEX
8
0
10
0.200000
20
-0.100000
0
VERTEX
8
0
10
0.100000
20
-0.100000
0
SEQEND
8
0
0
CIRCLE
8
0
10
-0.120000
20
0.010000
40
0.040000
0
POLYLINE
8
0
66
1
40
0.008000
41
0.008000
0
VERTEX
8
0
10
-0.120000
20
0.030000
0
VERTEX
8
0
10
-0.130000
20
0.020000
0
SEQEND
8
0
0
POLYLINE
8
0
66
1
40
0.008000
41
0.008000
0
VERTEX
8
0
10
-0.120000
20
0.030000
0
VERTEX
8
0
10
-0.110000
20
0.020000
0
SEQEND
8
0
0
POLYLINE
8
0
66
1
40
0.008000
41
0.008000
0
VERTEX
8
0
10
-0.120000
20
0.030000
0
VERTEX
8
0
10
-0.120000
20
-0.010000
0
SEQEND
8
0
0
CIRCLE
8
0
10
-0.120000
20
-0.210000
40
0.040000
0
POLYLINE
8
0
66
1
40
0.008000
41
0.008000
0
VERTEX
8
0
10
-0.120000
20
-0.230000
0
VERTEX
8
0
10
-0.130000
20
-0.220000
0
SEQEND
8
0
0
POLYLINE
8
0
66
1
40
0.008000
41
0.008000
0
VERTEX
8
0
10
-0.120000
20
-0.230000
0
VERTEX
8
0
10
-0.110000
20
-0.220000
0
SEQEND
8
0
0
POLYLINE
8
0
66
1
40
0.008000
41
0.008000
0
VERTEX
8
0
10
-0.120000
20
-0.230000
0
VERTEX
8
0
10
-0.120000
20
-0.190000
0
SEQEND
8
0
0
TEXT
8
0
10
0.108004
20
0.223000
40
0.120000
41
0.666667
1
RV1
0
TEXT
8
0
10
0.108004
20
-0.498000
40
0.080000
41
1.000000
1
1k
0
POLYLINE
8
0
66
1
40
0.016000
41
0.016000
0
VERTEX
8
0
10
-0.050000
20
0.300000
0
VERTEX
8
0
10
0.000000
20
0.400000
0
VERTEX
8
0
10
0.050000
20
0.300000
0
VERTEX
8
0
10
-0.050000
20
0.300000
0
SEQEND
8
0
0
POLYLINE
8
0
66
1
40
0.016000
41
0.016000
0
VERTEX
8
0
10
0.000000
20
0.200000
0
VERTEX
8
0
10
0.000000
20
0.400000
0
SEQEND
8
0
0
CIRCLE
8
0
10
0.000000
20
0.200000
40
0.020000
0
POLYLINE
8
0
66
1
40
0.016000
41
0.016000
0
VERTEX
8
0
10
0.000000
20
-0.400000
0
VERTEX
8
0
10
0.000000
20
-0.500000
0
SEQEND
8
0
0
POLYLINE
8
0
66
1
40
0.016000
41
0.016000
0
VERTEX
8
0
10
-0.100000
20
-0.500000
0
VERTEX
8
0
10
0.100000
20
-0.500000
0
SEQEND
8
0
0
POLYLINE
8
0
66
1
40
0.016000
41
0.016000
0
VERTEX
8
0
10
-0.050000
20
-0.550000
0
VERTEX
8
0
10
0.050000
20
-0.550000
0
SEQEND
8
0
0
POLYLINE
8
0
66
1
40
0.016000
41
0.016000
0
VERTEX
8
0
10
-0.010000
20
-0.600000
0
VERTEX
8
0
10
0.010000
20
-0.600000
0
SEQEND
8
0
0
CIRCLE
8
0
10
0.000000
20
-0.400000
40
0.020000
0
CIRCLE
8
0
10
0.400000
20
-0.400000
40
0.020000
0
CIRCLE
8
0
10
1.400000
20
-0.400000
40
0.020000
0
CIRCLE
8
0
10
1.300000
20
-0.400000
40
0.020000
0
CIRCLE
8
0
10
1.200000
20
-0.400000
40
0.020000
0
CIRCLE
8
0
10
0.900000
20
-0.400000
40
0.020000
0
POLYLINE
8
0
66
1
40
0.016000
41
0.016000
0
VERTEX
8
0
10
-3.300000
20
-0.600000
0
VERTEX
8
0
10
-2.900000
20
-0.600000
0
VERTEX
8
0
10
-2.900000
20
0.100000
0
VERTEX
8
0
10
-3.300000
20
0.100000
0
VERTEX
8
0
10
-3.300000
20
-0.600000
0
SEQEND
8
0
0
POLYLINE
8
0
66
1
40
0.008000
41
0.008000
0
VERTEX
8
0
10
-3.250000
20
-0.150000
0
VERTEX
8
0
10
-2.950000
20
-0.150000
0
VERTEX
8
0
10
-2.950000
20
-0.050000
0
VERTEX
8
0
10
-3.250000
20
-0.050000
0
VERTEX
8
0
10
-3.250000
20
-0.150000
0
SEQEND
8
0
0
TEXT
8
2
10
-3.200000
20
-0.140000
40
0.080000
41
0.625000
1
74.0
0
POLYLINE
8
0
66
1
40
0.016000
41
0.016000
0
VERTEX
8
0
10
-3.100000
20
-0.800000
0
VERTEX
8
0
10
-3.100000
20
-0.600000
0
SEQEND
8
0
0
TEXT
8
0
10
-3.075000
20
-0.790000
40
0.080000
41
1.000000
1
3
0
POLYLINE
8
0
66
1
40
0.016000
41
0.016000
0
VERTEX
8
0
10
-3.100000
20
0.300000
0
VERTEX
8
0
10
-3.100000
20
0.100000
0
SEQEND
8
0
0
TEXT
8
0
10
-3.205000
20
0.210000
40
0.080000
41
1.000000
1
1
0
POLYLINE
8
0
66
1
40
0.016000
41
0.016000
0
VERTEX
8
0
10
-2.700000
20
-0.400000
0
VERTEX
8
0
10
-2.900000
20
-0.400000
0
SEQEND
8
0
0
TEXT
8
0
10
-3.270000
20
-0.440000
40
0.080000
41
1.000000
1
VOUT
0
TEXT
8
0
10
-2.800000
20
-0.390000
40
0.080000
41
1.000000
1
2
0
CIRCLE
8
0
10
-3.000000
20
-0.200000
40
0.040000
0
POLYLINE
8
0
66
1
40
0.008000
41
0.008000
0
VERTEX
8
0
10
-3.000000
20
-0.180000
0
VERTEX
8
0
10
-3.010000
20
-0.190000
0
SEQEND
8
0
0
POLYLINE
8
0
66
1
40
0.008000
41
0.008000
0
VERTEX
8
0
10
-3.000000
20
-0.180000
0
VERTEX
8
0
10
-2.990000
20
-0.190000
0
SEQEND
8
0
0
POLYLINE
8
0
66
1
40
0.008000
41
0.008000
0
VERTEX
8
0
10
-3.000000
20
-0.180000
0
VERTEX
8
0
10
-3.000000
20
-0.220000
0
SEQEND
8
0
0
CIRCLE
8
0
10
-3.200000
20
-0.200000
40
0.040000
0
POLYLINE
8
0
66
1
40
0.008000
41
0.008000
0
VERTEX
8
0
10
-3.200000
20
-0.220000
0
VERTEX
8
0
10
-3.210000
20
-0.210000
0
SEQEND
8
0
0
POLYLINE
8
0
66
1
40
0.008000
41
0.008000
0
VERTEX
8
0
10
-3.200000
20
-0.220000
0
VERTEX
8
0
10
-3.190000
20
-0.210000
0
SEQEND
8
0
0
POLYLINE
8
0
66
1
40
0.008000
41
0.008000
0
VERTEX
8
0
10
-3.200000
20
-0.220000
0
VERTEX
8
0
10
-3.200000
20
-0.180000
0
SEQEND
8
0
0
TEXT
8
0
10
-2.891996
20
0.223000
40
0.120000
41
0.666667
1
U2
0
TEXT
8
0
10
-2.891996
20
-0.798000
40
0.080000
41
1.000000
1
LM35
0
POLYLINE
8
0
66
1
40
0.016000
41
0.016000
0
VERTEX
8
0
10
-3.100000
20
-0.800000
0
VERTEX
8
0
10
-3.100000
20
-0.900000
0
SEQEND
8
0
0
POLYLINE
8
0
66
1
40
0.016000
41
0.016000
0
VERTEX
8
0
10
-3.200000
20
-0.900000
0
VERTEX
8
0
10
-3.000000
20
-0.900000
0
SEQEND
8
0
0
POLYLINE
8
0
66
1
40
0.016000
41
0.016000
0
VERTEX
8
0
10
-3.150000
20
-0.950000
0
VERTEX
8
0
10
-3.050000
20
-0.950000
0
SEQEND
8
0
0
POLYLINE
8
0
66
1
40
0.016000
41
0.016000
0
VERTEX
8
0
10
-3.110000
20
-1.000000
0
VERTEX
8
0
10
-3.090000
20
-1.000000
0
SEQEND
8
0
0
POLYLINE
8
0
66
1
40
0.016000
41
0.016000
0
VERTEX
8
0
10
-3.150000
20
0.400000
0
VERTEX
8
0
10
-3.100000
20
0.500000
0
VERTEX
8
0
10
-3.050000
20
0.400000
0
VERTEX
8
0
10
-3.150000
20
0.400000
0
SEQEND
8
0
0
POLYLINE
8
0
66
1
40
0.016000
41
0.016000
0
VERTEX
8
0
10
-3.100000
20
0.300000
0
VERTEX
8
0
10
-3.100000
20
0.500000
0
SEQEND
8
0
0
CIRCLE
8
0
10
2.780000
20
-0.800000
40
0.030000
0
CIRCLE
8
0
10
3.020000
20
-0.800000
40
0.030000
0
POLYLINE
8
0
66
1
40
0.016000
41
0.016000
0
VERTEX
8
0
10
3.040000
20
-0.720000
0
VERTEX
8
0
10
2.760000
20
-0.720000
0
SEQEND
8
0
0
POLYLINE
8
0
66
1
40
0.016000
41
0.016000
0
VERTEX
8
0
10
2.820000
20
-0.720000
0
VERTEX
8
0
10
2.980000
20
-0.720000
0
VERTEX
8
0
10
2.980000
20
-0.670000
0
VERTEX
8
0
10
2.820000
20
-0.670000
0
VERTEX
8
0
10
2.820000
20
-0.720000
0
SEQEND
8
0
0
POLYLINE
8
0
66
1
40
0.016000
41
0.016000
0
VERTEX
8
0
10
3.150000
20
-0.800000
0
VERTEX
8
0
10
3.050000
20
-0.800000
0
SEQEND
8
0
0
POLYLINE
8
0
66
1
40
0.016000
41
0.016000
0
VERTEX
8
0
10
2.650000
20
-0.800000
0
VERTEX
8
0
10
2.750000
20
-0.800000
0
SEQEND
8
0
0
CIRCLE
8
0
10
2.700000
20
-0.700000
40
0.040000
0
POLYLINE
8
0
66
1
40
0.008000
41
0.008000
0
VERTEX
8
0
10
2.700000
20
-0.720000
0
VERTEX
8
0
10
2.700000
20
-0.680000
0
SEQEND
8
0
0
POLYLINE
8
0
66
1
40
0.008000
41
0.008000
0
VERTEX
8
0
10
2.700000
20
-0.720000
0
VERTEX
8
0
10
2.710000
20
-0.710000
0
SEQEND
8
0
0
POLYLINE
8
0
66
1
40
0.008000
41
0.008000
0
VERTEX
8
0
10
2.700000
20
-0.720000
0
VERTEX
8
0
10
2.690000
20
-0.710000
0
SEQEND
8
0
0
POLYLINE
8
0
66
1
40
0.008000
41
0.008000
0
VERTEX
8
0
10
2.710000
20
-0.690000
0
VERTEX
8
0
10
2.700000
20
-0.680000
0
VERTEX
8
0
10
2.690000
20
-0.690000
0
SEQEND
8
0
0
POLYLINE
8
0
66
1
40
0.016000
41
0.016000
0
VERTEX
8
0
10
3.300000
20
-0.900000
0
VERTEX
8
0
10
3.300000
20
-1.000000
0
SEQEND
8
0
0
POLYLINE
8
0
66
1
40
0.016000
41
0.016000
0
VERTEX
8
0
10
3.400000
20
-1.000000
0
VERTEX
8
0
10
3.200000
20
-1.000000
0
SEQEND
8
0
0
POLYLINE
8
0
66
1
40
0.016000
41
0.016000
0
VERTEX
8
0
10
3.350000
20
-1.050000
0
VERTEX
8
0
10
3.250000
20
-1.050000
0
SEQEND
8
0
0
POLYLINE
8
0
66
1
40
0.016000
41
0.016000
0
VERTEX
8
0
10
3.310000
20
-1.100000
0
VERTEX
8
0
10
3.290000
20
-1.100000
0
SEQEND
8
0
0
POLYLINE
8
0
66
1
40
0.016000
41
0.016000
0
VERTEX
8
0
10
2.550000
20
-0.100000
0
VERTEX
8
0
10
2.500000
20
0.000000
0
VERTEX
8
0
10
2.450000
20
-0.100000
0
VERTEX
8
0
10
2.550000
20
-0.100000
0
SEQEND
8
0
0
POLYLINE
8
0
66
1
40
0.016000
41
0.016000
0
VERTEX
8
0
10
2.500000
20
-0.200000
0
VERTEX
8
0
10
2.500000
20
0.000000
0
SEQEND
8
0
0
POLYLINE
8
0
66
1
40
0.016000
41
0.016000
0
VERTEX
8
0
10
2.460000
20
-0.600000
0
VERTEX
8
0
10
2.540000
20
-0.600000
0
VERTEX
8
0
10
2.540000
20
-0.300000
0
VERTEX
8
0
10
2.460000
20
-0.300000
0
VERTEX
8
0
10
2.460000
20
-0.600000
0
SEQEND
8
0
0
POLYLINE
8
0
66
1
40
0.016000
41
0.016000
0
VERTEX
8
0
10
2.500000
20
-0.700000
0
VERTEX
8
0
10
2.500000
20
-0.600000
0
SEQEND
8
0
0
POLYLINE
8
0
66
1
40
0.016000
41
0.016000
0
VERTEX
8
0
10
2.500000
20
-0.200000
0
VERTEX
8
0
10
2.500000
20
-0.300000
0
SEQEND
8
0
0
TEXT
8
0
10
2.598000
20
-0.427000
40
0.120000
41
0.666667
1
R1
0
TEXT
8
0
10
2.598000
20
-0.532000
40
0.080000
41
1.000000
1
10k
0
CIRCLE
8
0
10
2.500000
20
-0.800000
40
0.020000
0
CIRCLE
8
0
10
2.100000
20
-0.800000
40
0.020000
0
CIRCLE
8
0
10
2.780000
20
-1.700000
40
0.030000
0
CIRCLE
8
0
10
3.020000
20
-1.700000
40
0.030000
0
POLYLINE
8
0
66
1
40
0.016000
41
0.016000
0
VERTEX
8
0
10
3.040000
20
-1.620000
0
VERTEX
8
0
10
2.760000
20
-1.620000
0
SEQEND
8
0
0
POLYLINE
8
0
66
1
40
0.016000
41
0.016000
0
VERTEX
8
0
10
2.820000
20
-1.620000
0
VERTEX
8
0
10
2.980000
20
-1.620000
0
VERTEX
8
0
10
2.980000
20
-1.570000
0
VERTEX
8
0
10
2.820000
20
-1.570000
0
VERTEX
8
0
10
2.820000
20
-1.620000
0
SEQEND
8
0
0
POLYLINE
8
0
66
1
40
0.016000
41
0.016000
0
VERTEX
8
0
10
3.150000
20
-1.700000
0
VERTEX
8
0
10
3.050000
20
-1.700000
0
SEQEND
8
0
0
POLYLINE
8
0
66
1
40
0.016000
41
0.016000
0
VERTEX
8
0
10
2.650000
20
-1.700000
0
VERTEX
8
0
10
2.750000
20
-1.700000
0
SEQEND
8
0
0
CIRCLE
8
0
10
2.700000
20
-1.600000
40
0.040000
0
POLYLINE
8
0
66
1
40
0.008000
41
0.008000
0
VERTEX
8
0
10
2.700000
20
-1.620000
0
VERTEX
8
0
10
2.700000
20
-1.580000
0
SEQEND
8
0
0
POLYLINE
8
0
66
1
40
0.008000
41
0.008000
0
VERTEX
8
0
10
2.700000
20
-1.620000
0
VERTEX
8
0
10
2.710000
20
-1.610000
0
SEQEND
8
0
0
POLYLINE
8
0
66
1
40
0.008000
41
0.008000
0
VERTEX
8
0
10
2.700000
20
-1.620000
0
VERTEX
8
0
10
2.690000
20
-1.610000
0
SEQEND
8
0
0
POLYLINE
8
0
66
1
40
0.008000
41
0.008000
0
VERTEX
8
0
10
2.710000
20
-1.590000
0
VERTEX
8
0
10
2.700000
20
-1.580000
0
VERTEX
8
0
10
2.690000
20
-1.590000
0
SEQEND
8
0
0
POLYLINE
8
0
66
1
40
0.016000
41
0.016000
0
VERTEX
8
0
10
3.300000
20
-1.800000
0
VERTEX
8
0
10
3.300000
20
-1.900000
0
SEQEND
8
0
0
POLYLINE
8
0
66
1
40
0.016000
41
0.016000
0
VERTEX
8
0
10
3.400000
20
-1.900000
0
VERTEX
8
0
10
3.200000
20
-1.900000
0
SEQEND
8
0
0
POLYLINE
8
0
66
1
40
0.016000
41
0.016000
0
VERTEX
8
0
10
3.350000
20
-1.950000
0
VERTEX
8
0
10
3.250000
20
-1.950000
0
SEQEND
8
0
0
POLYLINE
8
0
66
1
40
0.016000
41
0.016000
0
VERTEX
8
0
10
3.310000
20
-2.000000
0
VERTEX
8
0
10
3.290000
20
-2.000000
0
SEQEND
8
0
0
POLYLINE
8
0
66
1
40
0.016000
41
0.016000
0
VERTEX
8
0
10
2.550000
20
-1.000000
0
VERTEX
8
0
10
2.500000
20
-0.900000
0
VERTEX
8
0
10
2.450000
20
-1.000000
0
VERTEX
8
0
10
2.550000
20
-1.000000
0
SEQEND
8
0
0
POLYLINE
8
0
66
1
40
0.016000
41
0.016000
0
VERTEX
8
0
10
2.500000
20
-1.100000
0
VERTEX
8
0
10
2.500000
20
-0.900000
0
SEQEND
8
0
0
POLYLINE
8
0
66
1
40
0.016000
41
0.016000
0
VERTEX
8
0
10
2.460000
20
-1.500000
0
VERTEX
8
0
10
2.540000
20
-1.500000
0
VERTEX
8
0
10
2.540000
20
-1.200000
0
VERTEX
8
0
10
2.460000
20
-1.200000
0
VERTEX
8
0
10
2.460000
20
-1.500000
0
SEQEND
8
0
0
POLYLINE
8
0
66
1
40
0.016000
41
0.016000
0
VERTEX
8
0
10
2.500000
20
-1.600000
0
VERTEX
8
0
10
2.500000
20
-1.500000
0
SEQEND
8
0
0
POLYLINE
8
0
66
1
40
0.016000
41
0.016000
0
VERTEX
8
0
10
2.500000
20
-1.100000
0
VERTEX
8
0
10
2.500000
20
-1.200000
0
SEQEND
8
0
0
TEXT
8
0
10
2.598000
20
-1.327000
40
0.120000
41
0.666667
1
R2
0
TEXT
8
0
10
2.598000
20
-1.432000
40
0.080000
41
1.000000
1
10k
0
CIRCLE
8
0
10
2.500000
20
-1.700000
40
0.020000
0
CIRCLE
8
0
10
2.100000
20
-1.700000
40
0.020000
0
CIRCLE
8
0
10
2.780000
20
-2.600000
40
0.030000
0
CIRCLE
8
0
10
3.020000
20
-2.600000
40
0.030000
0
POLYLINE
8
0
66
1
40
0.016000
41
0.016000
0
VERTEX
8
0
10
3.040000
20
-2.520000
0
VERTEX
8
0
10
2.760000
20
-2.520000
0
SEQEND
8
0
0
POLYLINE
8
0
66
1
40
0.016000
41
0.016000
0
VERTEX
8
0
10
2.820000
20
-2.520000
0
VERTEX
8
0
10
2.980000
20
-2.520000
0
VERTEX
8
0
10
2.980000
20
-2.470000
0
VERTEX
8
0
10
2.820000
20
-2.470000
0
VERTEX
8
0
10
2.820000
20
-2.520000
0
SEQEND
8
0
0
POLYLINE
8
0
66
1
40
0.016000
41
0.016000
0
VERTEX
8
0
10
3.150000
20
-2.600000
0
VERTEX
8
0
10
3.050000
20
-2.600000
0
SEQEND
8
0
0
POLYLINE
8
0
66
1
40
0.016000
41
0.016000
0
VERTEX
8
0
10
2.650000
20
-2.600000
0
VERTEX
8
0
10
2.750000
20
-2.600000
0
SEQEND
8
0
0
CIRCLE
8
0
10
2.700000
20
-2.500000
40
0.040000
0
POLYLINE
8
0
66
1
40
0.008000
41
0.008000
0
VERTEX
8
0
10
2.700000
20
-2.520000
0
VERTEX
8
0
10
2.700000
20
-2.480000
0
SEQEND
8
0
0
POLYLINE
8
0
66
1
40
0.008000
41
0.008000
0
VERTEX
8
0
10
2.700000
20
-2.520000
0
VERTEX
8
0
10
2.710000
20
-2.510000
0
SEQEND
8
0
0
POLYLINE
8
0
66
1
40
0.008000
41
0.008000
0
VERTEX
8
0
10
2.700000
20
-2.520000
0
VERTEX
8
0
10
2.690000
20
-2.510000
0
SEQEND
8
0
0
POLYLINE
8
0
66
1
40
0.008000
41
0.008000
0
VERTEX
8
0
10
2.710000
20
-2.490000
0
VERTEX
8
0
10
2.700000
20
-2.480000
0
VERTEX
8
0
10
2.690000
20
-2.490000
0
SEQEND
8
0
0
POLYLINE
8
0
66
1
40
0.016000
41
0.016000
0
VERTEX
8
0
10
3.300000
20
-2.700000
0
VERTEX
8
0
10
3.300000
20
-2.800000
0
SEQEND
8
0
0
POLYLINE
8
0
66
1
40
0.016000
41
0.016000
0
VERTEX
8
0
10
3.400000
20
-2.800000
0
VERTEX
8
0
10
3.200000
20
-2.800000
0
SEQEND
8
0
0
POLYLINE
8
0
66
1
40
0.016000
41
0.016000
0
VERTEX
8
0
10
3.350000
20
-2.850000
0
VERTEX
8
0
10
3.250000
20
-2.850000
0
SEQEND
8
0
0
POLYLINE
8
0
66
1
40
0.016000
41
0.016000
0
VERTEX
8
0
10
3.310000
20
-2.900000
0
VERTEX
8
0
10
3.290000
20
-2.900000
0
SEQEND
8
0
0
POLYLINE
8
0
66
1
40
0.016000
41
0.016000
0
VERTEX
8
0
10
2.550000
20
-1.900000
0
VERTEX
8
0
10
2.500000
20
-1.800000
0
VERTEX
8
0
10
2.450000
20
-1.900000
0
VERTEX
8
0
10
2.550000
20
-1.900000
0
SEQEND
8
0
0
POLYLINE
8
0
66
1
40
0.016000
41
0.016000
0
VERTEX
8
0
10
2.500000
20
-2.000000
0
VERTEX
8
0
10
2.500000
20
-1.800000
0
SEQEND
8
0
0
POLYLINE
8
0
66
1
40
0.016000
41
0.016000
0
VERTEX
8
0
10
2.460000
20
-2.400000
0
VERTEX
8
0
10
2.540000
20
-2.400000
0
VERTEX
8
0
10
2.540000
20
-2.100000
0
VERTEX
8
0
10
2.460000
20
-2.100000
0
VERTEX
8
0
10
2.460000
20
-2.400000
0
SEQEND
8
0
0
POLYLINE
8
0
66
1
40
0.016000
41
0.016000
0
VERTEX
8
0
10
2.500000
20
-2.500000
0
VERTEX
8
0
10
2.500000
20
-2.400000
0
SEQEND
8
0
0
POLYLINE
8
0
66
1
40
0.016000
41
0.016000
0
VERTEX
8
0
10
2.500000
20
-2.000000
0
VERTEX
8
0
10
2.500000
20
-2.100000
0
SEQEND
8
0
0
TEXT
8
0
10
2.598000
20
-2.227000
40
0.120000
41
0.666667
1
R3
0
TEXT
8
0
10
2.598000
20
-2.332000
40
0.080000
41
1.000000
1
10k
0
CIRCLE
8
0
10
2.500000
20
-2.600000
40
0.020000
0
CIRCLE
8
0
10
2.100000
20
-2.600000
40
0.020000
0
CIRCLE
8
0
10
0.700000
20
-1.200000
40
0.120000
0
POLYLINE
8
0
66
1
40
0.015000
41
0.015000
0
VERTEX
8
0
10
0.750000
20
-1.250000
0
VERTEX
8
0
10
0.650000
20
-1.250000
0
SEQEND
8
0
0
POLYLINE
8
0
66
1
40
0.016000
41
0.016000
0
VERTEX
8
0
10
0.700000
20
-1.100000
0
VERTEX
8
0
10
0.700000
20
-1.170000
0
SEQEND
8
0
0
POLYLINE
8
0
66
1
40
0.016000
41
0.016000
0
VERTEX
8
0
10
0.700000
20
-1.250000
0
VERTEX
8
0
10
0.700000
20
-1.300000
0
SEQEND
8
0
0
POLYLINE
8
0
66
1
40
0.015000
41
0.015000
0
VERTEX
8
0
10
0.700000
20
-1.250000
0
VERTEX
8
0
10
0.640000
20
-1.170000
0
VERTEX
8
0
10
0.760000
20
-1.170000
0
VERTEX
8
0
10
0.700000
20
-1.250000
0
SEQEND
8
0
0
POLYLINE
8
0
66
1
40
0.016000
41
0.016000
0
VERTEX
8
0
10
0.700000
20
-1.000000
0
VERTEX
8
0
10
0.700000
20
-1.100000
0
SEQEND
8
0
0
POLYLINE
8
0
66
1
40
0.016000
41
0.016000
0
VERTEX
8
0
10
0.700000
20
-1.400000
0
VERTEX
8
0
10
0.700000
20
-1.300000
0
SEQEND
8
0
0
TEXT
8
0
10
0.878000
20
-1.207000
40
0.120000
41
0.666667
1
D1
0
TEXT
8
0
10
0.878000
20
-1.312000
40
0.080000
41
1.000000
1
LED-RED
0
POLYLINE
8
0
66
1
40
0.016000
41
0.016000
0
VERTEX
8
0
10
0.650000
20
-0.800000
0
VERTEX
8
0
10
0.700000
20
-0.700000
0
VERTEX
8
0
10
0.750000
20
-0.800000
0
VERTEX
8
0
10
0.650000
20
-0.800000
0
SEQEND
8
0
0
POLYLINE
8
0
66
1
40
0.016000
41
0.016000
0
VERTEX
8
0
10
0.700000
20
-0.900000
0
VERTEX
8
0
10
0.700000
20
-0.700000
0
SEQEND
8
0
0
POLYLINE
8
0
66
1
40
0.016000
41
0.016000
0
VERTEX
8
0
10
0.200000
20
-1.540000
0
VERTEX
8
0
10
0.500000
20
-1.540000
0
VERTEX
8
0
10
0.500000
20
-1.460000
0
VERTEX
8
0
10
0.200000
20
-1.460000
0
VERTEX
8
0
10
0.200000
20
-1.540000
0
SEQEND
8
0
0
POLYLINE
8
0
66
1
40
0.016000
41
0.016000
0
VERTEX
8
0
10
0.100000
20
-1.500000
0
VERTEX
8
0
10
0.200000
20
-1.500000
0
SEQEND
8
0
0
POLYLINE
8
0
66
1
40
0.016000
41
0.016000
0
VERTEX
8
0
10
0.600000
20
-1.500000
0
VERTEX
8
0
10
0.500000
20
-1.500000
0
SEQEND
8
0
0
TEXT
8
0
10
0.192000
20
-1.437000
40
0.120000
41
0.666667
1
R4
0
TEXT
8
0
10
0.192000
20
-1.638000
40
0.080000
41
1.000000
1
220
0
POLYLINE
8
0
66
1
40
0.016000
41
0.016000
0
VERTEX
8
0
10
0.200000
20
-1.740000
0
VERTEX
8
0
10
0.500000
20
-1.740000
0
VERTEX
8
0
10
0.500000
20
-1.660000
0
VERTEX
8
0
10
0.200000
20
-1.660000
0
VERTEX
8
0
10
0.200000
20
-1.740000
0
SEQEND
8
0
0
POLYLINE
8
0
66
1
40
0.016000
41
0.016000
0
VERTEX
8
0
10
0.100000
20
-1.700000
0
VERTEX
8
0
10
0.200000
20
-1.700000
0
SEQEND
8
0
0
POLYLINE
8
0
66
1
40
0.016000
41
0.016000
0
VERTEX
8
0
10
0.600000
20
-1.700000
0
VERTEX
8
0
10
0.500000
20
-1.700000
0
SEQEND
8
0
0
TEXT
8
0
10
0.192000
20
-1.637000
40
0.120000
41
0.666667
1
R5
0
TEXT
8
0
10
0.192000
20
-1.838000
40
0.080000
41
1.000000
1
220
0
POLYLINE
8
0
66
1
40
0.016000
41
0.016000
0
VERTEX
8
0
10
0.750000
20
-2.300000
0
VERTEX
8
0
10
0.700000
20
-2.400000
0
VERTEX
8
0
10
0.650000
20
-2.300000
0
VERTEX
8
0
10
0.750000
20
-2.300000
0
SEQEND
8
0
0
POLYLINE
8
0
66
1
40
0.016000
41
0.016000
0
VERTEX
8
0
10
0.700000
20
-2.200000
0
VERTEX
8
0
10
0.700000
20
-2.400000
0
SEQEND
8
0
0
CIRCLE
8
0
10
0.700000
20
-2.000000
40
0.120000
0
POLYLINE
8
0
66
1
40
0.015000
41
0.015000
0
VERTEX
8
0
10
0.650000
20
-1.950000
0
VERTEX
8
0
10
0.750000
20
-1.950000
0
SEQEND
8
0
0
POLYLINE
8
0
66
1
40
0.016000
41
0.016000
0
VERTEX
8
0
10
0.700000
20
-2.100000
0
VERTEX
8
0
10
0.700000
20
-2.030000
0
SEQEND
8
0
0
POLYLINE
8
0
66
1
40
0.016000
41
0.016000
0
VERTEX
8
0
10
0.700000
20
-1.950000
0
VERTEX
8
0
10
0.700000
20
-1.900000
0
SEQEND
8
0
0
POLYLINE
8
0
66
1
40
0.015000
41
0.015000
0
VERTEX
8
0
10
0.700000
20
-1.950000
0
VERTEX
8
0
10
0.760000
20
-2.030000
0
VERTEX
8
0
10
0.640000
20
-2.030000
0
VERTEX
8
0
10
0.700000
20
-1.950000
0
SEQEND
8
0
0
POLYLINE
8
0
66
1
40
0.016000
41
0.016000
0
VERTEX
8
0
10
0.700000
20
-2.200000
0
VERTEX
8
0
10
0.700000
20
-2.100000
0
SEQEND
8
0
0
POLYLINE
8
0
66
1
40
0.016000
41
0.016000
0
VERTEX
8
0
10
0.700000
20
-1.800000
0
VERTEX
8
0
10
0.700000
20
-1.900000
0
SEQEND
8
0
0
TEXT
8
0
10
0.878000
20
-2.007000
40
0.120000
41
0.666667
1
D2
0
TEXT
8
0
10
0.878000
20
-2.112000
40
0.080000
41
1.000000
1
LED-GREEN
0
TEXT
8
0
10
3.800000
20
-1.970000
40
0.240000
41
0.333333
1
UP
0
TEXT
8
0
10
3.800000
20
-2.770000
40
0.240000
41
0.333333
1
DOWN
0
TEXT
8
0
10
3.700000
20
-1.070000
40
0.240000
41
0.333333
1
STA/STO
0
TEXT
8
0
10
-3.200000
20
1.030000
40
0.240000
41
0.333333
1
ZERO CROSSING
0
POLYLINE
8
0
66
1
40
0.016000
41
0.016000
0
VERTEX
8
0
10
-3.300000
20
1.500000
0
VERTEX
8
0
10
-1.000000
20
1.500000
0
VERTEX
8
0
10
-1.000000
20
0.800000
0
VERTEX
8
0
10
-3.300000
20
0.800000
0
SEQEND
8
0
0
POLYLINE
8
0
66
1
40
0.016000
41
0.016000
0
VERTEX
8
0
10
-3.300000
20
1.500000
0
VERTEX
8
0
10
-3.300000
20
0.800000
0
SEQEND
8
0
0
CIRCLE
8
0
10
-0.900000
20
1.300000
40
0.020000
0
CIRCLE
8
0
10
-0.900000
20
1.000000
40
0.020000
0
TEXT
8
0
10
-5.000000
20
1.030000
40
0.240000
41
0.333333
1
THIET BI
0
POLYLINE
8
0
66
1
40
0.016000
41
0.016000
0
VERTEX
8
0
10
-2.300000
20
1.800000
0
VERTEX
8
0
10
-3.500000
20
1.800000
0
VERTEX
8
0
10
-3.100000
20
1.600000
0
SEQEND
8
0
0
POLYLINE
8
0
66
1
40
0.016000
41
0.016000
0
VERTEX
8
0
10
-3.500000
20
1.800000
0
VERTEX
8
0
10
-3.100000
20
2.000000
0
SEQEND
8
0
0
ENDSEC
0
EOF

